G04 DipTrace 3.2.0.1*
G04 Top.gbr*
%MOIN*%
G04 #@! TF.FileFunction,Copper,L1,Top*
G04 #@! TF.Part,Single*
G04 #@! TA.AperFunction,Conductor*
%ADD14C,0.012992*%
G04 #@! TA.AperFunction,CopperBalancing*
%ADD15C,0.025*%
G04 #@! TA.AperFunction,ComponentPad*
%ADD16C,0.059055*%
%ADD17R,0.059055X0.059055*%
%ADD18R,0.066929X0.066929*%
%ADD19C,0.066*%
%ADD20R,0.098425X0.098425*%
%ADD21C,0.098425*%
%ADD22R,0.062992X0.062992*%
%ADD23C,0.062992*%
%ADD24C,0.06*%
%ADD25C,0.06*%
%ADD26R,0.07874X0.07874*%
%ADD27C,0.07874*%
G04 #@! TA.AperFunction,ViaPad*
%ADD28C,0.04*%
%FSLAX26Y26*%
G04*
G70*
G90*
G75*
G01*
G04 Top*
%LPD*%
X2686220Y1122047D2*
D14*
X2401575D1*
X2303150Y1023622D1*
X1879921D1*
X1811024Y954724D1*
X2874016Y1648819D2*
X2814961Y1707874D1*
Y1798818D1*
X3424014D1*
X3474016Y1848819D1*
X708661Y3503937D2*
X767717Y3562992D1*
X1049606D1*
X1108661Y3503937D1*
X1220472Y1446850D2*
X1289370Y1377953D1*
X1742126D1*
X1811024Y1446850D1*
X1108661Y3503937D2*
X1167717Y3444882D1*
X2149606D1*
X2208661Y3503937D1*
X3307087Y669291D2*
X3236613Y598818D1*
X2814962D1*
X2744488Y669291D1*
X2696850D1*
X2519685Y492126D1*
X1791339D1*
X1712598Y570866D1*
X2125984Y3070866D2*
X2121936Y3074915D1*
X748031D1*
X688976Y3015860D1*
Y2224409D1*
X708661Y2204724D1*
X3070866Y2755906D2*
X1811024D1*
X2952756Y3503937D2*
X2893701Y3562992D1*
X1967717D1*
X1908661Y3503937D1*
X2992126Y1023622D2*
Y1220472D1*
X2913386Y1299213D1*
X1023622Y2952756D2*
X3070866D1*
X1220472Y3385827D2*
X2992126D1*
X531496Y570866D2*
X452756Y649606D1*
Y1673228D1*
X511811Y1732283D1*
X2165354D1*
X2224409Y1673228D1*
Y1614172D1*
X2289762Y1548819D1*
X2874016D1*
X2519685Y1417323D2*
X2755906D1*
X2824409Y1348819D1*
X2874016D1*
X1574803Y1968504D2*
X2500000D1*
X2480315Y1988189D1*
Y1692913D1*
X2086614Y1102362D2*
X2165353D1*
X2244093Y1181102D1*
X2755906D1*
X2823622Y1248819D1*
X2874016D1*
X3385827Y669291D2*
X3405512Y688976D1*
Y798818D1*
X2814959D1*
X2744488Y728346D1*
X1476378D1*
X1318898Y570866D1*
X3346457Y748031D2*
X3228348D1*
X3179134Y698818D1*
X1643699D1*
X1515748Y570866D1*
X3474016Y1748819D2*
X2874016D1*
X942126Y1240157D2*
X866142Y1164173D1*
Y846457D1*
X925197Y787402D1*
X2696852D1*
X2808268Y898818D1*
X3424017D1*
X3474016Y848819D1*
X2007874Y1564961D2*
X1870079Y1427165D1*
Y1200787D1*
X1751969Y1082677D1*
X1692913Y1023622D1*
Y905512D1*
X1751969Y846457D1*
X2283465D1*
X2499764Y1062756D1*
X2755904D1*
X2819843Y998818D1*
X2933071D1*
X2983070Y948819D1*
X3474016D1*
X1751969Y1082677D2*
X1712598Y1122047D1*
X942126D1*
X1417323Y1446850D2*
X1643701Y1673228D1*
X2047244D1*
X2106299Y1614173D1*
Y1476378D1*
X2165354Y1417323D1*
X2342520D1*
X2401575Y1476378D1*
X2686220D1*
X2755906D1*
X2833466Y1398818D1*
X3051181D1*
X3401180Y1048819D1*
X3474016D1*
X2686220Y1358268D2*
X2627165Y1299213D1*
X2155512D1*
X2007874Y1446850D1*
X2637795Y1614173D2*
X2653151Y1598818D1*
X3024017D1*
X3474016Y1148819D1*
X1889764Y2125984D2*
X1968504Y2204724D1*
X2992126D1*
X3307087Y1889764D1*
X2755906Y1692913D2*
X2726142Y1663150D1*
X2578740D1*
X2529764Y1614173D1*
X2362205D1*
X2401575Y629921D2*
X2390059Y641437D1*
X1633858D1*
Y551181D1*
X1730374Y454665D1*
X2779862D1*
X2874016Y548819D1*
X3228346Y1889764D2*
X3219293Y1898818D1*
X2845274D1*
X2668110Y1721654D1*
X942126Y1358268D2*
Y1614173D1*
X1030709Y1702756D1*
X2106299D1*
X2165354Y1643701D1*
Y1476378D1*
X2286220D1*
X3385827Y1889764D2*
Y1968504D1*
X3090551Y2263780D1*
X1574803D1*
X1515748Y2204724D1*
Y1968504D1*
X1574803Y1909449D1*
X2165354D1*
X2256791Y1818012D1*
Y1640846D1*
X2283465Y1614173D1*
D28*
X3307087Y669291D3*
X708661Y2204724D3*
X2125984Y3070866D3*
X1811024Y2755906D3*
X3070866D3*
X2952756Y3503937D3*
X2913386Y1299213D3*
X2992126Y1023622D3*
X3070866Y2952756D3*
X1023622D3*
X2992126Y3385827D3*
X1220472D3*
X2519685Y1417323D3*
X2480315Y1692913D3*
X1574803Y1968504D3*
X2086614Y1102362D3*
X3385827Y669291D3*
X3346457Y748031D3*
X2637795Y1614173D3*
X3307087Y1889764D3*
X1889764Y2125984D3*
X2362205Y1614173D3*
X2755906Y1692913D3*
X2401575Y629921D3*
X3228346Y1889764D3*
X2283465Y1614173D3*
X3385827Y1889764D3*
X408719Y3584678D2*
D15*
X1940244D1*
X2921150D2*
X3528298D1*
X408719Y3559810D2*
X454745D1*
X529505D2*
X785741D1*
X831577D2*
X885715D1*
X931587D2*
X985724D1*
X1031596D2*
X1185743D1*
X1231579D2*
X1285717D1*
X1331588D2*
X1385726D1*
X1431597D2*
X1485735D1*
X1531606D2*
X1585744D1*
X1631580D2*
X1685717D1*
X1731589D2*
X1785727D1*
X1831598D2*
X1885736D1*
X2946054D2*
X3407512D1*
X3482272D2*
X3528298D1*
X408719Y3534941D2*
X431529D1*
X552722D2*
X755383D1*
X1061919D2*
X1155385D1*
X2989904D2*
X3384260D1*
X3505488D2*
X3528298D1*
X408719Y3510072D2*
X424066D1*
X560186D2*
X746987D1*
X1070352D2*
X1146988D1*
X2170345D2*
X2897454D1*
X3001352D2*
X3376795D1*
X3512951D2*
X3528298D1*
X408719Y3485203D2*
X426470D1*
X557782D2*
X749678D1*
X1067625D2*
X1149680D1*
X2167618D2*
X2907718D1*
X2997799D2*
X3379235D1*
X3510512D2*
X3528298D1*
X408719Y3460335D2*
X440249D1*
X544003D2*
X765682D1*
X851638D2*
X865692D1*
X951647D2*
X965701D1*
X1051619D2*
X1165684D1*
X1251638D2*
X1265693D1*
X1351647D2*
X1365702D1*
X1451621D2*
X1465676D1*
X1551630D2*
X1565685D1*
X1651639D2*
X1665694D1*
X1751648D2*
X1765703D1*
X1851622D2*
X1865676D1*
X1951631D2*
X1965685D1*
X2051640D2*
X2065694D1*
X2151650D2*
X2934129D1*
X2971388D2*
X3393014D1*
X3496732D2*
X3528298D1*
X408719Y3435466D2*
X3528298D1*
X408719Y3410597D2*
X1178638D1*
X3033970D2*
X3528298D1*
X408719Y3385728D2*
X1171497D1*
X3041110D2*
X3528298D1*
X408719Y3360860D2*
X1178745D1*
X3033862D2*
X3528298D1*
X408719Y3335991D2*
X3528298D1*
X408719Y3311122D2*
X3528298D1*
X408719Y3286253D2*
X3528298D1*
X408719Y3261385D2*
X3528298D1*
X408719Y3236516D2*
X3528298D1*
X408719Y3211647D2*
X3528298D1*
X408719Y3186778D2*
X3528298D1*
X408719Y3161909D2*
X3528298D1*
X408719Y3137041D2*
X3528298D1*
X408719Y3112172D2*
X2102154D1*
X2149819D2*
X3528298D1*
X408719Y3087303D2*
X711282D1*
X2171961D2*
X3528298D1*
X408719Y3062434D2*
X686415D1*
X2174220D2*
X3528298D1*
X408719Y3037566D2*
X661618D1*
X759845D2*
X2091029D1*
X2160944D2*
X3528298D1*
X408719Y3012697D2*
X653472D1*
X734978D2*
X3528298D1*
X408719Y2987828D2*
X653472D1*
X724463D2*
X990605D1*
X1056643D2*
X3037833D1*
X3103873D2*
X3528298D1*
X408719Y2962959D2*
X653472D1*
X724463D2*
X975748D1*
X3118728D2*
X3528298D1*
X408719Y2938091D2*
X653472D1*
X724463D2*
X977004D1*
X3117472D2*
X3528298D1*
X408719Y2913222D2*
X653472D1*
X724463D2*
X996669D1*
X1050579D2*
X3043898D1*
X3097844D2*
X3528298D1*
X408719Y2888353D2*
X653472D1*
X724463D2*
X3528298D1*
X408719Y2863484D2*
X653472D1*
X724463D2*
X3528298D1*
X408719Y2838615D2*
X653472D1*
X724463D2*
X3528298D1*
X408719Y2813747D2*
X653472D1*
X724463D2*
X3528298D1*
X408719Y2788878D2*
X653472D1*
X724463D2*
X1775751D1*
X3106133D2*
X3528298D1*
X408719Y2764009D2*
X653472D1*
X724463D2*
X1762761D1*
X3119159D2*
X3528298D1*
X408719Y2739140D2*
X653472D1*
X724463D2*
X1765165D1*
X3116719D2*
X3528298D1*
X408719Y2714272D2*
X653472D1*
X724463D2*
X1787844D1*
X1834218D2*
X3047665D1*
X3094041D2*
X3528298D1*
X408719Y2689403D2*
X653472D1*
X724463D2*
X3528298D1*
X408719Y2664534D2*
X653472D1*
X724463D2*
X3528298D1*
X408719Y2639665D2*
X653472D1*
X724463D2*
X3528298D1*
X408719Y2614797D2*
X653472D1*
X724463D2*
X3528298D1*
X408719Y2589928D2*
X653472D1*
X724463D2*
X3528298D1*
X408719Y2565059D2*
X653472D1*
X724463D2*
X3528298D1*
X408719Y2540190D2*
X653472D1*
X724463D2*
X3528298D1*
X408719Y2515322D2*
X653472D1*
X724463D2*
X3528298D1*
X408719Y2490453D2*
X653472D1*
X724463D2*
X3528298D1*
X408719Y2465584D2*
X653472D1*
X724463D2*
X3528298D1*
X408719Y2440715D2*
X653472D1*
X724463D2*
X3528298D1*
X408719Y2415846D2*
X653472D1*
X724463D2*
X3528298D1*
X408719Y2390978D2*
X653472D1*
X724463D2*
X3528298D1*
X408719Y2366109D2*
X653472D1*
X724463D2*
X3528298D1*
X408719Y2341240D2*
X458012D1*
X526239D2*
X653472D1*
X724463D2*
X3410778D1*
X3479005D2*
X3528298D1*
X408719Y2316371D2*
X432570D1*
X551681D2*
X653472D1*
X724463D2*
X3385336D1*
X3504448D2*
X3528298D1*
X408719Y2291503D2*
X424244D1*
X560007D2*
X653472D1*
X724463D2*
X1554417D1*
X3110941D2*
X3377010D1*
X3512736D2*
X3528298D1*
X408719Y2266634D2*
X425967D1*
X558283D2*
X653472D1*
X724463D2*
X1528509D1*
X3136850D2*
X3378697D1*
X3511050D2*
X3528298D1*
X408719Y2241765D2*
X438634D1*
X545617D2*
X653472D1*
X739248D2*
X1503640D1*
X3161718D2*
X3391400D1*
X3498348D2*
X3528298D1*
X408719Y2216896D2*
X654370D1*
X756042D2*
X1482577D1*
X1577072D2*
X1931524D1*
X3029089D2*
X3088286D1*
X3186585D2*
X3528298D1*
X408719Y2192028D2*
X661438D1*
X755898D2*
X1480244D1*
X1552205D2*
X1906656D1*
X3053958D2*
X3113155D1*
X3211453D2*
X3528298D1*
X408719Y2167159D2*
X678772D1*
X738566D2*
X1480244D1*
X1551235D2*
X1865676D1*
X1980087D2*
X2980526D1*
X3078861D2*
X3138022D1*
X3236320D2*
X3528298D1*
X408719Y2142290D2*
X589312D1*
X670530D2*
X1480244D1*
X1551235D2*
X1843715D1*
X1955219D2*
X2557811D1*
X2639064D2*
X3005394D1*
X3103728D2*
X3162890D1*
X3261189D2*
X3528298D1*
X408719Y2117421D2*
X546538D1*
X713303D2*
X1388417D1*
X1446239D2*
X1480244D1*
X1551235D2*
X1841562D1*
X1937959D2*
X1978963D1*
X2036785D2*
X2515037D1*
X2681803D2*
X3030261D1*
X3128597D2*
X3187757D1*
X3286056D2*
X3528298D1*
X408719Y2092552D2*
X525474D1*
X734367D2*
X1359315D1*
X1551235D2*
X1854948D1*
X1924575D2*
X1949861D1*
X2065886D2*
X2493972D1*
X2702866D2*
X3055130D1*
X3153465D2*
X3212625D1*
X3310924D2*
X3528298D1*
X408719Y2067684D2*
X513381D1*
X746461D2*
X1349806D1*
X1551235D2*
X1940387D1*
X2075395D2*
X2481879D1*
X2714959D2*
X3079997D1*
X3178332D2*
X3237493D1*
X3335791D2*
X3528298D1*
X408719Y2042815D2*
X507496D1*
X752345D2*
X1350524D1*
X1551235D2*
X1941070D1*
X2074678D2*
X2475995D1*
X2720845D2*
X3104900D1*
X3203199D2*
X3262361D1*
X3360660D2*
X3528298D1*
X408719Y2017946D2*
X506921D1*
X752920D2*
X1361862D1*
X1551235D2*
X1952408D1*
X2063339D2*
X2475420D1*
X2721454D2*
X3129769D1*
X3228067D2*
X3287228D1*
X3385528D2*
X3528298D1*
X408719Y1993077D2*
X511551D1*
X748291D2*
X1399325D1*
X1435329D2*
X1480244D1*
X2426092D2*
X2480050D1*
X2716790D2*
X2815495D1*
X2932525D2*
X3154636D1*
X3252936D2*
X3312096D1*
X3410395D2*
X3437189D1*
X3510871D2*
X3528298D1*
X408719Y1968209D2*
X522101D1*
X737741D2*
X1480244D1*
X2451031D2*
X2490600D1*
X2706240D2*
X2815495D1*
X2932525D2*
X3179504D1*
X3277803D2*
X3336963D1*
X408719Y1943340D2*
X540689D1*
X719152D2*
X1491764D1*
X2475899D2*
X2509188D1*
X2687652D2*
X2815495D1*
X2932525D2*
X3204371D1*
X3302671D2*
X3350349D1*
X408719Y1918471D2*
X575316D1*
X684525D2*
X1516631D1*
X2205476D2*
X2402469D1*
X2500766D2*
X2543816D1*
X2653059D2*
X2815495D1*
X408719Y1893602D2*
X1541499D1*
X2230344D2*
X2427336D1*
X2515587D2*
X2790915D1*
X3434652D2*
X3462056D1*
X3485967D2*
X3528298D1*
X408719Y1868734D2*
X733961D1*
X750301D2*
X1116773D1*
X1166701D2*
X1471094D1*
X1521021D2*
X1707319D1*
X1757247D2*
X2061640D1*
X2111567D2*
X2156912D1*
X2255211D2*
X2444811D1*
X2515802D2*
X2766046D1*
X3429808D2*
X3528298D1*
X408719Y1843865D2*
X691833D1*
X792428D2*
X1086739D1*
X1196735D2*
X1441059D1*
X1551056D2*
X1677285D1*
X1787282D2*
X2031605D1*
X2141602D2*
X2181780D1*
X2280079D2*
X2444811D1*
X2515802D2*
X2741178D1*
X2932310D2*
X3218438D1*
X3238259D2*
X3297168D1*
X3316988D2*
X3375934D1*
X3395718D2*
X3528298D1*
X408719Y1818996D2*
X682180D1*
X802081D2*
X1077839D1*
X1205635D2*
X1432160D1*
X1559955D2*
X1668385D1*
X1796181D2*
X2022706D1*
X2150537D2*
X2206648D1*
X2292280D2*
X2444811D1*
X2515802D2*
X2716311D1*
X2814610D2*
X2824108D1*
X2923949D2*
X3528298D1*
X408719Y1794127D2*
X684154D1*
X800108D2*
X1079669D1*
X1203804D2*
X1433990D1*
X1558125D2*
X1670215D1*
X1794350D2*
X2024535D1*
X2148707D2*
X2221289D1*
X2292280D2*
X2444811D1*
X2515802D2*
X2691444D1*
X2789743D2*
X2838568D1*
X2909451D2*
X3438588D1*
X3509471D2*
X3528298D1*
X408719Y1769259D2*
X699404D1*
X784857D2*
X1093521D1*
X1189953D2*
X1447841D1*
X1544274D2*
X1684067D1*
X1780500D2*
X2038387D1*
X2134820D2*
X2221289D1*
X2370723D2*
X2380184D1*
X2626613D2*
X2636073D1*
X2764874D2*
X2819370D1*
X408719Y1744390D2*
X474769D1*
X2202390D2*
X2221289D1*
X2740007D2*
X2815675D1*
X408719Y1719521D2*
X449902D1*
X2796524D2*
X2823785D1*
X408719Y1694652D2*
X425177D1*
X523333D2*
X973451D1*
X2804849D2*
X2857228D1*
X2890793D2*
X3439306D1*
X3508718D2*
X3528298D1*
X408719Y1669783D2*
X417234D1*
X498465D2*
X583211D1*
X704189D2*
X948584D1*
X2370723D2*
X2388545D1*
X2798749D2*
X3419570D1*
X408719Y1644915D2*
X417234D1*
X488238D2*
X583211D1*
X704189D2*
X923717D1*
X1022016D2*
X1566223D1*
X2757051D2*
X3415622D1*
X408719Y1620046D2*
X417234D1*
X488238D2*
X583211D1*
X704189D2*
X907173D1*
X997147D2*
X1378728D1*
X1455927D2*
X1541356D1*
X1639654D2*
X1969274D1*
X3051948D2*
X3423445D1*
X408719Y1595177D2*
X417234D1*
X488238D2*
X583211D1*
X704189D2*
X906635D1*
X977626D2*
X1356301D1*
X1478354D2*
X1516487D1*
X1614786D2*
X1946846D1*
X2559904D2*
X2592869D1*
X3076816D2*
X3440059D1*
X3507965D2*
X3528298D1*
X408719Y1570308D2*
X417234D1*
X488238D2*
X583211D1*
X704189D2*
X906635D1*
X977626D2*
X1349196D1*
X1589919D2*
X1939741D1*
X2200846D2*
X2219135D1*
X3101684D2*
X3419785D1*
X408719Y1545440D2*
X417234D1*
X488238D2*
X906635D1*
X977626D2*
X1351923D1*
X1565051D2*
X1939203D1*
X2200846D2*
X2244004D1*
X2932417D2*
X3028252D1*
X3126551D2*
X3415587D1*
X408719Y1520571D2*
X417234D1*
X488238D2*
X906635D1*
X977626D2*
X1366168D1*
X1540182D2*
X1914336D1*
X2059033D2*
X2070827D1*
X2200846D2*
X2248525D1*
X2924882D2*
X3053119D1*
X3151419D2*
X3423122D1*
X408719Y1495702D2*
X417234D1*
X488238D2*
X906635D1*
X977626D2*
X1370654D1*
X1515315D2*
X1889467D1*
X2054547D2*
X2070827D1*
X2341799D2*
X2371751D1*
X2785723D2*
X2840865D1*
X2907192D2*
X3077988D1*
X3176286D2*
X3440849D1*
X3507175D2*
X3528298D1*
X408719Y1470833D2*
X417234D1*
X488238D2*
X906635D1*
X977626D2*
X1353466D1*
X1490448D2*
X1864600D1*
X2810591D2*
X2820016D1*
X2928039D2*
X3102856D1*
X3201155D2*
X3420000D1*
X408719Y1445965D2*
X417234D1*
X488238D2*
X906635D1*
X977626D2*
X1348980D1*
X1485675D2*
X1840486D1*
X2076220D2*
X2087549D1*
X2932454D2*
X3127723D1*
X3226022D2*
X3415587D1*
X408719Y1421096D2*
X417234D1*
X488238D2*
X906635D1*
X977626D2*
X1354219D1*
X1480436D2*
X1834601D1*
X1913163D2*
X1944765D1*
X2082787D2*
X2112416D1*
X2395446D2*
X2470864D1*
X3078072D2*
X3152591D1*
X3250890D2*
X3422835D1*
X408719Y1396227D2*
X417234D1*
X488238D2*
X497772D1*
X586453D2*
X897772D1*
X986454D2*
X1372699D1*
X1461955D2*
X1834601D1*
X1905556D2*
X1963245D1*
X2107656D2*
X2137283D1*
X2370579D2*
X2475743D1*
X3102940D2*
X3177459D1*
X3275757D2*
X3441675D1*
X3506349D2*
X3528298D1*
X408719Y1371358D2*
X417234D1*
X599587D2*
X884675D1*
X999588D2*
X1834601D1*
X1905556D2*
X2034224D1*
X2132524D2*
X2228752D1*
X2343665D2*
X2510192D1*
X2529198D2*
X2628753D1*
X2743667D2*
X2752693D1*
X3127807D2*
X3202327D1*
X3300625D2*
X3420215D1*
X408719Y1346490D2*
X417234D1*
X599874D2*
X884387D1*
X999875D2*
X1834601D1*
X1905556D2*
X2059092D1*
X2157391D2*
X2228466D1*
X2343988D2*
X2625273D1*
X2743954D2*
X2777601D1*
X2932490D2*
X3054340D1*
X3152675D2*
X3227194D1*
X3325493D2*
X3415550D1*
X408719Y1321621D2*
X417234D1*
X488238D2*
X496623D1*
X587601D2*
X896623D1*
X987602D2*
X1834601D1*
X1905556D2*
X2083959D1*
X2731718D2*
X2803259D1*
X2956604D2*
X3079207D1*
X3177542D2*
X3252062D1*
X3350361D2*
X3422547D1*
X408719Y1296752D2*
X417234D1*
X488238D2*
X1834601D1*
X1905556D2*
X2108828D1*
X2673873D2*
X2842516D1*
X2965000D2*
X3104112D1*
X3202411D2*
X3276929D1*
X3375228D2*
X3442535D1*
X3505524D2*
X3528298D1*
X408719Y1271883D2*
X417234D1*
X591369D2*
X892892D1*
X991370D2*
X1834601D1*
X1905556D2*
X2134521D1*
X2648143D2*
X2797517D1*
X2989869D2*
X3128979D1*
X3227278D2*
X3301798D1*
X3400096D2*
X3420466D1*
X408719Y1247014D2*
X417234D1*
X600699D2*
X883562D1*
X1000701D2*
X1098042D1*
X1185432D2*
X1452362D1*
X1539752D2*
X1688588D1*
X1775978D2*
X1834601D1*
X1905556D2*
X2042908D1*
X2130335D2*
X2227640D1*
X2344778D2*
X2772650D1*
X3014736D2*
X3153846D1*
X3252146D2*
X3326665D1*
X408719Y1222146D2*
X417234D1*
X598188D2*
X874950D1*
X998152D2*
X1081105D1*
X1202369D2*
X1435425D1*
X1556690D2*
X1671651D1*
X1792915D2*
X1834601D1*
X1905556D2*
X2025971D1*
X2147236D2*
X2230188D1*
X2342266D2*
X2747781D1*
X2925780D2*
X2941304D1*
X3027583D2*
X3178715D1*
X3277013D2*
X3351533D1*
X408719Y1197277D2*
X417234D1*
X488238D2*
X502831D1*
X581394D2*
X850083D1*
X981395D2*
X1077408D1*
X1206066D2*
X1431728D1*
X1560386D2*
X1667954D1*
X1796612D2*
X1817412D1*
X1905377D2*
X2022276D1*
X2150932D2*
X2211097D1*
X2821248D2*
X2843413D1*
X2904608D2*
X2956627D1*
X3027618D2*
X3203583D1*
X3301882D2*
X3376400D1*
X3504627D2*
X3528298D1*
X408719Y1172408D2*
X417234D1*
X488238D2*
X514026D1*
X570234D2*
X831710D1*
X970235D2*
X1084190D1*
X1199283D2*
X1438510D1*
X1553604D2*
X1674736D1*
X1890844D2*
X2029056D1*
X2144150D2*
X2186230D1*
X2796381D2*
X2820698D1*
X2927322D2*
X2956627D1*
X3027618D2*
X3228450D1*
X3326749D2*
X3401268D1*
X408719Y1147539D2*
X417234D1*
X595029D2*
X830669D1*
X1865975D2*
X2052490D1*
X2120718D2*
X2161362D1*
X2339144D2*
X2815495D1*
X2932525D2*
X2956627D1*
X3027618D2*
X3253318D1*
X3351617D2*
X3415514D1*
X408719Y1122671D2*
X417234D1*
X601130D2*
X830669D1*
X1841108D2*
X2042298D1*
X2345209D2*
X2821990D1*
X2926066D2*
X2956627D1*
X3027618D2*
X3278185D1*
X3376484D2*
X3421974D1*
X408719Y1097802D2*
X417234D1*
X595639D2*
X830669D1*
X1816240D2*
X2037849D1*
X2209962D2*
X2232699D1*
X2339755D2*
X2844345D1*
X2903710D2*
X2956627D1*
X3027618D2*
X3303054D1*
X3401352D2*
X3444329D1*
X3503694D2*
X3528298D1*
X408719Y1072933D2*
X417234D1*
X488238D2*
X511730D1*
X572530D2*
X830669D1*
X901623D2*
X911696D1*
X972531D2*
X1693073D1*
X1791373D2*
X2048112D1*
X2182761D2*
X2255810D1*
X2316646D2*
X2460780D1*
X2794874D2*
X2820949D1*
X2927071D2*
X2956627D1*
X3027618D2*
X3327921D1*
X408719Y1048064D2*
X417234D1*
X488238D2*
X830669D1*
X901623D2*
X1668206D1*
X1766504D2*
X2435912D1*
X2932525D2*
X2950060D1*
X3034185D2*
X3352789D1*
X408719Y1023196D2*
X417234D1*
X488238D2*
X556621D1*
X703220D2*
X830669D1*
X901623D2*
X1657441D1*
X1741636D2*
X2411045D1*
X2509343D2*
X2525119D1*
X2671719D2*
X2746310D1*
X3041110D2*
X3377908D1*
X408719Y998327D2*
X417234D1*
X488238D2*
X531143D1*
X728698D2*
X830669D1*
X901623D2*
X1365451D1*
X1469168D2*
X1657441D1*
X1728395D2*
X1955997D1*
X2059751D2*
X2386176D1*
X2484475D2*
X2499642D1*
X2697197D2*
X2771178D1*
X3033647D2*
X3445298D1*
X3502724D2*
X3528298D1*
X408719Y973458D2*
X417234D1*
X488238D2*
X516575D1*
X743266D2*
X830669D1*
X901623D2*
X1351672D1*
X1482948D2*
X1657441D1*
X1728395D2*
X1942218D1*
X2073530D2*
X2361308D1*
X2459608D2*
X2485073D1*
X2711766D2*
X2796261D1*
X408719Y948589D2*
X417234D1*
X488238D2*
X508824D1*
X751018D2*
X830669D1*
X901623D2*
X1349231D1*
X1485388D2*
X1657441D1*
X1728395D2*
X1939814D1*
X2075934D2*
X2336441D1*
X2434740D2*
X2477323D1*
X2719552D2*
X2815495D1*
X408719Y923720D2*
X417234D1*
X488238D2*
X506528D1*
X753315D2*
X830669D1*
X901623D2*
X1356731D1*
X1477924D2*
X1657441D1*
X1728395D2*
X1947277D1*
X2068470D2*
X2311573D1*
X2409873D2*
X2475026D1*
X2721814D2*
X2784133D1*
X408719Y898852D2*
X417234D1*
X488238D2*
X509433D1*
X750408D2*
X830669D1*
X901623D2*
X1379948D1*
X1454707D2*
X1658122D1*
X1748741D2*
X1970493D1*
X2045253D2*
X2286706D1*
X2385004D2*
X2477932D1*
X2718907D2*
X2759156D1*
X3501828D2*
X3528298D1*
X408719Y873983D2*
X417234D1*
X488238D2*
X517902D1*
X741940D2*
X830669D1*
X901623D2*
X1675274D1*
X2360136D2*
X2486402D1*
X2710438D2*
X2734289D1*
X408719Y849114D2*
X417234D1*
X488238D2*
X533476D1*
X726366D2*
X830669D1*
X912640D2*
X1700143D1*
X2335269D2*
X2501975D1*
X2694900D2*
X2709421D1*
X2807720D2*
X2815496D1*
X2932525D2*
X3415514D1*
X408719Y824245D2*
X417234D1*
X488238D2*
X560891D1*
X698950D2*
X839245D1*
X937508D2*
X1725010D1*
X2310402D2*
X2529390D1*
X2667449D2*
X2684554D1*
X2782853D2*
X2791454D1*
X408719Y799377D2*
X417234D1*
X488238D2*
X864077D1*
X2757984D2*
X2766370D1*
X3502869D2*
X3528298D1*
X408719Y774508D2*
X417234D1*
X488238D2*
X888945D1*
X2733117D2*
X2741518D1*
X408719Y749639D2*
X417234D1*
X488238D2*
X1448522D1*
X2932525D2*
X3180795D1*
X408719Y724770D2*
X417234D1*
X488238D2*
X1423655D1*
X408719Y699902D2*
X417234D1*
X488238D2*
X1398787D1*
X3229360D2*
X3269609D1*
X3503802D2*
X3528298D1*
X408719Y675033D2*
X417234D1*
X488238D2*
X1373920D1*
X1472218D2*
X1570780D1*
X3204492D2*
X3258449D1*
X408719Y650164D2*
X417234D1*
X501336D2*
X1349051D1*
X1447350D2*
X1545877D1*
X2445936D2*
X2628575D1*
X2932525D2*
X3238820D1*
X408719Y625295D2*
X427904D1*
X609706D2*
X673245D1*
X783457D2*
X870070D1*
X980318D2*
X1066930D1*
X1177178D2*
X1263791D1*
X1422483D2*
X1460615D1*
X2450349D2*
X2603706D1*
X3324631D2*
X3368291D1*
X3403362D2*
X3420681D1*
X408719Y600427D2*
X452773D1*
X609706D2*
X656164D1*
X800538D2*
X852988D1*
X997399D2*
X1049849D1*
X1194260D2*
X1246710D1*
X1397615D2*
X1443571D1*
X1784806D2*
X1837256D1*
X1981630D2*
X2034117D1*
X2178491D2*
X2230941D1*
X2440014D2*
X2578839D1*
X3287385D2*
X3443289D1*
X3504735D2*
X3528298D1*
X408719Y575558D2*
X453274D1*
X609706D2*
X650280D1*
X806423D2*
X847139D1*
X1003248D2*
X1044000D1*
X1200109D2*
X1240825D1*
X1396970D2*
X1437685D1*
X1790655D2*
X1831407D1*
X1987516D2*
X2028232D1*
X2184375D2*
X2225092D1*
X2381201D2*
X2553971D1*
X2774923D2*
X2789084D1*
X3262516D2*
X3422297D1*
X408719Y550689D2*
X453274D1*
X609706D2*
X652862D1*
X803803D2*
X849723D1*
X1000664D2*
X1046584D1*
X1197525D2*
X1243445D1*
X1394349D2*
X1440269D1*
X1788071D2*
X1833991D1*
X1984932D2*
X2030815D1*
X2181756D2*
X2227676D1*
X2378617D2*
X2529104D1*
X2772302D2*
X2815530D1*
X2932490D2*
X3415514D1*
X408719Y525820D2*
X453274D1*
X609706D2*
X664992D1*
X791675D2*
X861852D1*
X988535D2*
X1058713D1*
X1185396D2*
X1255538D1*
X1382257D2*
X1452398D1*
X1579081D2*
X1610073D1*
X1806803D2*
X1846119D1*
X1972803D2*
X2042945D1*
X2169627D2*
X2239804D1*
X2366488D2*
X2504235D1*
X2602534D2*
X2633491D1*
X2760210D2*
X2801858D1*
X2927609D2*
X3420430D1*
X408719Y500951D2*
X453274D1*
X609706D2*
X696820D1*
X759882D2*
X893646D1*
X956741D2*
X1090507D1*
X1153567D2*
X1287367D1*
X1350428D2*
X1484227D1*
X1547289D2*
X1634941D1*
X2577667D2*
X2665320D1*
X2728381D2*
X2776991D1*
X2905612D2*
X3442428D1*
X3505631D2*
X3528298D1*
X408719Y476083D2*
X1659808D1*
X2850423D2*
X3528298D1*
X408719Y451214D2*
X1684677D1*
X2825555D2*
X3528298D1*
X408719Y426345D2*
X1710944D1*
X2799287D2*
X3528298D1*
X2438642Y1672302D2*
X2433643Y1669898D1*
X2425282Y1667181D1*
X2416600Y1665807D1*
X2407810D1*
X2399127Y1667181D1*
X2390766Y1669898D1*
X2382934Y1673888D1*
X2375823Y1679056D1*
X2369608Y1685272D1*
X2368235Y1687012D1*
X2368224Y1665634D1*
X2289745D1*
X2289780Y1660230D1*
X2297832Y1658390D1*
X2304572Y1655598D1*
X2310791Y1651786D1*
X2316340Y1647049D1*
X2321077Y1641500D1*
X2322828Y1638881D1*
X2326852Y1644367D1*
X2332010Y1649526D1*
X2337912Y1653814D1*
X2344413Y1657126D1*
X2351352Y1659381D1*
X2358556Y1660522D1*
X2365853D1*
X2373058Y1659381D1*
X2379996Y1657126D1*
X2386497Y1653814D1*
X2392399Y1649526D1*
X2394965Y1647155D1*
X2472046Y1647161D1*
X2465948Y1648697D1*
X2459207Y1651488D1*
X2452988Y1655301D1*
X2447440Y1660038D1*
X2442702Y1665587D1*
X2438669Y1672286D1*
X2368235Y1756295D2*
X2372593Y1761265D1*
X2379277Y1766975D1*
X2386773Y1771567D1*
X2394894Y1774932D1*
X2403441Y1776983D1*
X2412205Y1777673D1*
X2420969Y1776983D1*
X2429516Y1774932D1*
X2437636Y1771567D1*
X2445133Y1766975D1*
X2447332Y1765240D1*
X2447327Y1876102D1*
X2387895Y1935530D1*
X2185588Y1935516D1*
X2195176Y1926280D1*
X2281875Y1839436D1*
X2284919Y1835248D1*
X2287269Y1830636D1*
X2288867Y1825713D1*
X2289678Y1820600D1*
X2289780Y1777642D1*
X2368224Y1777673D1*
Y1756322D1*
X2624140Y1756295D2*
X2628499Y1761265D1*
X2635182Y1766975D1*
X2642678Y1771567D1*
X2650799Y1774932D1*
X2659346Y1776983D1*
X2668110Y1777673D1*
X2676789Y1776993D1*
X2818012Y1918207D1*
X2817996Y2004839D1*
X2930035D1*
Y1931814D1*
X3208530Y1931806D1*
X3213979Y1933980D1*
X3215723Y1934472D1*
X2978487Y2171711D1*
X1982165Y2171736D1*
X1936236Y2125804D1*
X1935684Y2118711D1*
X1933980Y2111617D1*
X1931189Y2104877D1*
X1927377Y2098657D1*
X1922639Y2093109D1*
X1917091Y2088371D1*
X1910871Y2084559D1*
X1904131Y2081768D1*
X1897037Y2080064D1*
X1889764Y2079492D1*
X1882491Y2080064D1*
X1875396Y2081768D1*
X1868656Y2084559D1*
X1862437Y2088371D1*
X1856888Y2093109D1*
X1852151Y2098657D1*
X1848339Y2104877D1*
X1845547Y2111617D1*
X1843844Y2118711D1*
X1843272Y2125984D1*
X1843844Y2133257D1*
X1845547Y2140352D1*
X1848339Y2147092D1*
X1852151Y2153311D1*
X1856888Y2158860D1*
X1862437Y2163597D1*
X1868656Y2167409D1*
X1875396Y2170201D1*
X1882491Y2171904D1*
X1889608Y2172470D1*
X1947088Y2229815D1*
X1942257Y2230791D1*
X1588475D1*
X1548726Y2191050D1*
X1548736Y2006967D1*
X1553696Y2009929D1*
X1560436Y2012720D1*
X1567530Y2014424D1*
X1574803Y2014996D1*
X1582076Y2014424D1*
X1589171Y2012720D1*
X1595911Y2009929D1*
X1602130Y2006117D1*
X1607563Y2001486D1*
X1972579Y2001492D1*
X1965100Y2007005D1*
X1957793Y2014312D1*
X1951718Y2022673D1*
X1947025Y2031882D1*
X1943832Y2041711D1*
X1942215Y2051919D1*
Y2062255D1*
X1943832Y2072462D1*
X1947025Y2082291D1*
X1951718Y2091500D1*
X1957793Y2099861D1*
X1965100Y2107168D1*
X1973461Y2113243D1*
X1982669Y2117936D1*
X1992499Y2121129D1*
X2002706Y2122745D1*
X2013042D1*
X2023249Y2121129D1*
X2033079Y2117936D1*
X2042287Y2113243D1*
X2050648Y2107168D1*
X2057955Y2099861D1*
X2064030Y2091500D1*
X2068723Y2082291D1*
X2071916Y2072462D1*
X2073533Y2062255D1*
Y2051919D1*
X2071916Y2041711D1*
X2068723Y2031882D1*
X2064030Y2022673D1*
X2057955Y2014312D1*
X2050648Y2007005D1*
X2043143Y2001503D1*
X2404163Y2001391D1*
X2409276Y2000581D1*
X2414199Y1998982D1*
X2418811Y1996631D1*
X2422999Y1993588D1*
X2470371Y1946360D1*
X2505399Y1911188D1*
X2508442Y1907000D1*
X2510793Y1902388D1*
X2512392Y1897465D1*
X2513202Y1892352D1*
X2513303Y1825459D1*
Y1777697D1*
X2624130Y1777673D1*
Y1756322D1*
X2534598Y1665634D2*
X2517928Y1665587D1*
X2513190Y1660038D1*
X2507642Y1655301D1*
X2501423Y1651488D1*
X2494682Y1648697D1*
X2488441Y1647163D1*
X2516112Y1647161D1*
X2534577Y1665639D1*
X858647Y3471745D2*
X853899Y3465301D1*
X847298Y3458699D1*
X839745Y3453211D1*
X831428Y3448974D1*
X822550Y3446089D1*
X813329Y3444629D1*
X803993D1*
X794773Y3446089D1*
X785895Y3448974D1*
X777577Y3453211D1*
X770025Y3458699D1*
X763424Y3465301D1*
X757936Y3472853D1*
X753698Y3481171D1*
X750814Y3490049D1*
X749353Y3499269D1*
Y3508605D1*
X750814Y3517825D1*
X753698Y3526703D1*
X757936Y3535021D1*
X763424Y3542573D1*
X770025Y3549175D1*
X777577Y3554663D1*
X785895Y3558900D1*
X794773Y3561785D1*
X803993Y3563245D1*
X813329D1*
X822550Y3561785D1*
X831428Y3558900D1*
X839745Y3554663D1*
X847298Y3549175D1*
X853899Y3542573D1*
X858647Y3536129D1*
X863424Y3542573D1*
X870025Y3549175D1*
X877577Y3554663D1*
X885895Y3558900D1*
X894773Y3561785D1*
X903993Y3563245D1*
X913329D1*
X922550Y3561785D1*
X931428Y3558900D1*
X939745Y3554663D1*
X947298Y3549175D1*
X953899Y3542573D1*
X958647Y3536129D1*
X963424Y3542573D1*
X970025Y3549175D1*
X977577Y3554663D1*
X985895Y3558900D1*
X994773Y3561785D1*
X1003993Y3563245D1*
X1013329D1*
X1022550Y3561785D1*
X1031428Y3558900D1*
X1039745Y3554663D1*
X1047298Y3549175D1*
X1053899Y3542573D1*
X1059387Y3535021D1*
X1063625Y3526703D1*
X1066509Y3517825D1*
X1067970Y3508605D1*
Y3499269D1*
X1066509Y3490049D1*
X1063625Y3481171D1*
X1059387Y3472853D1*
X1053899Y3465301D1*
X1047298Y3458699D1*
X1039745Y3453211D1*
X1031428Y3448974D1*
X1022550Y3446089D1*
X1013329Y3444629D1*
X1003993D1*
X994773Y3446089D1*
X985895Y3448974D1*
X977577Y3453211D1*
X970025Y3458699D1*
X963424Y3465301D1*
X958676Y3471745D1*
X953899Y3465301D1*
X947298Y3458699D1*
X939745Y3453211D1*
X931428Y3448974D1*
X922550Y3446089D1*
X913329Y3444629D1*
X903993D1*
X894773Y3446089D1*
X885895Y3448974D1*
X877577Y3453211D1*
X870025Y3458699D1*
X863424Y3465301D1*
X858676Y3471745D1*
X1258647D2*
X1253899Y3465301D1*
X1247298Y3458699D1*
X1239745Y3453211D1*
X1231428Y3448974D1*
X1222550Y3446089D1*
X1213329Y3444629D1*
X1203993D1*
X1194773Y3446089D1*
X1185895Y3448974D1*
X1177577Y3453211D1*
X1170025Y3458699D1*
X1163424Y3465301D1*
X1157936Y3472853D1*
X1153698Y3481171D1*
X1150814Y3490049D1*
X1149353Y3499269D1*
Y3508605D1*
X1150814Y3517825D1*
X1153698Y3526703D1*
X1157936Y3535021D1*
X1163424Y3542573D1*
X1170025Y3549175D1*
X1177577Y3554663D1*
X1185895Y3558900D1*
X1194773Y3561785D1*
X1203993Y3563245D1*
X1213329D1*
X1222550Y3561785D1*
X1231428Y3558900D1*
X1239745Y3554663D1*
X1247298Y3549175D1*
X1253899Y3542573D1*
X1258647Y3536129D1*
X1263424Y3542573D1*
X1270025Y3549175D1*
X1277577Y3554663D1*
X1285895Y3558900D1*
X1294773Y3561785D1*
X1303993Y3563245D1*
X1313329D1*
X1322550Y3561785D1*
X1331428Y3558900D1*
X1339745Y3554663D1*
X1347298Y3549175D1*
X1353899Y3542573D1*
X1358647Y3536129D1*
X1363424Y3542573D1*
X1370025Y3549175D1*
X1377577Y3554663D1*
X1385895Y3558900D1*
X1394773Y3561785D1*
X1403993Y3563245D1*
X1413329D1*
X1422550Y3561785D1*
X1431428Y3558900D1*
X1439745Y3554663D1*
X1447298Y3549175D1*
X1453899Y3542573D1*
X1458647Y3536129D1*
X1463424Y3542573D1*
X1470025Y3549175D1*
X1477577Y3554663D1*
X1485895Y3558900D1*
X1494773Y3561785D1*
X1503993Y3563245D1*
X1513329D1*
X1522550Y3561785D1*
X1531428Y3558900D1*
X1539745Y3554663D1*
X1547298Y3549175D1*
X1553899Y3542573D1*
X1558647Y3536129D1*
X1563424Y3542573D1*
X1570025Y3549175D1*
X1577577Y3554663D1*
X1585895Y3558900D1*
X1594773Y3561785D1*
X1603993Y3563245D1*
X1613329D1*
X1622550Y3561785D1*
X1631428Y3558900D1*
X1639745Y3554663D1*
X1647298Y3549175D1*
X1653899Y3542573D1*
X1658647Y3536129D1*
X1663424Y3542573D1*
X1670025Y3549175D1*
X1677577Y3554663D1*
X1685895Y3558900D1*
X1694773Y3561785D1*
X1703993Y3563245D1*
X1713329D1*
X1722550Y3561785D1*
X1731428Y3558900D1*
X1739745Y3554663D1*
X1747298Y3549175D1*
X1753899Y3542573D1*
X1758647Y3536129D1*
X1763424Y3542573D1*
X1770025Y3549175D1*
X1777577Y3554663D1*
X1785895Y3558900D1*
X1794773Y3561785D1*
X1803993Y3563245D1*
X1813329D1*
X1822550Y3561785D1*
X1831428Y3558900D1*
X1839745Y3554663D1*
X1847298Y3549175D1*
X1853899Y3542573D1*
X1858647Y3536129D1*
X1863424Y3542573D1*
X1870025Y3549175D1*
X1877577Y3554663D1*
X1885895Y3558900D1*
X1894773Y3561785D1*
X1903993Y3563245D1*
X1913329D1*
X1920312Y3562231D1*
X1946293Y3588076D1*
X1950480Y3591119D1*
X1955092Y3593470D1*
X1960016Y3595070D1*
X1965129Y3595879D1*
X2032021Y3595980D1*
X2896289Y3595879D1*
X2901402Y3595070D1*
X2906325Y3593470D1*
X2910937Y3591119D1*
X2915125Y3588076D1*
X2952932Y3550415D1*
X2960029Y3549857D1*
X2967123Y3548154D1*
X2973864Y3545362D1*
X2980083Y3541550D1*
X2985631Y3536812D1*
X2990369Y3531264D1*
X2994181Y3525045D1*
X2996972Y3518304D1*
X2998676Y3511210D1*
X2999248Y3503937D1*
X2998676Y3496664D1*
X2996972Y3489570D1*
X2994181Y3482829D1*
X2990369Y3476610D1*
X2985631Y3471062D1*
X2980083Y3466324D1*
X2973864Y3462512D1*
X2967123Y3459720D1*
X2960029Y3458017D1*
X2952756Y3457445D1*
X2945483Y3458017D1*
X2938388Y3459720D1*
X2931648Y3462512D1*
X2925429Y3466324D1*
X2919881Y3471062D1*
X2915143Y3476610D1*
X2911331Y3482829D1*
X2908539Y3489570D1*
X2906836Y3496664D1*
X2906270Y3503781D1*
X2880026Y3530014D1*
X2162130Y3530004D1*
X2165241Y3522322D1*
X2167421Y3513244D1*
X2168154Y3503937D1*
X2167421Y3494630D1*
X2165241Y3485552D1*
X2161669Y3476928D1*
X2156791Y3468969D1*
X2150728Y3461870D1*
X2143630Y3455807D1*
X2135671Y3450929D1*
X2127046Y3447357D1*
X2117969Y3445177D1*
X2108661Y3444445D1*
X2099354Y3445177D1*
X2090277Y3447357D1*
X2081652Y3450929D1*
X2073693Y3455807D1*
X2066594Y3461870D1*
X2060531Y3468969D1*
X2058676Y3471745D1*
X2053899Y3465301D1*
X2047298Y3458699D1*
X2039745Y3453211D1*
X2031428Y3448974D1*
X2022550Y3446089D1*
X2013329Y3444629D1*
X2003993D1*
X1994773Y3446089D1*
X1985895Y3448974D1*
X1977577Y3453211D1*
X1970025Y3458699D1*
X1963424Y3465301D1*
X1958676Y3471745D1*
X1953899Y3465301D1*
X1947298Y3458699D1*
X1939745Y3453211D1*
X1931428Y3448974D1*
X1922550Y3446089D1*
X1913329Y3444629D1*
X1903993D1*
X1894773Y3446089D1*
X1885895Y3448974D1*
X1877577Y3453211D1*
X1870025Y3458699D1*
X1863424Y3465301D1*
X1858676Y3471745D1*
X1853899Y3465301D1*
X1847298Y3458699D1*
X1839745Y3453211D1*
X1831428Y3448974D1*
X1822550Y3446089D1*
X1813329Y3444629D1*
X1803993D1*
X1794773Y3446089D1*
X1785895Y3448974D1*
X1777577Y3453211D1*
X1770025Y3458699D1*
X1763424Y3465301D1*
X1758676Y3471745D1*
X1753899Y3465301D1*
X1747298Y3458699D1*
X1739745Y3453211D1*
X1731428Y3448974D1*
X1722550Y3446089D1*
X1713329Y3444629D1*
X1703993D1*
X1694773Y3446089D1*
X1685895Y3448974D1*
X1677577Y3453211D1*
X1670025Y3458699D1*
X1663424Y3465301D1*
X1658676Y3471745D1*
X1653899Y3465301D1*
X1647298Y3458699D1*
X1639745Y3453211D1*
X1631428Y3448974D1*
X1622550Y3446089D1*
X1613329Y3444629D1*
X1603993D1*
X1594773Y3446089D1*
X1585895Y3448974D1*
X1577577Y3453211D1*
X1570025Y3458699D1*
X1563424Y3465301D1*
X1558676Y3471745D1*
X1553899Y3465301D1*
X1547298Y3458699D1*
X1539745Y3453211D1*
X1531428Y3448974D1*
X1522550Y3446089D1*
X1513329Y3444629D1*
X1503993D1*
X1494773Y3446089D1*
X1485895Y3448974D1*
X1477577Y3453211D1*
X1470025Y3458699D1*
X1463424Y3465301D1*
X1458676Y3471745D1*
X1453899Y3465301D1*
X1447298Y3458699D1*
X1439745Y3453211D1*
X1431428Y3448974D1*
X1422550Y3446089D1*
X1413329Y3444629D1*
X1403993D1*
X1394773Y3446089D1*
X1385895Y3448974D1*
X1377577Y3453211D1*
X1370025Y3458699D1*
X1363424Y3465301D1*
X1358676Y3471745D1*
X1353899Y3465301D1*
X1347298Y3458699D1*
X1339745Y3453211D1*
X1331428Y3448974D1*
X1322550Y3446089D1*
X1313329Y3444629D1*
X1303993D1*
X1294773Y3446089D1*
X1285895Y3448974D1*
X1277577Y3453211D1*
X1270025Y3458699D1*
X1263424Y3465301D1*
X1258676Y3471745D1*
X557785Y2278297D2*
X556168Y2268089D1*
X552975Y2258260D1*
X548282Y2249051D1*
X542207Y2240690D1*
X534900Y2233383D1*
X526539Y2227308D1*
X517331Y2222615D1*
X507501Y2219423D1*
X497294Y2217806D1*
X486958D1*
X476751Y2219423D1*
X466921Y2222615D1*
X457713Y2227308D1*
X449352Y2233383D1*
X442045Y2240690D1*
X435970Y2249051D1*
X431277Y2258260D1*
X428084Y2268089D1*
X426467Y2278297D1*
Y2288633D1*
X428084Y2298840D1*
X431277Y2308669D1*
X435970Y2317878D1*
X442045Y2326239D1*
X449352Y2333546D1*
X457713Y2339621D1*
X466921Y2344314D1*
X476751Y2347507D1*
X486958Y2349123D1*
X497294D1*
X507501Y2347507D1*
X517331Y2344314D1*
X526539Y2339621D1*
X534900Y2333546D1*
X542207Y2326239D1*
X548282Y2317878D1*
X552975Y2308669D1*
X556168Y2298840D1*
X557785Y2288633D1*
Y2278297D1*
X3510541D2*
X3508924Y2268089D1*
X3505731Y2258260D1*
X3501038Y2249051D1*
X3494963Y2240690D1*
X3487656Y2233383D1*
X3479295Y2227308D1*
X3470087Y2222615D1*
X3460257Y2219423D1*
X3450050Y2217806D1*
X3439714D1*
X3429507Y2219423D1*
X3419677Y2222615D1*
X3410469Y2227308D1*
X3402108Y2233383D1*
X3394801Y2240690D1*
X3388726Y2249051D1*
X3384033Y2258260D1*
X3380840Y2268089D1*
X3379223Y2278297D1*
Y2288633D1*
X3380840Y2298840D1*
X3384033Y2308669D1*
X3388726Y2317878D1*
X3394801Y2326239D1*
X3402108Y2333546D1*
X3410469Y2339621D1*
X3419677Y2344314D1*
X3429507Y2347507D1*
X3439714Y2349123D1*
X3450050D1*
X3460257Y2347507D1*
X3470087Y2344314D1*
X3479295Y2339621D1*
X3487656Y2333546D1*
X3494963Y2326239D1*
X3501038Y2317878D1*
X3505731Y2308669D1*
X3508924Y2298840D1*
X3510541Y2288633D1*
Y2278297D1*
X557785Y3498769D2*
X556168Y3488562D1*
X552975Y3478732D1*
X548282Y3469524D1*
X542207Y3461163D1*
X534900Y3453856D1*
X526539Y3447781D1*
X517331Y3443088D1*
X507501Y3439895D1*
X497294Y3438278D1*
X486958D1*
X476751Y3439895D1*
X466921Y3443088D1*
X457713Y3447781D1*
X449352Y3453856D1*
X442045Y3461163D1*
X435970Y3469524D1*
X431277Y3478732D1*
X428084Y3488562D1*
X426467Y3498769D1*
Y3509105D1*
X428084Y3519312D1*
X431277Y3529142D1*
X435970Y3538350D1*
X442045Y3546711D1*
X449352Y3554018D1*
X457713Y3560093D1*
X466921Y3564786D1*
X476751Y3567979D1*
X486958Y3569596D1*
X497294D1*
X507501Y3567979D1*
X517331Y3564786D1*
X526539Y3560093D1*
X534900Y3554018D1*
X542207Y3546711D1*
X548282Y3538350D1*
X552975Y3529142D1*
X556168Y3519312D1*
X557785Y3509105D1*
Y3498769D1*
X3510541D2*
X3508924Y3488562D1*
X3505731Y3478732D1*
X3501038Y3469524D1*
X3494963Y3461163D1*
X3487656Y3453856D1*
X3479295Y3447781D1*
X3470087Y3443088D1*
X3460257Y3439895D1*
X3450050Y3438278D1*
X3439714D1*
X3429507Y3439895D1*
X3419677Y3443088D1*
X3410469Y3447781D1*
X3402108Y3453856D1*
X3394801Y3461163D1*
X3388726Y3469524D1*
X3384033Y3478732D1*
X3380840Y3488562D1*
X3379223Y3498769D1*
Y3509105D1*
X3380840Y3519312D1*
X3384033Y3529142D1*
X3388726Y3538350D1*
X3394801Y3546711D1*
X3402108Y3554018D1*
X3410469Y3560093D1*
X3419677Y3564786D1*
X3429507Y3567979D1*
X3439714Y3569596D1*
X3450050D1*
X3460257Y3567979D1*
X3470087Y3564786D1*
X3479295Y3560093D1*
X3487656Y3554018D1*
X3494963Y3546711D1*
X3501038Y3538350D1*
X3505731Y3529142D1*
X3508924Y3519312D1*
X3510541Y3509105D1*
Y3498769D1*
X750471Y2018382D2*
X749427Y2009257D1*
X747693Y2000238D1*
X745280Y1991377D1*
X742199Y1982724D1*
X738472Y1974331D1*
X734118Y1966244D1*
X729163Y1958512D1*
X723635Y1951177D1*
X717567Y1944283D1*
X710992Y1937870D1*
X703950Y1931975D1*
X696480Y1926631D1*
X688627Y1921870D1*
X680434Y1917719D1*
X671951Y1914201D1*
X663224Y1911337D1*
X654306Y1909144D1*
X645247Y1907635D1*
X636100Y1906818D1*
X626916Y1906697D1*
X617749Y1907274D1*
X608654Y1908546D1*
X599681Y1910503D1*
X590882Y1913136D1*
X582310Y1916430D1*
X574010Y1920365D1*
X566035Y1924919D1*
X558428Y1930064D1*
X551234Y1935773D1*
X544492Y1942010D1*
X538245Y1948743D1*
X532526Y1955929D1*
X527370Y1963529D1*
X522806Y1971499D1*
X518860Y1979791D1*
X515554Y1988361D1*
X512908Y1997155D1*
X510937Y2006126D1*
X509654Y2015219D1*
X509064Y2024385D1*
X509172Y2033568D1*
X509976Y2042717D1*
X511472Y2051778D1*
X513654Y2060699D1*
X516504Y2069430D1*
X520010Y2077919D1*
X524150Y2086117D1*
X528900Y2093978D1*
X534234Y2101454D1*
X540119Y2108505D1*
X546524Y2115088D1*
X553408Y2121167D1*
X560735Y2126705D1*
X568461Y2131671D1*
X576541Y2136035D1*
X584929Y2139774D1*
X593577Y2142866D1*
X602436Y2145293D1*
X611451Y2147039D1*
X620575Y2148096D1*
X629752Y2148458D1*
X638930Y2148122D1*
X648056Y2147091D1*
X657077Y2145369D1*
X665942Y2142967D1*
X674598Y2139900D1*
X682997Y2136184D1*
X691091Y2131841D1*
X698831Y2126898D1*
X706172Y2121379D1*
X713075Y2115322D1*
X719496Y2108756D1*
X725402Y2101722D1*
X730756Y2094260D1*
X735528Y2086412D1*
X739692Y2078226D1*
X743220Y2069747D1*
X746096Y2061025D1*
X748302Y2052109D1*
X749823Y2043052D1*
X750654Y2033906D1*
X750820Y2027559D1*
X750471Y2018382D1*
X2718975D2*
X2717930Y2009257D1*
X2716197Y2000238D1*
X2713783Y1991377D1*
X2710703Y1982724D1*
X2706976Y1974331D1*
X2702622Y1966244D1*
X2697667Y1958512D1*
X2692139Y1951177D1*
X2686071Y1944283D1*
X2679496Y1937870D1*
X2672454Y1931975D1*
X2664984Y1926631D1*
X2657131Y1921870D1*
X2648938Y1917719D1*
X2640455Y1914201D1*
X2631728Y1911337D1*
X2622810Y1909144D1*
X2613751Y1907635D1*
X2604604Y1906818D1*
X2595420Y1906697D1*
X2586253Y1907274D1*
X2577157Y1908546D1*
X2568185Y1910503D1*
X2559386Y1913136D1*
X2550814Y1916430D1*
X2542514Y1920365D1*
X2534539Y1924919D1*
X2526932Y1930064D1*
X2519738Y1935773D1*
X2512996Y1942010D1*
X2506749Y1948743D1*
X2501030Y1955929D1*
X2495874Y1963529D1*
X2491310Y1971499D1*
X2487364Y1979791D1*
X2484058Y1988361D1*
X2481412Y1997155D1*
X2479441Y2006126D1*
X2478157Y2015219D1*
X2477568Y2024385D1*
X2477676Y2033568D1*
X2478480Y2042717D1*
X2479976Y2051778D1*
X2482157Y2060699D1*
X2485008Y2069430D1*
X2488514Y2077919D1*
X2492654Y2086117D1*
X2497404Y2093978D1*
X2502738Y2101454D1*
X2508623Y2108505D1*
X2515028Y2115088D1*
X2521912Y2121167D1*
X2529239Y2126705D1*
X2536965Y2131671D1*
X2545045Y2136035D1*
X2553433Y2139774D1*
X2562081Y2142866D1*
X2570940Y2145293D1*
X2579955Y2147039D1*
X2589079Y2148096D1*
X2598256Y2148458D1*
X2607434Y2148122D1*
X2616560Y2147091D1*
X2625581Y2145369D1*
X2634446Y2142967D1*
X2643102Y2139900D1*
X2651501Y2136184D1*
X2659594Y2131841D1*
X2667335Y2126898D1*
X2674676Y2121379D1*
X2681579Y2115322D1*
X2688000Y2108756D1*
X2693906Y2101722D1*
X2699260Y2094260D1*
X2704031Y2086412D1*
X2708196Y2078226D1*
X2711724Y2069747D1*
X2714600Y2061025D1*
X2716806Y2052109D1*
X2718327Y2043052D1*
X2719157Y2033906D1*
X2719324Y2027559D1*
X2718975Y2018382D1*
X750471Y916020D2*
X749427Y906895D1*
X747693Y897875D1*
X745280Y889014D1*
X742199Y880362D1*
X738472Y871969D1*
X734118Y863882D1*
X729163Y856150D1*
X723635Y848815D1*
X717567Y841921D1*
X710992Y835508D1*
X703950Y829613D1*
X696480Y824269D1*
X688627Y819508D1*
X680434Y815357D1*
X671951Y811839D1*
X663224Y808975D1*
X654306Y806782D1*
X645247Y805273D1*
X636100Y804455D1*
X626916Y804335D1*
X617749Y804912D1*
X608654Y806184D1*
X599681Y808140D1*
X590882Y810774D1*
X582310Y814068D1*
X574010Y818003D1*
X566035Y822556D1*
X558428Y827702D1*
X551234Y833411D1*
X544492Y839648D1*
X538245Y846381D1*
X532526Y853567D1*
X527370Y861167D1*
X522806Y869136D1*
X518860Y877429D1*
X515554Y885999D1*
X512908Y894793D1*
X510937Y903764D1*
X509654Y912857D1*
X509064Y922022D1*
X509172Y931206D1*
X509976Y940354D1*
X511472Y949416D1*
X513654Y958337D1*
X516504Y967068D1*
X520010Y975556D1*
X524150Y983755D1*
X528900Y991615D1*
X534234Y999092D1*
X540119Y1006143D1*
X546524Y1012726D1*
X553408Y1018804D1*
X560735Y1024343D1*
X568461Y1029308D1*
X576541Y1033673D1*
X584929Y1037412D1*
X593577Y1040504D1*
X602436Y1042930D1*
X611451Y1044677D1*
X620575Y1045734D1*
X629752Y1046096D1*
X638930Y1045760D1*
X648056Y1044728D1*
X657077Y1043007D1*
X665942Y1040605D1*
X674598Y1037538D1*
X682997Y1033822D1*
X691091Y1029479D1*
X698831Y1024535D1*
X706172Y1019017D1*
X713075Y1012959D1*
X719496Y1006394D1*
X725402Y999360D1*
X730756Y991898D1*
X735528Y984050D1*
X739692Y975864D1*
X743220Y967385D1*
X746096Y958663D1*
X748302Y949747D1*
X749823Y940690D1*
X750654Y931543D1*
X750820Y925197D1*
X750471Y916020D1*
X2718975D2*
X2717930Y906895D1*
X2716197Y897875D1*
X2713783Y889014D1*
X2710703Y880362D1*
X2706976Y871969D1*
X2702622Y863882D1*
X2697667Y856150D1*
X2692139Y848815D1*
X2686071Y841921D1*
X2679496Y835508D1*
X2672454Y829613D1*
X2664984Y824269D1*
X2658573Y820382D1*
X2683199Y820390D1*
X2786844Y923902D1*
X2791031Y926945D1*
X2795643Y929295D1*
X2800567Y930895D1*
X2805680Y931705D1*
X2820648Y931806D1*
X2818686Y940055D1*
X2817996Y948819D1*
X2818686Y957583D1*
X2820650Y965816D1*
X2814682Y966235D1*
X2809648Y967444D1*
X2804866Y969425D1*
X2800453Y972130D1*
X2796509Y975499D1*
X2742241Y1029766D1*
X2659125Y1029768D1*
X2667335Y1024535D1*
X2674676Y1019017D1*
X2681579Y1012959D1*
X2688000Y1006394D1*
X2693906Y999360D1*
X2699260Y991898D1*
X2704031Y984050D1*
X2708196Y975864D1*
X2711724Y967385D1*
X2714600Y958663D1*
X2716806Y949747D1*
X2718327Y940690D1*
X2719157Y931543D1*
X2719324Y925197D1*
X2718975Y916020D1*
X2538308Y820404D2*
X2526932Y827702D1*
X2519738Y833411D1*
X2512996Y839648D1*
X2506749Y846381D1*
X2501030Y853567D1*
X2495874Y861167D1*
X2491310Y869136D1*
X2487364Y877429D1*
X2484058Y885999D1*
X2481412Y894793D1*
X2479441Y903764D1*
X2478157Y912857D1*
X2477568Y922022D1*
X2477676Y931206D1*
X2478480Y940354D1*
X2479976Y949416D1*
X2482157Y958337D1*
X2485008Y967068D1*
X2488514Y975556D1*
X2492654Y983755D1*
X2497404Y991615D1*
X2502738Y999092D1*
X2508623Y1006143D1*
X2515028Y1012726D1*
X2521912Y1018804D1*
X2529239Y1024343D1*
X2537816Y1029769D1*
X2513434Y1029768D1*
X2304881Y821366D1*
X2312336Y820390D1*
X2538155D1*
X502476Y646571D2*
X607201D1*
Y495161D1*
X455791D1*
Y599907D1*
X427672Y628182D1*
X424629Y632370D1*
X422278Y636982D1*
X420680Y641906D1*
X419869Y647018D1*
X419768Y713911D1*
X419869Y1675816D1*
X420678Y1680929D1*
X422278Y1685853D1*
X424629Y1690465D1*
X427672Y1694652D1*
X474900Y1742025D1*
X490387Y1757367D1*
X494575Y1760411D1*
X499186Y1762761D1*
X504110Y1764361D1*
X509223Y1765171D1*
X576115Y1765272D1*
X706483D1*
X701122Y1770020D1*
X695213Y1776940D1*
X690458Y1784698D1*
X686976Y1793104D1*
X684852Y1801953D1*
X684138Y1811024D1*
X684852Y1820094D1*
X686976Y1828944D1*
X690458Y1837349D1*
X695213Y1845108D1*
X701122Y1852028D1*
X708042Y1857937D1*
X715801Y1862692D1*
X724206Y1866173D1*
X733055Y1868298D1*
X742126Y1869012D1*
X751197Y1868298D1*
X760046Y1866173D1*
X768451Y1862692D1*
X776210Y1857937D1*
X783130Y1852028D1*
X789039Y1845108D1*
X793794Y1837349D1*
X797276Y1828944D1*
X799400Y1820094D1*
X800114Y1811024D1*
X799400Y1801953D1*
X797276Y1793104D1*
X793794Y1784698D1*
X789039Y1776940D1*
X783130Y1770020D1*
X777677Y1765266D1*
X1099988Y1765272D1*
X1094644Y1770806D1*
X1088932Y1778668D1*
X1084521Y1787325D1*
X1081518Y1796567D1*
X1079997Y1806165D1*
Y1815882D1*
X1081518Y1825480D1*
X1084521Y1834722D1*
X1088932Y1843379D1*
X1094644Y1851241D1*
X1101514Y1858112D1*
X1109377Y1863824D1*
X1118034Y1868235D1*
X1127276Y1871238D1*
X1136874Y1872759D1*
X1146591D1*
X1156189Y1871238D1*
X1165430Y1868235D1*
X1174088Y1863824D1*
X1181950Y1858112D1*
X1188820Y1851241D1*
X1194533Y1843379D1*
X1198944Y1834722D1*
X1201946Y1825480D1*
X1203467Y1815882D1*
Y1806165D1*
X1201946Y1796567D1*
X1198944Y1787325D1*
X1194533Y1778668D1*
X1188820Y1770806D1*
X1183386Y1765264D1*
X1454310Y1765272D1*
X1448975Y1770806D1*
X1443262Y1778668D1*
X1438852Y1787325D1*
X1435849Y1796567D1*
X1434328Y1806165D1*
Y1815882D1*
X1435849Y1825480D1*
X1438852Y1834722D1*
X1443262Y1843379D1*
X1448975Y1851241D1*
X1455845Y1858112D1*
X1463707Y1863824D1*
X1472365Y1868235D1*
X1481606Y1871238D1*
X1491205Y1872759D1*
X1500921D1*
X1510520Y1871238D1*
X1519761Y1868235D1*
X1528419Y1863824D1*
X1536281Y1858112D1*
X1543151Y1851241D1*
X1548864Y1843379D1*
X1553274Y1834722D1*
X1556277Y1825480D1*
X1557798Y1815882D1*
Y1806165D1*
X1556277Y1796567D1*
X1553274Y1787325D1*
X1548864Y1778668D1*
X1543151Y1770806D1*
X1537717Y1765264D1*
X1690571Y1765272D1*
X1685196Y1770806D1*
X1679483Y1778668D1*
X1675072Y1787325D1*
X1672070Y1796567D1*
X1670549Y1806165D1*
Y1815882D1*
X1672070Y1825480D1*
X1675072Y1834722D1*
X1679483Y1843379D1*
X1685196Y1851241D1*
X1692066Y1858112D1*
X1699928Y1863824D1*
X1708585Y1868235D1*
X1717827Y1871238D1*
X1727425Y1872759D1*
X1737142D1*
X1746740Y1871238D1*
X1755982Y1868235D1*
X1764639Y1863824D1*
X1772501Y1858112D1*
X1779371Y1851241D1*
X1785084Y1843379D1*
X1789495Y1834722D1*
X1792497Y1825480D1*
X1794018Y1815882D1*
Y1806165D1*
X1792497Y1796567D1*
X1789495Y1787325D1*
X1785084Y1778668D1*
X1779371Y1770806D1*
X1773937Y1765264D1*
X2044891Y1765272D1*
X2039526Y1770806D1*
X2033814Y1778668D1*
X2029403Y1787325D1*
X2026400Y1796567D1*
X2024879Y1806165D1*
Y1815882D1*
X2026400Y1825480D1*
X2029403Y1834722D1*
X2033814Y1843379D1*
X2039526Y1851241D1*
X2046396Y1858112D1*
X2054259Y1863824D1*
X2062916Y1868235D1*
X2072157Y1871238D1*
X2081756Y1872759D1*
X2091472D1*
X2101071Y1871238D1*
X2110312Y1868235D1*
X2118970Y1863824D1*
X2126832Y1858112D1*
X2133702Y1851241D1*
X2139415Y1843379D1*
X2143825Y1834722D1*
X2146828Y1825480D1*
X2148349Y1815882D1*
Y1806165D1*
X2146828Y1796567D1*
X2143825Y1787325D1*
X2139415Y1778668D1*
X2133702Y1770806D1*
X2128268Y1765264D1*
X2167942Y1765171D1*
X2173055Y1764361D1*
X2177979Y1762761D1*
X2182591Y1760411D1*
X2186778Y1757367D1*
X2223823Y1720467D1*
X2223803Y1804370D1*
X2151685Y1876466D1*
X1572215Y1876562D1*
X1567102Y1877371D1*
X1562178Y1878971D1*
X1557567Y1881322D1*
X1553379Y1884365D1*
X1506007Y1931593D1*
X1490664Y1947080D1*
X1487621Y1951268D1*
X1485270Y1955879D1*
X1483671Y1960803D1*
X1482861Y1965916D1*
X1482760Y2032808D1*
Y2049638D1*
X1481365Y2041711D1*
X1478172Y2031882D1*
X1473479Y2022673D1*
X1467404Y2014312D1*
X1460097Y2007005D1*
X1451736Y2000930D1*
X1442528Y1996238D1*
X1432698Y1993045D1*
X1422491Y1991428D1*
X1412155D1*
X1401948Y1993045D1*
X1392118Y1996238D1*
X1382909Y2000930D1*
X1374549Y2007005D1*
X1367241Y2014312D1*
X1361167Y2022673D1*
X1356474Y2031882D1*
X1353281Y2041711D1*
X1351664Y2051919D1*
Y2062255D1*
X1353281Y2072462D1*
X1356474Y2082291D1*
X1361167Y2091500D1*
X1367241Y2099861D1*
X1374549Y2107168D1*
X1382909Y2113243D1*
X1392118Y2117936D1*
X1401948Y2121129D1*
X1412155Y2122745D1*
X1422491D1*
X1432698Y2121129D1*
X1442528Y2117936D1*
X1451736Y2113243D1*
X1460097Y2107168D1*
X1467404Y2099861D1*
X1473479Y2091500D1*
X1478172Y2082291D1*
X1481365Y2072462D1*
X1482761Y2064119D1*
X1482861Y2207312D1*
X1483671Y2212425D1*
X1485270Y2217349D1*
X1487621Y2221961D1*
X1490664Y2226148D1*
X1537892Y2273521D1*
X1553379Y2288864D1*
X1557567Y2291907D1*
X1562178Y2294257D1*
X1567102Y2295857D1*
X1572215Y2296667D1*
X1639108Y2296768D1*
X3093139Y2296667D1*
X3098252Y2295857D1*
X3103176Y2294257D1*
X3107787Y2291907D1*
X3111975Y2288864D1*
X3159348Y2241635D1*
X3410911Y1989928D1*
X3413954Y1985740D1*
X3416304Y1981129D1*
X3417904Y1976205D1*
X3418714Y1971092D1*
X3418815Y1958349D1*
X3420738Y1966130D1*
X3424102Y1974251D1*
X3428694Y1981747D1*
X3434404Y1988430D1*
X3441088Y1994140D1*
X3448584Y1998732D1*
X3456705Y2002097D1*
X3465252Y2004148D1*
X3474016Y2004839D1*
X3482780Y2004148D1*
X3491327Y2002097D1*
X3499448Y1998732D1*
X3506944Y1994140D1*
X3513627Y1988430D1*
X3519337Y1981747D1*
X3523929Y1974251D1*
X3527294Y1966130D1*
X3529345Y1957583D1*
X3530035Y1948819D1*
X3529345Y1940055D1*
X3527294Y1931508D1*
X3523929Y1923387D1*
X3519337Y1915891D1*
X3513627Y1909207D1*
X3506944Y1903497D1*
X3499448Y1898906D1*
X3491327Y1895541D1*
X3482780Y1893490D1*
X3474016Y1892799D1*
X3465252Y1893490D1*
X3456705Y1895541D1*
X3448584Y1898906D1*
X3441088Y1903497D1*
X3434404Y1909207D1*
X3428694Y1915891D1*
X3424102Y1923387D1*
X3420738Y1931508D1*
X3418816Y1939398D1*
X3418815Y1922537D1*
X3423440Y1917091D1*
X3427252Y1910871D1*
X3430043Y1904131D1*
X3431747Y1897037D1*
X3432319Y1889764D1*
X3431747Y1882491D1*
X3430043Y1875396D1*
X3427252Y1868656D1*
X3423440Y1862437D1*
X3418702Y1856888D1*
X3413154Y1852151D1*
X3406934Y1848339D1*
X3400194Y1845547D1*
X3393100Y1843844D1*
X3385827Y1843272D1*
X3378554Y1843844D1*
X3371459Y1845547D1*
X3364719Y1848339D1*
X3358500Y1852151D1*
X3352951Y1856888D1*
X3348214Y1862437D1*
X3346463Y1865056D1*
X3342440Y1859570D1*
X3337281Y1854411D1*
X3331379Y1850123D1*
X3324878Y1846811D1*
X3317940Y1844556D1*
X3310735Y1843415D1*
X3303438D1*
X3296234Y1844556D1*
X3289295Y1846811D1*
X3282794Y1850123D1*
X3276892Y1854411D1*
X3271734Y1859570D1*
X3267723Y1865056D1*
X3263699Y1859570D1*
X3258541Y1854411D1*
X3252639Y1850123D1*
X3246138Y1846811D1*
X3239199Y1844556D1*
X3231995Y1843415D1*
X3224698D1*
X3217493Y1844556D1*
X3210555Y1846811D1*
X3204054Y1850123D1*
X3198152Y1854411D1*
X3192993Y1859570D1*
X3188504Y1865832D1*
X2927375Y1865829D1*
X2929345Y1857583D1*
X2930035Y1848819D1*
X2929345Y1840055D1*
X2927294Y1831508D1*
X2923929Y1823387D1*
X2919337Y1815891D1*
X2913627Y1809207D1*
X2906944Y1803497D1*
X2899277Y1798825D1*
X2906944Y1794140D1*
X2913627Y1788430D1*
X2919283Y1781814D1*
X3428749Y1781807D1*
X3434404Y1788430D1*
X3441088Y1794140D1*
X3448584Y1798732D1*
X3456705Y1802097D1*
X3465252Y1804148D1*
X3474016Y1804839D1*
X3482780Y1804148D1*
X3491327Y1802097D1*
X3499448Y1798732D1*
X3506944Y1794140D1*
X3513627Y1788430D1*
X3519337Y1781747D1*
X3523929Y1774251D1*
X3527294Y1766130D1*
X3529345Y1757583D1*
X3530035Y1748819D1*
X3529345Y1740055D1*
X3527294Y1731508D1*
X3523929Y1723387D1*
X3519337Y1715891D1*
X3513627Y1709207D1*
X3506944Y1703497D1*
X3499277Y1698825D1*
X3506944Y1694140D1*
X3513627Y1688430D1*
X3519337Y1681747D1*
X3523929Y1674251D1*
X3527294Y1666130D1*
X3529345Y1657583D1*
X3530035Y1648819D1*
X3529345Y1640055D1*
X3527294Y1631508D1*
X3523929Y1623387D1*
X3519337Y1615891D1*
X3513627Y1609207D1*
X3506944Y1603497D1*
X3499277Y1598825D1*
X3506944Y1594140D1*
X3513627Y1588430D1*
X3519337Y1581747D1*
X3523929Y1574251D1*
X3527294Y1566130D1*
X3529345Y1557583D1*
X3530035Y1548819D1*
X3529345Y1540055D1*
X3527294Y1531508D1*
X3523929Y1523387D1*
X3519337Y1515891D1*
X3513627Y1509207D1*
X3506944Y1503497D1*
X3499277Y1498825D1*
X3506944Y1494140D1*
X3513627Y1488430D1*
X3519337Y1481747D1*
X3523929Y1474251D1*
X3527294Y1466130D1*
X3529345Y1457583D1*
X3530035Y1448819D1*
X3529345Y1440055D1*
X3527294Y1431508D1*
X3523929Y1423387D1*
X3519337Y1415891D1*
X3513627Y1409207D1*
X3506944Y1403497D1*
X3499277Y1398825D1*
X3506944Y1394140D1*
X3513627Y1388430D1*
X3519337Y1381747D1*
X3523929Y1374251D1*
X3527294Y1366130D1*
X3529345Y1357583D1*
X3530035Y1348819D1*
X3529345Y1340055D1*
X3527294Y1331508D1*
X3523929Y1323387D1*
X3519337Y1315891D1*
X3513627Y1309207D1*
X3506944Y1303497D1*
X3499277Y1298825D1*
X3506944Y1294140D1*
X3513627Y1288430D1*
X3519337Y1281747D1*
X3523929Y1274251D1*
X3527294Y1266130D1*
X3529345Y1257583D1*
X3530035Y1248819D1*
X3529345Y1240055D1*
X3527294Y1231508D1*
X3523929Y1223387D1*
X3519337Y1215891D1*
X3513627Y1209207D1*
X3506944Y1203497D1*
X3499277Y1198825D1*
X3506944Y1194140D1*
X3513627Y1188430D1*
X3519337Y1181747D1*
X3523929Y1174251D1*
X3527294Y1166130D1*
X3529345Y1157583D1*
X3530035Y1148819D1*
X3529345Y1140055D1*
X3527294Y1131508D1*
X3523929Y1123387D1*
X3519337Y1115891D1*
X3513627Y1109207D1*
X3506944Y1103497D1*
X3499277Y1098825D1*
X3506944Y1094140D1*
X3513627Y1088430D1*
X3519337Y1081747D1*
X3523929Y1074251D1*
X3527294Y1066130D1*
X3529345Y1057583D1*
X3530035Y1048819D1*
X3529345Y1040055D1*
X3527294Y1031508D1*
X3523929Y1023387D1*
X3519337Y1015891D1*
X3513627Y1009207D1*
X3506944Y1003497D1*
X3499277Y998825D1*
X3506944Y994140D1*
X3513627Y988430D1*
X3519337Y981747D1*
X3523929Y974251D1*
X3527294Y966130D1*
X3529345Y957583D1*
X3530035Y948819D1*
X3529345Y940055D1*
X3527294Y931508D1*
X3523929Y923387D1*
X3519337Y915891D1*
X3513627Y909207D1*
X3506944Y903497D1*
X3499277Y898825D1*
X3506944Y894140D1*
X3513627Y888430D1*
X3519337Y881747D1*
X3523929Y874251D1*
X3527294Y866130D1*
X3529345Y857583D1*
X3530035Y848819D1*
X3529345Y840055D1*
X3527294Y831508D1*
X3523929Y823387D1*
X3519337Y815891D1*
X3513627Y809207D1*
X3506944Y803497D1*
X3499277Y798825D1*
X3506944Y794140D1*
X3513627Y788430D1*
X3519337Y781747D1*
X3523929Y774251D1*
X3527294Y766130D1*
X3529345Y757583D1*
X3530035Y748819D1*
X3529345Y740055D1*
X3527294Y731508D1*
X3523929Y723387D1*
X3519337Y715891D1*
X3513627Y709207D1*
X3506944Y703497D1*
X3499277Y698825D1*
X3506944Y694140D1*
X3513627Y688430D1*
X3519337Y681747D1*
X3523929Y674251D1*
X3527294Y666130D1*
X3529345Y657583D1*
X3530035Y648819D1*
X3529345Y640055D1*
X3527294Y631508D1*
X3523929Y623387D1*
X3519337Y615891D1*
X3513627Y609207D1*
X3506944Y603497D1*
X3499277Y598825D1*
X3506944Y594140D1*
X3513627Y588430D1*
X3519337Y581747D1*
X3523929Y574251D1*
X3527294Y566130D1*
X3529345Y557583D1*
X3530035Y548819D1*
X3529345Y540055D1*
X3527294Y531508D1*
X3523929Y523387D1*
X3519337Y515891D1*
X3513627Y509207D1*
X3506944Y503497D1*
X3499448Y498906D1*
X3491327Y495541D1*
X3482780Y493490D1*
X3474016Y492799D1*
X3465252Y493490D1*
X3456705Y495541D1*
X3448584Y498906D1*
X3441088Y503497D1*
X3434404Y509207D1*
X3428694Y515891D1*
X3424102Y523387D1*
X3420738Y531508D1*
X3418686Y540055D1*
X3417996Y548819D1*
X3418686Y557583D1*
X3420738Y566130D1*
X3424102Y574251D1*
X3428694Y581747D1*
X3434404Y588430D1*
X3441088Y594140D1*
X3448755Y598812D1*
X3441088Y603497D1*
X3434404Y609207D1*
X3428694Y615891D1*
X3424102Y623387D1*
X3420738Y631508D1*
X3419293Y637005D1*
X3413154Y631678D1*
X3406934Y627866D1*
X3400194Y625075D1*
X3393100Y623371D1*
X3385827Y622799D1*
X3378554Y623371D1*
X3371459Y625075D1*
X3364719Y627866D1*
X3358500Y631678D1*
X3352951Y636416D1*
X3348214Y641965D1*
X3346463Y644584D1*
X3342440Y639097D1*
X3337281Y633938D1*
X3331379Y629651D1*
X3324878Y626339D1*
X3317940Y624084D1*
X3310735Y622942D1*
X3307243Y622806D1*
X3258037Y573734D1*
X3253849Y570690D1*
X3249238Y568340D1*
X3244314Y566740D1*
X3239201Y565930D1*
X3172308Y565829D1*
X2927399D1*
X2929345Y557583D1*
X2930035Y548819D1*
X2929345Y540055D1*
X2927294Y531508D1*
X2923929Y523387D1*
X2919337Y515891D1*
X2913627Y509207D1*
X2906944Y503497D1*
X2899448Y498906D1*
X2891327Y495541D1*
X2882780Y493490D1*
X2874016Y492799D1*
X2865337Y493479D1*
X2801286Y429581D1*
X2797098Y426538D1*
X2792487Y424188D1*
X2787563Y422589D1*
X2782450Y421778D1*
X2715558Y421677D1*
X1727786Y421778D1*
X1722673Y422589D1*
X1717749Y424188D1*
X1713138Y426538D1*
X1708950Y429581D1*
X1661577Y476810D1*
X1608774Y529757D1*
X1605731Y533945D1*
X1603381Y538556D1*
X1601782Y543480D1*
X1600971Y548593D1*
X1600870Y609349D1*
X1587276Y595741D1*
X1589361Y588539D1*
X1590521Y582709D1*
X1591219Y576806D1*
X1591453Y570866D1*
X1591219Y564927D1*
X1590521Y559024D1*
X1589361Y553193D1*
X1587748Y547472D1*
X1585690Y541895D1*
X1583201Y536497D1*
X1580297Y531311D1*
X1576995Y526367D1*
X1573315Y521699D1*
X1569280Y517335D1*
X1564915Y513299D1*
X1560247Y509619D1*
X1555303Y506318D1*
X1550117Y503413D1*
X1544719Y500924D1*
X1539142Y498866D1*
X1533421Y497253D1*
X1527591Y496093D1*
X1521688Y495395D1*
X1515748Y495161D1*
X1509808Y495395D1*
X1503906Y496093D1*
X1498075Y497253D1*
X1492354Y498866D1*
X1486777Y500924D1*
X1481379Y503413D1*
X1476193Y506318D1*
X1471249Y509619D1*
X1466581Y513299D1*
X1462217Y517335D1*
X1458181Y521699D1*
X1454501Y526367D1*
X1451199Y531311D1*
X1448295Y536497D1*
X1445806Y541895D1*
X1443748Y547472D1*
X1442135Y553193D1*
X1440975Y559024D1*
X1440277Y564927D1*
X1440043Y570866D1*
X1440277Y576806D1*
X1440975Y582709D1*
X1442135Y588539D1*
X1443748Y594260D1*
X1445806Y599837D1*
X1448295Y605235D1*
X1451199Y610421D1*
X1454501Y615365D1*
X1458181Y620033D1*
X1462217Y624398D1*
X1466581Y628433D1*
X1471249Y632113D1*
X1476193Y635415D1*
X1481379Y638319D1*
X1486777Y640808D1*
X1492354Y642866D1*
X1498075Y644479D1*
X1503906Y645639D1*
X1509808Y646337D1*
X1515748Y646571D1*
X1521688Y646337D1*
X1527591Y645639D1*
X1533421Y644479D1*
X1540558Y642344D1*
X1593588Y695358D1*
X1490013D1*
X1390419Y595735D1*
X1392510Y588539D1*
X1393671Y582709D1*
X1394369Y576806D1*
X1394602Y570866D1*
X1394369Y564927D1*
X1393671Y559024D1*
X1392510Y553193D1*
X1390898Y547472D1*
X1388840Y541895D1*
X1386350Y536497D1*
X1383446Y531311D1*
X1380144Y526367D1*
X1376465Y521699D1*
X1372429Y517335D1*
X1368064Y513299D1*
X1363396Y509619D1*
X1358453Y506318D1*
X1353266Y503413D1*
X1347869Y500924D1*
X1342291Y498866D1*
X1336571Y497253D1*
X1330740Y496093D1*
X1324837Y495395D1*
X1318898Y495161D1*
X1312958Y495395D1*
X1307055Y496093D1*
X1301224Y497253D1*
X1295504Y498866D1*
X1289927Y500924D1*
X1284529Y503413D1*
X1279343Y506318D1*
X1274399Y509619D1*
X1269731Y513299D1*
X1265366Y517335D1*
X1261331Y521699D1*
X1257651Y526367D1*
X1254349Y531311D1*
X1251445Y536497D1*
X1248955Y541895D1*
X1246898Y547472D1*
X1245285Y553193D1*
X1244125Y559024D1*
X1243427Y564927D1*
X1243193Y570866D1*
X1243427Y576806D1*
X1244125Y582709D1*
X1245285Y588539D1*
X1246898Y594260D1*
X1248955Y599837D1*
X1251445Y605235D1*
X1254349Y610421D1*
X1257651Y615365D1*
X1261331Y620033D1*
X1265366Y624398D1*
X1269731Y628433D1*
X1274399Y632113D1*
X1279343Y635415D1*
X1284529Y638319D1*
X1289927Y640808D1*
X1295504Y642866D1*
X1301224Y644479D1*
X1307055Y645639D1*
X1312958Y646337D1*
X1318898Y646571D1*
X1324837Y646337D1*
X1330740Y645639D1*
X1336571Y644479D1*
X1343707Y642344D1*
X1454962Y753437D1*
X1447508Y754413D1*
X922609Y754514D1*
X917496Y755324D1*
X912572Y756924D1*
X907961Y759274D1*
X903773Y762318D1*
X856400Y809546D1*
X841058Y825033D1*
X838014Y829220D1*
X835664Y833832D1*
X834064Y838756D1*
X833255Y843869D1*
X833154Y910761D1*
X833255Y1166761D1*
X834064Y1171874D1*
X835664Y1176798D1*
X838014Y1181409D1*
X841058Y1185597D1*
X886383Y1231067D1*
X885634Y1240157D1*
X886329Y1248995D1*
X888399Y1257614D1*
X891791Y1265804D1*
X896423Y1273362D1*
X902180Y1280104D1*
X908921Y1285861D1*
X916479Y1290492D1*
X924669Y1293885D1*
X933289Y1295954D1*
X942126Y1296650D1*
X950963Y1295954D1*
X959583Y1293885D1*
X967773Y1290492D1*
X975331Y1285861D1*
X982072Y1280104D1*
X987829Y1273362D1*
X992461Y1265804D1*
X995853Y1257614D1*
X997923Y1248995D1*
X998618Y1240157D1*
X997923Y1231320D1*
X995853Y1222701D1*
X992461Y1214510D1*
X987829Y1206953D1*
X982072Y1200211D1*
X975331Y1194454D1*
X967773Y1189823D1*
X959583Y1186430D1*
X950963Y1184361D1*
X942126Y1183665D1*
X933034Y1184412D1*
X924669Y1175774D1*
X933289Y1177844D1*
X942126Y1178539D1*
X950963Y1177844D1*
X959583Y1175774D1*
X967773Y1172382D1*
X975331Y1167751D1*
X982072Y1161993D1*
X987974Y1155037D1*
X1099980Y1155035D1*
X1094644Y1160570D1*
X1088932Y1168432D1*
X1084521Y1177089D1*
X1081518Y1186331D1*
X1079997Y1195929D1*
Y1205646D1*
X1081518Y1215244D1*
X1084521Y1224486D1*
X1088932Y1233143D1*
X1094644Y1241005D1*
X1101514Y1247875D1*
X1109377Y1253588D1*
X1118034Y1257999D1*
X1127276Y1261001D1*
X1136874Y1262522D1*
X1146591D1*
X1156189Y1261001D1*
X1165430Y1257999D1*
X1174088Y1253588D1*
X1181950Y1247875D1*
X1188820Y1241005D1*
X1194533Y1233143D1*
X1198944Y1224486D1*
X1201946Y1215244D1*
X1203467Y1205646D1*
Y1195929D1*
X1201946Y1186331D1*
X1198944Y1177089D1*
X1194533Y1168432D1*
X1188820Y1160570D1*
X1183386Y1155028D1*
X1454301Y1155035D1*
X1448975Y1160570D1*
X1443262Y1168432D1*
X1438852Y1177089D1*
X1435849Y1186331D1*
X1434328Y1195929D1*
Y1205646D1*
X1435849Y1215244D1*
X1438852Y1224486D1*
X1443262Y1233143D1*
X1448975Y1241005D1*
X1455845Y1247875D1*
X1463707Y1253588D1*
X1472365Y1257999D1*
X1481606Y1261001D1*
X1491205Y1262522D1*
X1500921D1*
X1510520Y1261001D1*
X1519761Y1257999D1*
X1528419Y1253588D1*
X1536281Y1247875D1*
X1543151Y1241005D1*
X1548864Y1233143D1*
X1553274Y1224486D1*
X1556277Y1215244D1*
X1557798Y1205646D1*
Y1195929D1*
X1556277Y1186331D1*
X1553274Y1177089D1*
X1548864Y1168432D1*
X1543151Y1160570D1*
X1537717Y1155028D1*
X1690563Y1155035D1*
X1685196Y1160570D1*
X1679483Y1168432D1*
X1675072Y1177089D1*
X1672070Y1186331D1*
X1670549Y1195929D1*
Y1205646D1*
X1672070Y1215244D1*
X1675072Y1224486D1*
X1679483Y1233143D1*
X1685196Y1241005D1*
X1692066Y1247875D1*
X1699928Y1253588D1*
X1708585Y1257999D1*
X1717827Y1261001D1*
X1727425Y1262522D1*
X1737142D1*
X1746740Y1261001D1*
X1755982Y1257999D1*
X1764639Y1253588D1*
X1772501Y1247875D1*
X1779371Y1241005D1*
X1785084Y1233143D1*
X1789495Y1224486D1*
X1792497Y1215244D1*
X1794018Y1205646D1*
Y1195929D1*
X1792497Y1186331D1*
X1789495Y1177089D1*
X1785084Y1168432D1*
X1779371Y1160570D1*
X1772501Y1153699D1*
X1764639Y1147987D1*
X1755982Y1143576D1*
X1746740Y1140573D1*
X1741688Y1139591D1*
X1751987Y1129312D1*
X1837066Y1214427D1*
X1837192Y1429753D1*
X1838003Y1434866D1*
X1839601Y1439790D1*
X1841951Y1444402D1*
X1844995Y1448589D1*
X1892223Y1495962D1*
X1944214Y1547953D1*
X1942823Y1554657D1*
X1942012Y1564961D1*
X1942823Y1575264D1*
X1945235Y1585314D1*
X1949190Y1594861D1*
X1954591Y1603673D1*
X1961302Y1611533D1*
X1969161Y1618244D1*
X1977974Y1623644D1*
X1987521Y1627600D1*
X1997571Y1630012D1*
X2007874Y1630823D1*
X2018177Y1630012D1*
X2028227Y1627600D1*
X2037774Y1623644D1*
X2046587Y1618244D1*
X2054446Y1611533D1*
X2061157Y1603673D1*
X2066558Y1594861D1*
X2070513Y1585314D1*
X2072925Y1575264D1*
X2073312Y1571993D1*
X2073311Y1600501D1*
X2033570Y1640251D1*
X1657362Y1640240D1*
X1480959Y1463835D1*
X1482374Y1457154D1*
X1483185Y1446850D1*
X1482374Y1436547D1*
X1479962Y1426497D1*
X1476007Y1416950D1*
X1470606Y1408138D1*
X1463895Y1400278D1*
X1456035Y1393567D1*
X1447223Y1388167D1*
X1437676Y1384211D1*
X1427626Y1381799D1*
X1417323Y1380988D1*
X1407020Y1381799D1*
X1396970Y1384211D1*
X1387423Y1388167D1*
X1378610Y1393567D1*
X1370751Y1400278D1*
X1364039Y1408138D1*
X1358639Y1416950D1*
X1354684Y1426497D1*
X1352272Y1436547D1*
X1351461Y1446850D1*
X1352272Y1457154D1*
X1354684Y1467203D1*
X1358639Y1476751D1*
X1364039Y1485563D1*
X1370751Y1493423D1*
X1378610Y1500134D1*
X1387423Y1505534D1*
X1388211Y1505898D1*
X1382909Y1508804D1*
X1374549Y1514879D1*
X1367241Y1522186D1*
X1361167Y1530547D1*
X1356474Y1539756D1*
X1353281Y1549585D1*
X1351664Y1559793D1*
Y1570129D1*
X1353281Y1580336D1*
X1356474Y1590165D1*
X1361167Y1599374D1*
X1367241Y1607735D1*
X1374549Y1615042D1*
X1382909Y1621117D1*
X1392118Y1625810D1*
X1401948Y1629003D1*
X1412155Y1630619D1*
X1422491D1*
X1432698Y1629003D1*
X1442528Y1625810D1*
X1451736Y1621117D1*
X1460097Y1615042D1*
X1467404Y1607735D1*
X1473479Y1599374D1*
X1478172Y1590165D1*
X1481365Y1580336D1*
X1482982Y1570129D1*
Y1559793D1*
X1482899Y1559091D1*
X1593563Y1669743D1*
X1044378Y1669768D1*
X975097Y1600491D1*
X975114Y1404143D1*
X982072Y1398214D1*
X987829Y1391472D1*
X992461Y1383915D1*
X995853Y1375724D1*
X997923Y1367105D1*
X998618Y1358268D1*
X997923Y1349430D1*
X995853Y1340811D1*
X992461Y1332621D1*
X987829Y1325063D1*
X982072Y1318322D1*
X975331Y1312564D1*
X967773Y1307933D1*
X959583Y1304541D1*
X950963Y1302471D1*
X942126Y1301776D1*
X933289Y1302471D1*
X924669Y1304541D1*
X916479Y1307933D1*
X908921Y1312564D1*
X902180Y1318322D1*
X896423Y1325063D1*
X891791Y1332621D1*
X888399Y1340811D1*
X886329Y1349430D1*
X885634Y1358268D1*
X886329Y1367105D1*
X888399Y1375724D1*
X891791Y1383915D1*
X896423Y1391472D1*
X902180Y1398214D1*
X909136Y1404115D1*
X909239Y1616761D1*
X910049Y1621874D1*
X911648Y1626798D1*
X913999Y1631409D1*
X917042Y1635597D1*
X964270Y1682970D1*
X980315Y1699295D1*
X525483D1*
X485734Y1659554D1*
X485808Y1362699D1*
X487194Y1371455D1*
X489934Y1379886D1*
X493958Y1387785D1*
X499169Y1394957D1*
X505437Y1401224D1*
X512609Y1406436D1*
X520508Y1410459D1*
X528938Y1413199D1*
X537694Y1414585D1*
X546558D1*
X555314Y1413199D1*
X563744Y1410459D1*
X571643Y1406436D1*
X578815Y1401224D1*
X585083Y1394957D1*
X590294Y1387785D1*
X594318Y1379886D1*
X597058Y1371455D1*
X598444Y1362699D1*
Y1353836D1*
X597058Y1345080D1*
X594318Y1336650D1*
X590294Y1328751D1*
X585083Y1321579D1*
X578815Y1315311D1*
X571643Y1310100D1*
X563744Y1306076D1*
X555314Y1303336D1*
X546558Y1301950D1*
X537694D1*
X528938Y1303336D1*
X520508Y1306076D1*
X512609Y1310100D1*
X505437Y1315311D1*
X499169Y1321579D1*
X493958Y1328751D1*
X489934Y1336650D1*
X487194Y1345080D1*
X485808Y1353836D1*
X485744Y1314961D1*
X485808Y1244589D1*
X487194Y1253345D1*
X489934Y1261776D1*
X493958Y1269675D1*
X499169Y1276846D1*
X505437Y1283114D1*
X512609Y1288325D1*
X520508Y1292349D1*
X528938Y1295089D1*
X537694Y1296475D1*
X546558D1*
X555314Y1295089D1*
X563744Y1292349D1*
X571643Y1288325D1*
X578815Y1283114D1*
X585083Y1276846D1*
X590294Y1269675D1*
X594318Y1261776D1*
X597058Y1253345D1*
X598444Y1244589D1*
Y1235726D1*
X597058Y1226970D1*
X594318Y1218539D1*
X590294Y1210640D1*
X585083Y1203469D1*
X578815Y1197201D1*
X571643Y1191990D1*
X563744Y1187966D1*
X555314Y1185226D1*
X546558Y1183840D1*
X537694D1*
X528938Y1185226D1*
X520508Y1187966D1*
X512609Y1191990D1*
X505437Y1197201D1*
X499169Y1203469D1*
X493958Y1210640D1*
X489934Y1218539D1*
X487194Y1226970D1*
X485808Y1235726D1*
X485744Y1177165D1*
X485808Y1126479D1*
X487194Y1135235D1*
X489934Y1143665D1*
X493958Y1151564D1*
X499169Y1158736D1*
X505437Y1165004D1*
X512609Y1170215D1*
X520508Y1174239D1*
X528938Y1176979D1*
X537694Y1178365D1*
X546558D1*
X555314Y1176979D1*
X563744Y1174239D1*
X571643Y1170215D1*
X578815Y1165004D1*
X585083Y1158736D1*
X590294Y1151564D1*
X594318Y1143665D1*
X597058Y1135235D1*
X598444Y1126479D1*
Y1117615D1*
X597058Y1108860D1*
X594318Y1100429D1*
X590294Y1092530D1*
X585083Y1085358D1*
X578815Y1079091D1*
X571643Y1073879D1*
X563744Y1069856D1*
X555314Y1067115D1*
X546558Y1065730D1*
X537694D1*
X528938Y1067115D1*
X520508Y1069856D1*
X512609Y1073879D1*
X505437Y1079091D1*
X499169Y1085358D1*
X493958Y1092530D1*
X489934Y1100429D1*
X487194Y1108860D1*
X485808Y1117615D1*
X485744Y1030184D1*
Y663268D1*
X502446Y646570D1*
X803818Y564927D2*
X803119Y559024D1*
X801959Y553193D1*
X800346Y547472D1*
X798289Y541895D1*
X795799Y536497D1*
X792895Y531311D1*
X789593Y526367D1*
X785913Y521699D1*
X781878Y517335D1*
X777513Y513299D1*
X772845Y509619D1*
X767902Y506318D1*
X762715Y503413D1*
X757318Y500924D1*
X751740Y498866D1*
X746020Y497253D1*
X740189Y496093D1*
X734286Y495395D1*
X728346Y495161D1*
X722407Y495395D1*
X716504Y496093D1*
X710673Y497253D1*
X704953Y498866D1*
X699375Y500924D1*
X693978Y503413D1*
X688791Y506318D1*
X683848Y509619D1*
X679180Y513299D1*
X674815Y517335D1*
X670780Y521699D1*
X667100Y526367D1*
X663798Y531311D1*
X660894Y536497D1*
X658404Y541895D1*
X656346Y547472D1*
X654734Y553193D1*
X653573Y559024D1*
X652875Y564927D1*
X652642Y570866D1*
X652875Y576806D1*
X653573Y582709D1*
X654734Y588539D1*
X656346Y594260D1*
X658404Y599837D1*
X660894Y605235D1*
X663798Y610421D1*
X667100Y615365D1*
X670780Y620033D1*
X674815Y624398D1*
X679180Y628433D1*
X683848Y632113D1*
X688791Y635415D1*
X693978Y638319D1*
X699375Y640808D1*
X704953Y642866D1*
X710673Y644479D1*
X716504Y645639D1*
X722407Y646337D1*
X728346Y646571D1*
X734286Y646337D1*
X740189Y645639D1*
X746020Y644479D1*
X751740Y642866D1*
X757318Y640808D1*
X762715Y638319D1*
X767902Y635415D1*
X772845Y632113D1*
X777513Y628433D1*
X781878Y624398D1*
X785913Y620033D1*
X789593Y615365D1*
X792895Y610421D1*
X795799Y605235D1*
X798289Y599837D1*
X800346Y594260D1*
X801959Y588539D1*
X803119Y582709D1*
X803818Y576806D1*
X804051Y570866D1*
X803818Y564927D1*
X1000668D2*
X999970Y559024D1*
X998810Y553193D1*
X997197Y547472D1*
X995139Y541895D1*
X992650Y536497D1*
X989745Y531311D1*
X986444Y526367D1*
X982764Y521699D1*
X978728Y517335D1*
X974364Y513299D1*
X969696Y509619D1*
X964752Y506318D1*
X959566Y503413D1*
X954168Y500924D1*
X948591Y498866D1*
X942870Y497253D1*
X937039Y496093D1*
X931136Y495395D1*
X925197Y495161D1*
X919257Y495395D1*
X913354Y496093D1*
X907524Y497253D1*
X901803Y498866D1*
X896226Y500924D1*
X890828Y503413D1*
X885642Y506318D1*
X880698Y509619D1*
X876030Y513299D1*
X871665Y517335D1*
X867630Y521699D1*
X863950Y526367D1*
X860648Y531311D1*
X857744Y536497D1*
X855255Y541895D1*
X853197Y547472D1*
X851584Y553193D1*
X850424Y559024D1*
X849726Y564927D1*
X849492Y570866D1*
X849726Y576806D1*
X850424Y582709D1*
X851584Y588539D1*
X853197Y594260D1*
X855255Y599837D1*
X857744Y605235D1*
X860648Y610421D1*
X863950Y615365D1*
X867630Y620033D1*
X871665Y624398D1*
X876030Y628433D1*
X880698Y632113D1*
X885642Y635415D1*
X890828Y638319D1*
X896226Y640808D1*
X901803Y642866D1*
X907524Y644479D1*
X913354Y645639D1*
X919257Y646337D1*
X925197Y646571D1*
X931136Y646337D1*
X937039Y645639D1*
X942870Y644479D1*
X948591Y642866D1*
X954168Y640808D1*
X959566Y638319D1*
X964752Y635415D1*
X969696Y632113D1*
X974364Y628433D1*
X978728Y624398D1*
X982764Y620033D1*
X986444Y615365D1*
X989745Y610421D1*
X992650Y605235D1*
X995139Y599837D1*
X997197Y594260D1*
X998810Y588539D1*
X999970Y582709D1*
X1000668Y576806D1*
X1000902Y570866D1*
X1000668Y564927D1*
X1197518D2*
X1196820Y559024D1*
X1195660Y553193D1*
X1194047Y547472D1*
X1191990Y541895D1*
X1189500Y536497D1*
X1186596Y531311D1*
X1183294Y526367D1*
X1179614Y521699D1*
X1175579Y517335D1*
X1171214Y513299D1*
X1166546Y509619D1*
X1161602Y506318D1*
X1156416Y503413D1*
X1151018Y500924D1*
X1145441Y498866D1*
X1139720Y497253D1*
X1133890Y496093D1*
X1127987Y495395D1*
X1122047Y495161D1*
X1116108Y495395D1*
X1110205Y496093D1*
X1104374Y497253D1*
X1098654Y498866D1*
X1093076Y500924D1*
X1087678Y503413D1*
X1082492Y506318D1*
X1077549Y509619D1*
X1072881Y513299D1*
X1068516Y517335D1*
X1064480Y521699D1*
X1060801Y526367D1*
X1057499Y531311D1*
X1054594Y536497D1*
X1052105Y541895D1*
X1050047Y547472D1*
X1048434Y553193D1*
X1047274Y559024D1*
X1046576Y564927D1*
X1046343Y570866D1*
X1046576Y576806D1*
X1047274Y582709D1*
X1048434Y588539D1*
X1050047Y594260D1*
X1052105Y599837D1*
X1054594Y605235D1*
X1057499Y610421D1*
X1060801Y615365D1*
X1064480Y620033D1*
X1068516Y624398D1*
X1072881Y628433D1*
X1077549Y632113D1*
X1082492Y635415D1*
X1087678Y638319D1*
X1093076Y640808D1*
X1098654Y642866D1*
X1104374Y644479D1*
X1110205Y645639D1*
X1116108Y646337D1*
X1122047Y646571D1*
X1127987Y646337D1*
X1133890Y645639D1*
X1139720Y644479D1*
X1145441Y642866D1*
X1151018Y640808D1*
X1156416Y638319D1*
X1161602Y635415D1*
X1166546Y632113D1*
X1171214Y628433D1*
X1175579Y624398D1*
X1179614Y620033D1*
X1183294Y615365D1*
X1186596Y610421D1*
X1189500Y605235D1*
X1191990Y599837D1*
X1194047Y594260D1*
X1195660Y588539D1*
X1196820Y582709D1*
X1197518Y576806D1*
X1197752Y570866D1*
X1197518Y564927D1*
X1788070D2*
X1787371Y559024D1*
X1786211Y553193D1*
X1784076Y546056D1*
X1805018Y525100D1*
X1849148Y525114D1*
X1844900Y531311D1*
X1841996Y536497D1*
X1839507Y541895D1*
X1837449Y547472D1*
X1835836Y553193D1*
X1834676Y559024D1*
X1833978Y564927D1*
X1833744Y570866D1*
X1833978Y576806D1*
X1834676Y582709D1*
X1835836Y588539D1*
X1837449Y594260D1*
X1839507Y599837D1*
X1843799Y608457D1*
X1778341Y608449D1*
X1782541Y599837D1*
X1784598Y594260D1*
X1786211Y588539D1*
X1787371Y582709D1*
X1788070Y576806D1*
X1788303Y570866D1*
X1788070Y564927D1*
X1984920D2*
X1984222Y559024D1*
X1983062Y553193D1*
X1981449Y547472D1*
X1979391Y541895D1*
X1976902Y536497D1*
X1973997Y531311D1*
X1969703Y525110D1*
X2046009Y525114D1*
X2041751Y531311D1*
X2038846Y536497D1*
X2036357Y541895D1*
X2034299Y547472D1*
X2032686Y553193D1*
X2031526Y559024D1*
X2030828Y564927D1*
X2030594Y570866D1*
X2030828Y576806D1*
X2031526Y582709D1*
X2032686Y588539D1*
X2034299Y594260D1*
X2036357Y599837D1*
X2040650Y608457D1*
X1975130Y608449D1*
X1979391Y599837D1*
X1981449Y594260D1*
X1983062Y588539D1*
X1984222Y582709D1*
X1984920Y576806D1*
X1985154Y570866D1*
X1984920Y564927D1*
X2181770D2*
X2181072Y559024D1*
X2179912Y553193D1*
X2178299Y547472D1*
X2176241Y541895D1*
X2173752Y536497D1*
X2170848Y531311D1*
X2166554Y525110D1*
X2242869Y525114D1*
X2238601Y531311D1*
X2235697Y536497D1*
X2233207Y541895D1*
X2231150Y547472D1*
X2229537Y553193D1*
X2228377Y559024D1*
X2227678Y564927D1*
X2227445Y570866D1*
X2227678Y576806D1*
X2228377Y582709D1*
X2229537Y588539D1*
X2231150Y594260D1*
X2233207Y599837D1*
X2237500Y608457D1*
X2171991Y608449D1*
X2176241Y599837D1*
X2178299Y594260D1*
X2179912Y588539D1*
X2181072Y582709D1*
X2181770Y576806D1*
X2182004Y570866D1*
X2181770Y564927D1*
X2378621D2*
X2377923Y559024D1*
X2376762Y553193D1*
X2375150Y547472D1*
X2373092Y541895D1*
X2370602Y536497D1*
X2367698Y531311D1*
X2363404Y525110D1*
X2506043Y525114D1*
X2646751Y665844D1*
X2431129Y665829D1*
X2436928Y660115D1*
X2441215Y654214D1*
X2444528Y647713D1*
X2446782Y640774D1*
X2447924Y633570D1*
Y626273D1*
X2446782Y619068D1*
X2444528Y612130D1*
X2441215Y605629D1*
X2436928Y599727D1*
X2431769Y594568D1*
X2425867Y590281D1*
X2419366Y586969D1*
X2412428Y584714D1*
X2405223Y583572D1*
X2397927D1*
X2390722Y584714D1*
X2383783Y586969D1*
X2377282Y590281D1*
X2376109Y591064D1*
X2377923Y582709D1*
X2378621Y576806D1*
X2378854Y570866D1*
X2378621Y564927D1*
X2772322D2*
X2771623Y559024D1*
X2770463Y553193D1*
X2768850Y547472D1*
X2766793Y541895D1*
X2764303Y536497D1*
X2761399Y531311D1*
X2758097Y526367D1*
X2754417Y521699D1*
X2750382Y517335D1*
X2746017Y513299D1*
X2741349Y509619D1*
X2736406Y506318D1*
X2731219Y503413D1*
X2725822Y500924D1*
X2720244Y498866D1*
X2714524Y497253D1*
X2708693Y496093D1*
X2702790Y495395D1*
X2696850Y495161D1*
X2690911Y495395D1*
X2685008Y496093D1*
X2679177Y497253D1*
X2673457Y498866D1*
X2667879Y500924D1*
X2662482Y503413D1*
X2657295Y506318D1*
X2652352Y509619D1*
X2647684Y513299D1*
X2643319Y517335D1*
X2639283Y521699D1*
X2635604Y526367D1*
X2632302Y531311D1*
X2629398Y536497D1*
X2626908Y541895D1*
X2624151Y549953D1*
X2561869Y487657D1*
X2766171Y487654D1*
X2818677Y540133D1*
X2817996Y548819D1*
X2818686Y557583D1*
X2820650Y565816D1*
X2812374Y565930D1*
X2807261Y566740D1*
X2802337Y568340D1*
X2797726Y570690D1*
X2793538Y573734D1*
X2766440Y600688D1*
X2768850Y594260D1*
X2770463Y588539D1*
X2771623Y582709D1*
X2772322Y576806D1*
X2772555Y570866D1*
X2772322Y564927D1*
X594899Y1672161D2*
X701689D1*
Y1556185D1*
X585713D1*
Y1672161D1*
X594899D1*
X987974Y1089058D2*
X982072Y1082101D1*
X975331Y1076344D1*
X967773Y1071713D1*
X959583Y1068320D1*
X950963Y1066251D1*
X942126Y1065555D1*
X933289Y1066251D1*
X924669Y1068320D1*
X916479Y1071713D1*
X908921Y1076344D1*
X902180Y1082101D1*
X899136Y1085399D1*
X899130Y860126D1*
X938871Y820379D1*
X1731765Y820390D1*
X1728635Y823138D1*
X1667829Y884088D1*
X1664786Y888276D1*
X1662436Y892887D1*
X1660837Y897811D1*
X1660026Y902924D1*
X1659925Y969816D1*
X1660026Y1026210D1*
X1660837Y1031323D1*
X1662436Y1036247D1*
X1664786Y1040858D1*
X1667829Y1045046D1*
X1705339Y1082701D1*
X1698929Y1089064D1*
X987990Y1089059D1*
X2342538Y1471946D2*
X2341152Y1463190D1*
X2340921Y1462373D1*
X2380151Y1501462D1*
X2384339Y1504505D1*
X2388950Y1506856D1*
X2393874Y1508454D1*
X2398987Y1509265D1*
X2465879Y1509366D1*
X2640517Y1509583D1*
X2645816Y1515828D1*
X2326675Y1515831D1*
X2331924Y1509583D1*
X2336555Y1502025D1*
X2339948Y1493835D1*
X2342017Y1485215D1*
X2342713Y1476378D1*
X2342538Y1471946D1*
X2240373Y1509367D2*
X2246274Y1516324D1*
X2253016Y1522081D1*
X2260573Y1526713D1*
X2263736Y1528171D1*
X2199319Y1592756D1*
X2198343Y1588583D1*
Y1509386D1*
X2240388Y1509366D1*
X2726625Y1515828D2*
X2732068Y1509367D1*
X2758493Y1509265D1*
X2763606Y1508454D1*
X2768530Y1506856D1*
X2773142Y1504505D1*
X2777329Y1501462D1*
X2819094Y1459841D1*
X2820738Y1466130D1*
X2824102Y1474251D1*
X2828694Y1481747D1*
X2834404Y1488430D1*
X2841088Y1494140D1*
X2848755Y1498812D1*
X2841088Y1503497D1*
X2834404Y1509207D1*
X2828748Y1515824D1*
X2726639Y1515831D1*
X2342538Y1353836D2*
X2341152Y1345080D1*
X2338412Y1336650D1*
X2336327Y1332213D1*
X2613501Y1332201D1*
X2630424Y1349430D1*
X2629728Y1358268D1*
X2630424Y1367105D1*
X2632493Y1375724D1*
X2636114Y1384323D1*
X2552478Y1384335D1*
X2547012Y1379710D1*
X2540793Y1375898D1*
X2534052Y1373106D1*
X2526958Y1371403D1*
X2519685Y1370831D1*
X2512412Y1371403D1*
X2505318Y1373106D1*
X2498577Y1375898D1*
X2492358Y1379710D1*
X2486810Y1384448D1*
X2482072Y1389996D1*
X2478260Y1396215D1*
X2475469Y1402955D1*
X2473765Y1410050D1*
X2473193Y1417323D1*
X2473765Y1424596D1*
X2475469Y1431690D1*
X2478260Y1438430D1*
X2481224Y1443382D1*
X2415259Y1443390D1*
X2363944Y1392239D1*
X2359756Y1389196D1*
X2355144Y1386845D1*
X2350220Y1385245D1*
X2345108Y1384436D1*
X2336312Y1384335D1*
X2338412Y1379886D1*
X2341152Y1371455D1*
X2342538Y1362699D1*
Y1353836D1*
X2236114Y1332213D2*
X2234029Y1336650D1*
X2231289Y1345080D1*
X2229903Y1353836D1*
Y1362699D1*
X2231289Y1371455D1*
X2234029Y1379886D1*
X2236114Y1384323D1*
X2162766Y1384436D1*
X2157654Y1385245D1*
X2152730Y1386845D1*
X2148118Y1389196D1*
X2143930Y1392239D1*
X2096558Y1439467D1*
X2081215Y1454954D1*
X2078172Y1459142D1*
X2075822Y1463753D1*
X2074222Y1468677D1*
X2073412Y1473790D1*
X2073311Y1540682D1*
Y1557512D1*
X2071916Y1549585D1*
X2068723Y1539756D1*
X2064030Y1530547D1*
X2057955Y1522186D1*
X2050648Y1514879D1*
X2042287Y1508804D1*
X2036986Y1505913D1*
X2042287Y1503007D1*
X2050648Y1496932D1*
X2057955Y1489625D1*
X2064030Y1481264D1*
X2068723Y1472055D1*
X2071916Y1462226D1*
X2073533Y1452018D1*
Y1441682D1*
X2071916Y1431475D1*
X2071472Y1429900D1*
X2169159Y1332218D1*
X2236072Y1332201D1*
X2742538Y1353836D2*
X2741152Y1345080D1*
X2738412Y1336650D1*
X2734388Y1328751D1*
X2729177Y1321579D1*
X2722909Y1315311D1*
X2715738Y1310100D1*
X2707839Y1306076D1*
X2699408Y1303336D1*
X2690652Y1301950D1*
X2681789D1*
X2677068Y1302463D1*
X2648589Y1274129D1*
X2644402Y1271085D1*
X2639790Y1268735D1*
X2634866Y1267135D1*
X2629753Y1266325D1*
X2562861Y1266224D1*
X2336324D1*
X2338412Y1261776D1*
X2341152Y1253345D1*
X2342538Y1244589D1*
Y1235726D1*
X2341152Y1226970D1*
X2338412Y1218539D1*
X2336327Y1214102D1*
X2742273Y1214091D1*
X2802198Y1273903D1*
X2806386Y1276946D1*
X2810997Y1279297D1*
X2815921Y1280895D1*
X2821034Y1281706D1*
X2828753Y1281807D1*
X2834404Y1288430D1*
X2841088Y1294140D1*
X2848755Y1298812D1*
X2841088Y1303497D1*
X2834404Y1309207D1*
X2828748Y1315824D1*
X2821822Y1315932D1*
X2816709Y1316741D1*
X2811785Y1318341D1*
X2807173Y1320692D1*
X2802986Y1323735D1*
X2755613Y1370963D1*
X2742241Y1384335D1*
X2736349D1*
X2739948Y1375724D1*
X2742017Y1367105D1*
X2742713Y1358268D1*
X2742538Y1353836D1*
X2236605Y1213226D2*
X2234029Y1218539D1*
X2231289Y1226970D1*
X2229903Y1235726D1*
Y1244589D1*
X2231289Y1253345D1*
X2234029Y1261776D1*
X2236114Y1266213D1*
X2152924Y1266325D1*
X2147811Y1267135D1*
X2142887Y1268735D1*
X2138276Y1271085D1*
X2134088Y1274129D1*
X2086715Y1321357D1*
X2024879Y1383193D1*
X2018177Y1381799D1*
X2007874Y1380988D1*
X1997571Y1381799D1*
X1987521Y1384211D1*
X1977974Y1388167D1*
X1969161Y1393567D1*
X1961302Y1400278D1*
X1954591Y1408138D1*
X1949190Y1416950D1*
X1945235Y1426497D1*
X1942823Y1436547D1*
X1942012Y1446850D1*
X1942298Y1452720D1*
X1903087Y1413521D1*
X1902966Y1198199D1*
X1902155Y1193087D1*
X1900556Y1188163D1*
X1898206Y1183551D1*
X1895163Y1179364D1*
X1847934Y1131991D1*
X1725891Y1009948D1*
X1725902Y919163D1*
X1765643Y879434D1*
X2269814Y879445D1*
X2478340Y1087840D1*
X2482528Y1090883D1*
X2487139Y1093234D1*
X2492063Y1094833D1*
X2497176Y1095643D1*
X2564068Y1095744D1*
X2758492Y1095643D1*
X2763605Y1094833D1*
X2768529Y1093234D1*
X2773140Y1090883D1*
X2777328Y1087840D1*
X2818028Y1047285D1*
X2818169Y1053214D1*
X2819543Y1061896D1*
X2822260Y1070257D1*
X2826251Y1078089D1*
X2831419Y1085201D1*
X2837634Y1091416D1*
X2844745Y1096584D1*
X2848584Y1098906D1*
X2841088Y1103497D1*
X2834404Y1109207D1*
X2828694Y1115891D1*
X2824102Y1123387D1*
X2820738Y1131508D1*
X2818686Y1140055D1*
X2817996Y1148819D1*
X2818686Y1157583D1*
X2820738Y1166130D1*
X2824102Y1174251D1*
X2828694Y1181747D1*
X2834404Y1188430D1*
X2841088Y1194140D1*
X2848755Y1198812D1*
X2841088Y1203497D1*
X2834404Y1209207D1*
X2832596Y1211163D1*
X2777329Y1156018D1*
X2773142Y1152975D1*
X2768530Y1150625D1*
X2763606Y1149026D1*
X2758493Y1148215D1*
X2691601Y1148114D1*
X2336312D1*
X2338412Y1143665D1*
X2341152Y1135235D1*
X2342538Y1126479D1*
Y1117615D1*
X2341152Y1108860D1*
X2338412Y1100429D1*
X2334388Y1092530D1*
X2329177Y1085358D1*
X2322909Y1079091D1*
X2315738Y1073879D1*
X2307839Y1069856D1*
X2299408Y1067115D1*
X2290652Y1065730D1*
X2281789D1*
X2273033Y1067115D1*
X2264602Y1069856D1*
X2256703Y1073879D1*
X2249531Y1079091D1*
X2243264Y1085358D1*
X2238052Y1092530D1*
X2234029Y1100429D1*
X2231289Y1108860D1*
X2229903Y1117615D1*
X2229803Y1120160D1*
X2186777Y1077278D1*
X2182589Y1074235D1*
X2177978Y1071885D1*
X2173054Y1070285D1*
X2167941Y1069475D1*
X2119386Y1069374D1*
X2113941Y1064749D1*
X2107722Y1060937D1*
X2100982Y1058146D1*
X2093887Y1056442D1*
X2086614Y1055870D1*
X2079341Y1056442D1*
X2072247Y1058146D1*
X2065507Y1060937D1*
X2059287Y1064749D1*
X2053739Y1069487D1*
X2049001Y1075035D1*
X2045189Y1081255D1*
X2042398Y1087995D1*
X2040694Y1095089D1*
X2040122Y1102362D1*
X2040694Y1109635D1*
X2042398Y1116730D1*
X2045189Y1123470D1*
X2049001Y1129689D1*
X2053739Y1135238D1*
X2059287Y1139975D1*
X2064201Y1143055D1*
X2058501Y1145612D1*
X2050215Y1150689D1*
X2042827Y1157000D1*
X2036516Y1164388D1*
X2031438Y1172675D1*
X2027719Y1181651D1*
X2025451Y1191100D1*
X2024689Y1200787D1*
X2025451Y1210475D1*
X2027719Y1219924D1*
X2031438Y1228900D1*
X2036516Y1237186D1*
X2042827Y1244575D1*
X2050215Y1250886D1*
X2058501Y1255963D1*
X2067478Y1259682D1*
X2076927Y1261950D1*
X2086614Y1262713D1*
X2096302Y1261950D1*
X2105751Y1259682D1*
X2114727Y1255963D1*
X2123013Y1250886D1*
X2130402Y1244575D1*
X2136713Y1237186D1*
X2141790Y1228900D1*
X2145509Y1219924D1*
X2147777Y1210475D1*
X2148539Y1200787D1*
X2147777Y1191100D1*
X2145509Y1181651D1*
X2141790Y1172675D1*
X2136713Y1164388D1*
X2130402Y1157000D1*
X2123013Y1150689D1*
X2114727Y1145612D1*
X2109010Y1143096D1*
X2113941Y1139975D1*
X2119374Y1135344D1*
X2151672Y1135350D1*
X2222669Y1206186D1*
X2226857Y1209230D1*
X2231469Y1211580D1*
X2236402Y1213181D1*
X1482982Y949556D2*
X1481365Y939349D1*
X1478172Y929520D1*
X1473479Y920311D1*
X1467404Y911950D1*
X1460097Y904643D1*
X1451736Y898568D1*
X1442528Y893875D1*
X1432698Y890682D1*
X1422491Y889066D1*
X1412155D1*
X1401948Y890682D1*
X1392118Y893875D1*
X1382909Y898568D1*
X1374549Y904643D1*
X1367241Y911950D1*
X1361167Y920311D1*
X1356474Y929520D1*
X1353281Y939349D1*
X1351664Y949556D1*
Y959892D1*
X1353281Y970100D1*
X1356474Y979929D1*
X1361167Y989138D1*
X1367241Y997499D1*
X1374549Y1004806D1*
X1382909Y1010881D1*
X1392118Y1015573D1*
X1401948Y1018766D1*
X1412155Y1020383D1*
X1422491D1*
X1432698Y1018766D1*
X1442528Y1015573D1*
X1451736Y1010881D1*
X1460097Y1004806D1*
X1467404Y997499D1*
X1473479Y989138D1*
X1478172Y979929D1*
X1481365Y970100D1*
X1482982Y959892D1*
Y949556D1*
X2073533D2*
X2071916Y939349D1*
X2068723Y929520D1*
X2064030Y920311D1*
X2057955Y911950D1*
X2050648Y904643D1*
X2042287Y898568D1*
X2033079Y893875D1*
X2023249Y890682D1*
X2013042Y889066D1*
X2002706D1*
X1992499Y890682D1*
X1982669Y893875D1*
X1973461Y898568D1*
X1965100Y904643D1*
X1957793Y911950D1*
X1951718Y920311D1*
X1947025Y929520D1*
X1943832Y939349D1*
X1942215Y949556D1*
Y959892D1*
X1943832Y970100D1*
X1947025Y979929D1*
X1951718Y989138D1*
X1957793Y997499D1*
X1965100Y1004806D1*
X1973461Y1010881D1*
X1982669Y1015573D1*
X1992499Y1018766D1*
X2002706Y1020383D1*
X2013042D1*
X2023249Y1018766D1*
X2033079Y1015573D1*
X2042287Y1010881D1*
X2050648Y1004806D1*
X2057955Y997499D1*
X2064030Y989138D1*
X2068723Y979929D1*
X2071916Y970100D1*
X2073533Y959892D1*
Y949556D1*
X3260601Y669448D2*
X3261167Y676564D1*
X3262870Y683659D1*
X3265661Y690399D1*
X3269474Y696618D1*
X3274211Y702167D1*
X3279760Y706904D1*
X3285979Y710717D1*
X3292719Y713508D1*
X3298961Y715042D1*
X3241997Y715043D1*
X3200558Y673734D1*
X3196370Y670690D1*
X3191759Y668340D1*
X3186835Y666740D1*
X3181722Y665930D1*
X3114829Y665829D1*
X2927407D1*
X2929345Y657583D1*
X2930035Y648819D1*
X2929345Y640055D1*
X2927382Y631822D1*
X3222929Y631806D1*
X3260609Y669466D1*
X755010Y2201076D2*
X753869Y2193871D1*
X751614Y2186933D1*
X748302Y2180432D1*
X744014Y2174530D1*
X738856Y2169371D1*
X732954Y2165084D1*
X726453Y2161772D1*
X719514Y2159517D1*
X712310Y2158375D1*
X705013D1*
X697808Y2159517D1*
X690870Y2161772D1*
X684369Y2165084D1*
X678467Y2169371D1*
X673308Y2174530D1*
X669021Y2180432D1*
X665709Y2186933D1*
X663454Y2193871D1*
X662312Y2201076D1*
X662186Y2205167D1*
X659584Y2209433D1*
X657602Y2214215D1*
X656394Y2219249D1*
X655988Y2224420D1*
X656089Y3018448D1*
X656899Y3023560D1*
X658499Y3028484D1*
X660849Y3033096D1*
X663892Y3037283D1*
X711121Y3084656D1*
X726608Y3099999D1*
X730795Y3103042D1*
X735407Y3105392D1*
X740331Y3106992D1*
X745444Y3107802D1*
X812336Y3107903D1*
X2097887D1*
X2104877Y3112291D1*
X2111617Y3115083D1*
X2118711Y3116786D1*
X2125984Y3117358D1*
X2133257Y3116786D1*
X2140352Y3115083D1*
X2147092Y3112291D1*
X2153311Y3108479D1*
X2158860Y3103741D1*
X2163597Y3098193D1*
X2167409Y3091974D1*
X2170201Y3085234D1*
X2171904Y3078139D1*
X2172476Y3070866D1*
X2171904Y3063593D1*
X2170201Y3056499D1*
X2167409Y3049759D1*
X2163597Y3043539D1*
X2158860Y3037991D1*
X2153311Y3033253D1*
X2147092Y3029441D1*
X2140352Y3026650D1*
X2133257Y3024946D1*
X2125984Y3024374D1*
X2118711Y3024946D1*
X2111617Y3026650D1*
X2104877Y3029441D1*
X2098657Y3033253D1*
X2093109Y3037991D1*
X2089634Y3041937D1*
X761673Y3041927D1*
X721954Y3002185D1*
X721965Y2249265D1*
X726453Y2247677D1*
X732954Y2244365D1*
X738856Y2240077D1*
X744014Y2234919D1*
X748302Y2229017D1*
X751614Y2222516D1*
X753869Y2215577D1*
X755010Y2208373D1*
Y2201076D1*
X1843783Y2722924D2*
X1838350Y2718293D1*
X1832131Y2714480D1*
X1825391Y2711689D1*
X1818297Y2709986D1*
X1811024Y2709413D1*
X1803751Y2709986D1*
X1796656Y2711689D1*
X1789916Y2714480D1*
X1783697Y2718293D1*
X1778148Y2723030D1*
X1773411Y2728579D1*
X1769598Y2734798D1*
X1766807Y2741538D1*
X1765104Y2748633D1*
X1764531Y2755906D1*
X1765104Y2763178D1*
X1766807Y2770273D1*
X1769598Y2777013D1*
X1773411Y2783232D1*
X1778148Y2788781D1*
X1783697Y2793518D1*
X1789916Y2797331D1*
X1796656Y2800122D1*
X1803751Y2801825D1*
X1811024Y2802398D1*
X1818297Y2801825D1*
X1825391Y2800122D1*
X1832131Y2797331D1*
X1838350Y2793518D1*
X1843783Y2788887D1*
X3038084Y2788894D1*
X3043539Y2793518D1*
X3049759Y2797331D1*
X3056499Y2800122D1*
X3063593Y2801825D1*
X3070866Y2802398D1*
X3078139Y2801825D1*
X3085234Y2800122D1*
X3091974Y2797331D1*
X3098193Y2793518D1*
X3103741Y2788781D1*
X3108479Y2783232D1*
X3112291Y2777013D1*
X3115083Y2770273D1*
X3116786Y2763178D1*
X3117358Y2755906D1*
X3116786Y2748633D1*
X3115083Y2741538D1*
X3112291Y2734798D1*
X3108479Y2728579D1*
X3103741Y2723030D1*
X3098193Y2718293D1*
X3091974Y2714480D1*
X3085234Y2711689D1*
X3078139Y2709986D1*
X3070866Y2709413D1*
X3063593Y2709986D1*
X3056499Y2711689D1*
X3049759Y2714480D1*
X3043539Y2718293D1*
X3038106Y2722924D1*
X1843806Y2722917D1*
X2929693Y1342714D2*
X2934493Y1340638D1*
X2940713Y1336825D1*
X2946261Y1332088D1*
X2950999Y1326539D1*
X2954811Y1320320D1*
X2957602Y1313580D1*
X2959306Y1306486D1*
X2959871Y1299369D1*
X3017210Y1241896D1*
X3020253Y1237709D1*
X3022604Y1233097D1*
X3024202Y1228173D1*
X3025013Y1223060D1*
X3025114Y1156168D1*
Y1056374D1*
X3029739Y1050949D1*
X3033551Y1044730D1*
X3036343Y1037990D1*
X3038046Y1030895D1*
X3038618Y1023622D1*
X3038046Y1016349D1*
X3036343Y1009255D1*
X3033551Y1002514D1*
X3029739Y996295D1*
X3025001Y990747D1*
X3019453Y986009D1*
X3013234Y982197D1*
X3012391Y981810D1*
X3428715Y981807D1*
X3434404Y988430D1*
X3441088Y994140D1*
X3448755Y998812D1*
X3441088Y1003497D1*
X3434404Y1009207D1*
X3428748Y1015824D1*
X3398592Y1015932D1*
X3393479Y1016743D1*
X3388555Y1018341D1*
X3383944Y1020692D1*
X3379756Y1023735D1*
X3332383Y1070963D1*
X3037513Y1365833D1*
X2927416Y1365829D1*
X2929345Y1357583D1*
X2930035Y1348819D1*
X2929667Y1342769D1*
X2946000Y1029154D2*
X2946919Y1034475D1*
X2949173Y1041413D1*
X2952486Y1047915D1*
X2956773Y1053816D1*
X2959144Y1056382D1*
X2959138Y1206811D1*
X2928785Y1237161D1*
X2927294Y1231508D1*
X2923929Y1223387D1*
X2919337Y1215891D1*
X2913627Y1209207D1*
X2906944Y1203497D1*
X2899277Y1198825D1*
X2906944Y1194140D1*
X2913627Y1188430D1*
X2919337Y1181747D1*
X2923929Y1174251D1*
X2927294Y1166130D1*
X2929345Y1157583D1*
X2930035Y1148819D1*
X2929345Y1140055D1*
X2927294Y1131508D1*
X2923929Y1123387D1*
X2919337Y1115891D1*
X2913627Y1109207D1*
X2906944Y1103497D1*
X2899277Y1098825D1*
X2906944Y1094140D1*
X2913627Y1088430D1*
X2919337Y1081747D1*
X2923929Y1074251D1*
X2927294Y1066130D1*
X2929345Y1057583D1*
X2930035Y1048819D1*
X2929345Y1040055D1*
X2927382Y1031822D1*
X2935659Y1031705D1*
X2940772Y1030895D1*
X2945705Y1029290D1*
X3117215Y2949108D2*
X3116073Y2941903D1*
X3113819Y2934965D1*
X3110507Y2928463D1*
X3106219Y2922562D1*
X3101060Y2917403D1*
X3095159Y2913115D1*
X3088657Y2909803D1*
X3081719Y2907549D1*
X3074514Y2906407D1*
X3067218D1*
X3060013Y2907549D1*
X3053075Y2909803D1*
X3046573Y2913115D1*
X3040672Y2917403D1*
X3038106Y2919774D1*
X1056364Y2919768D1*
X1050949Y2915143D1*
X1044730Y2911331D1*
X1037990Y2908539D1*
X1030895Y2906836D1*
X1023622Y2906264D1*
X1016349Y2906836D1*
X1009255Y2908539D1*
X1002514Y2911331D1*
X996295Y2915143D1*
X990747Y2919881D1*
X986009Y2925429D1*
X982197Y2931648D1*
X979406Y2938388D1*
X977702Y2945483D1*
X977130Y2952756D1*
X977702Y2960029D1*
X979406Y2967123D1*
X982197Y2973864D1*
X986009Y2980083D1*
X990747Y2985631D1*
X996295Y2990369D1*
X1002514Y2994181D1*
X1009255Y2996972D1*
X1016349Y2998676D1*
X1023622Y2999248D1*
X1030895Y2998676D1*
X1037990Y2996972D1*
X1044730Y2994181D1*
X1050949Y2990369D1*
X1056382Y2985738D1*
X3038125Y2985744D1*
X3043539Y2990369D1*
X3049759Y2994181D1*
X3056499Y2996972D1*
X3063593Y2998676D1*
X3070866Y2999248D1*
X3078139Y2998676D1*
X3085234Y2996972D1*
X3091974Y2994181D1*
X3098193Y2990369D1*
X3103741Y2985631D1*
X3108479Y2980083D1*
X3112291Y2973864D1*
X3115083Y2967123D1*
X3116786Y2960029D1*
X3117358Y2952756D1*
X3117215Y2949108D1*
X3038475Y3382178D2*
X3037333Y3374974D1*
X3035079Y3368035D1*
X3031766Y3361534D1*
X3027479Y3355633D1*
X3022320Y3350474D1*
X3016419Y3346186D1*
X3009917Y3342874D1*
X3002979Y3340619D1*
X2995774Y3339478D1*
X2988478D1*
X2981273Y3340619D1*
X2974335Y3342874D1*
X2967833Y3346186D1*
X2961932Y3350474D1*
X2959366Y3352845D1*
X1253214Y3352839D1*
X1247799Y3348214D1*
X1241580Y3344402D1*
X1234840Y3341610D1*
X1227745Y3339907D1*
X1220472Y3339335D1*
X1213199Y3339907D1*
X1206105Y3341610D1*
X1199365Y3344402D1*
X1193146Y3348214D1*
X1187597Y3352951D1*
X1182860Y3358500D1*
X1179047Y3364719D1*
X1176256Y3371459D1*
X1174552Y3378554D1*
X1173980Y3385827D1*
X1174552Y3393100D1*
X1176256Y3400194D1*
X1179047Y3406934D1*
X1182860Y3413154D1*
X1187597Y3418702D1*
X1193146Y3423440D1*
X1199365Y3427252D1*
X1206105Y3430043D1*
X1213199Y3431747D1*
X1220472Y3432319D1*
X1227745Y3431747D1*
X1234840Y3430043D1*
X1241580Y3427252D1*
X1247799Y3423440D1*
X1253232Y3418808D1*
X2959385Y3418815D1*
X2964799Y3423440D1*
X2971018Y3427252D1*
X2977759Y3430043D1*
X2984853Y3431747D1*
X2992126Y3432319D1*
X2999399Y3431747D1*
X3006493Y3430043D1*
X3013234Y3427252D1*
X3019453Y3423440D1*
X3025001Y3418702D1*
X3029739Y3413154D1*
X3033551Y3406934D1*
X3036343Y3400194D1*
X3038046Y3393100D1*
X3038618Y3385827D1*
X3038475Y3382178D1*
X2604446Y1581811D2*
X2600182Y1586846D1*
X2596370Y1593066D1*
X2593579Y1599806D1*
X2591875Y1606900D1*
X2591303Y1614173D1*
X2591875Y1621446D1*
X2593579Y1628541D1*
X2594176Y1630159D1*
X2589075Y1626832D1*
X2551188Y1589089D1*
X2547000Y1586046D1*
X2542388Y1583696D1*
X2537455Y1582094D1*
X2537794Y1581807D1*
X2604430D1*
X3307243Y1936249D2*
X3314360Y1935684D1*
X3321454Y1933980D1*
X3328194Y1931189D1*
X3334413Y1927377D1*
X3339962Y1922639D1*
X3344699Y1917091D1*
X3346450Y1914471D1*
X3350474Y1919958D1*
X3352845Y1922524D1*
X3352839Y1954822D1*
X3076866Y2230812D1*
X3012360Y2230791D1*
X3021948Y2221555D1*
X3307227Y1936276D1*
X2802255Y1689265D2*
X2801113Y1682060D1*
X2798858Y1675122D1*
X2795546Y1668621D1*
X2791259Y1662719D1*
X2786100Y1657560D1*
X2780198Y1653273D1*
X2773697Y1649961D1*
X2766759Y1647706D1*
X2759554Y1646564D1*
X2756062Y1646428D1*
X2747566Y1638066D1*
X2743378Y1635022D1*
X2738756Y1632669D1*
X2745014Y1631806D1*
X3026605Y1631705D1*
X3031718Y1630895D1*
X3036642Y1629295D1*
X3041253Y1626945D1*
X3045441Y1623902D1*
X3092814Y1576673D1*
X3418083Y1251406D1*
X3418686Y1257583D1*
X3420738Y1266130D1*
X3424102Y1274251D1*
X3428694Y1281747D1*
X3434404Y1288430D1*
X3441088Y1294140D1*
X3448755Y1298812D1*
X3441088Y1303497D1*
X3434404Y1309207D1*
X3428694Y1315891D1*
X3424102Y1323387D1*
X3420738Y1331508D1*
X3418686Y1340055D1*
X3417996Y1348819D1*
X3418686Y1357583D1*
X3420738Y1366130D1*
X3424102Y1374251D1*
X3428694Y1381747D1*
X3434404Y1388430D1*
X3441088Y1394140D1*
X3448755Y1398812D1*
X3441088Y1403497D1*
X3434404Y1409207D1*
X3428694Y1415891D1*
X3424102Y1423387D1*
X3420738Y1431508D1*
X3418686Y1440055D1*
X3417996Y1448819D1*
X3418686Y1457583D1*
X3420738Y1466130D1*
X3424102Y1474251D1*
X3428694Y1481747D1*
X3434404Y1488430D1*
X3441088Y1494140D1*
X3448755Y1498812D1*
X3441088Y1503497D1*
X3434404Y1509207D1*
X3428694Y1515891D1*
X3424102Y1523387D1*
X3420738Y1531508D1*
X3418686Y1540055D1*
X3417996Y1548819D1*
X3418686Y1557583D1*
X3420738Y1566130D1*
X3424102Y1574251D1*
X3428694Y1581747D1*
X3434404Y1588430D1*
X3441088Y1594140D1*
X3448755Y1598812D1*
X3441088Y1603497D1*
X3434404Y1609207D1*
X3428694Y1615891D1*
X3424102Y1623387D1*
X3420738Y1631508D1*
X3418686Y1640055D1*
X3417996Y1648819D1*
X3418686Y1657583D1*
X3420738Y1666130D1*
X3424102Y1674251D1*
X3428694Y1681747D1*
X3434404Y1688430D1*
X3441088Y1694140D1*
X3448755Y1698812D1*
X3441088Y1703497D1*
X3434404Y1709207D1*
X3428748Y1715824D1*
X2919282Y1715831D1*
X2913627Y1709207D1*
X2906944Y1703497D1*
X2899448Y1698906D1*
X2891327Y1695541D1*
X2882780Y1693490D1*
X2874016Y1692799D1*
X2865252Y1693490D1*
X2856705Y1695541D1*
X2848584Y1698906D1*
X2841088Y1703497D1*
X2834404Y1709207D1*
X2828694Y1715891D1*
X2824102Y1723387D1*
X2820738Y1731508D1*
X2818686Y1740055D1*
X2817996Y1748819D1*
X2818686Y1757583D1*
X2820738Y1766130D1*
X2824102Y1774251D1*
X2828694Y1781747D1*
X2834404Y1788430D1*
X2841088Y1794140D1*
X2848755Y1798812D1*
X2841088Y1803497D1*
X2834404Y1809207D1*
X2828694Y1815891D1*
X2824102Y1823387D1*
X2821778Y1828686D1*
X2723436Y1730327D1*
X2725711Y1728266D1*
X2731613Y1732554D1*
X2738114Y1735866D1*
X2745052Y1738121D1*
X2752257Y1739262D1*
X2759554D1*
X2766759Y1738121D1*
X2773697Y1735866D1*
X2780198Y1732554D1*
X2786100Y1728266D1*
X2791259Y1723108D1*
X2795546Y1717206D1*
X2798858Y1710705D1*
X2801113Y1703766D1*
X2802255Y1696562D1*
Y1689265D1*
X2929862Y1544424D2*
X2928488Y1535741D1*
X2925772Y1527381D1*
X2921781Y1519549D1*
X2916613Y1512437D1*
X2910398Y1506222D1*
X2903286Y1501054D1*
X2899448Y1498732D1*
X2906944Y1494140D1*
X2913627Y1488430D1*
X2919337Y1481747D1*
X2923929Y1474251D1*
X2927294Y1466130D1*
X2929345Y1457583D1*
X2930035Y1448819D1*
X2929345Y1440055D1*
X2927382Y1431822D1*
X3053769Y1431705D1*
X3058882Y1430894D1*
X3063806Y1429295D1*
X3068417Y1426945D1*
X3072605Y1423902D1*
X3119978Y1376673D1*
X3414848Y1081803D1*
X3428774Y1081807D1*
X3434404Y1088430D1*
X3441088Y1094140D1*
X3448755Y1098812D1*
X3441088Y1103497D1*
X3434404Y1109207D1*
X3428694Y1115891D1*
X3424102Y1123387D1*
X3420738Y1131508D1*
X3418686Y1140055D1*
X3417996Y1148819D1*
X3418676Y1157497D1*
X3010375Y1565807D1*
X2927381Y1565829D1*
X2929345Y1557583D1*
X2930035Y1548819D1*
X2929862Y1544424D1*
Y844424D2*
X2928488Y835741D1*
X2927382Y831822D1*
X3408100Y831705D1*
X3413213Y830894D1*
X3418136Y829295D1*
X3422260Y827381D1*
X3419543Y835741D1*
X3418169Y844424D1*
Y853214D1*
X3418676Y857497D1*
X3410370Y865812D1*
X2927416Y865829D1*
X2929345Y857583D1*
X2930035Y848819D1*
X2929862Y844424D1*
X2820650Y831822D2*
X2818686Y840055D1*
X2817996Y848819D1*
X2818686Y857583D1*
X2820155Y864063D1*
X2718268Y762311D1*
X2725722Y761335D1*
X2730853D1*
X2793535Y823902D1*
X2797723Y826945D1*
X2802335Y829295D1*
X2807259Y830894D1*
X2812371Y831705D1*
X2814970Y831806D1*
X2929862Y744424D2*
X2928488Y735741D1*
X2927382Y731822D1*
X3165440Y731806D1*
X3199476Y765812D1*
X2927356Y765829D1*
X2929345Y757583D1*
X2930035Y748819D1*
X2929862Y744424D1*
X3530783Y3609547D2*
X406203D1*
X406201Y406214D1*
X3530804Y406201D1*
X3530807Y3609534D1*
D16*
X2412205Y1721654D3*
D17*
X2312205D3*
D16*
X2668110D3*
D17*
X2568110D3*
D18*
X708661Y3503937D3*
D19*
X808661D3*
X908661D3*
X1008661D3*
X1108661D3*
X1208661D3*
X1308661D3*
X1408661D3*
X1508661D3*
X1608661D3*
X1708661D3*
X1808661D3*
X1908661D3*
X2008661D3*
X2108661D3*
X2208661D3*
D20*
X531496Y570866D3*
D21*
X728346D3*
X925197D3*
X1122047D3*
X1318898D3*
X1515748D3*
X1712598D3*
X1909449D3*
X2106299D3*
X2303150D3*
X2500000D3*
X2696850D3*
D17*
X2874016Y1948819D3*
D16*
Y1848819D3*
Y1748819D3*
Y1648819D3*
Y1548819D3*
Y1448819D3*
Y1348819D3*
Y1248819D3*
Y1148819D3*
Y1048819D3*
Y948819D3*
Y848819D3*
Y748819D3*
Y648819D3*
Y548819D3*
X3474016D3*
Y648819D3*
Y748819D3*
Y848819D3*
Y948819D3*
Y1048819D3*
Y1148819D3*
Y1248819D3*
Y1348819D3*
Y1448819D3*
Y1548819D3*
Y1648819D3*
Y1748819D3*
Y1848819D3*
Y1948819D3*
D22*
X643701Y1614173D3*
D23*
X742126Y1811024D3*
X840551Y1614173D3*
D24*
X542126Y1358268D3*
D25*
X942126D3*
D24*
X542126Y1240157D3*
D25*
X942126D3*
D24*
X542126Y1122047D3*
D25*
X942126D3*
D24*
X2286220Y1476378D3*
D25*
X2686220D3*
D24*
X2286220Y1358268D3*
D25*
X2686220D3*
D24*
Y1240157D3*
D25*
X2286220D3*
D24*
X2686220Y1122047D3*
D25*
X2286220D3*
D26*
X1220472Y1564961D3*
D27*
Y2057087D3*
X1417323Y1564961D3*
Y2057087D3*
D26*
X1811024Y1564961D3*
D27*
Y2057087D3*
X2007874Y1564961D3*
Y2057087D3*
D26*
X1220472Y954724D3*
D27*
Y1446850D3*
X1417323Y954724D3*
Y1446850D3*
D26*
X1811024Y954724D3*
D27*
Y1446850D3*
X2007874Y954724D3*
Y1446850D3*
M02*
