M48
INCH
T01C0.0191
T02C0.035
T03C0.0354
T04C0.038
T05C0.0394
T06C0.0472
T07C0.0512
T08C0.0709
T09C0.0787
T10C0.1181
%
T01
X+033071Y+006693
X+033858Y+006693
X+033465Y+007480
X+029921Y+010236
X+029134Y+012992
X+025197Y+014173
X+026378Y+016142
X+027559Y+016929
X+024803Y+016929
X+023622Y+016142
X+022835Y+016142
X+020866Y+011024
X+024016Y+006299
X+032283Y+018898
X+033071Y+018898
X+033858Y+018898
X+030709Y+027559
X+030709Y+029528
X+029921Y+033858
X+029528Y+035039
X+021260Y+030709
X+018110Y+027559
X+018898Y+021260
X+015748Y+019685
X+007087Y+022047
X+010236Y+029528
X+012205Y+033858
T02
X+024122Y+017217
X+023122Y+017217
X+025681Y+017217
X+026681Y+017217
T03
X+028740Y+019488
X+028740Y+018488
X+028740Y+017488
X+028740Y+016488
X+028740Y+015488
X+028740Y+014488
X+028740Y+013488
X+028740Y+012488
X+028740Y+011488
X+028740Y+010488
X+028740Y+009488
X+028740Y+008488
X+028740Y+007488
X+028740Y+006488
X+028740Y+005488
X+034740Y+005488
X+034740Y+006488
X+034740Y+007488
X+034740Y+008488
X+034740Y+009488
X+034740Y+010488
X+034740Y+011488
X+034740Y+012488
X+034740Y+013488
X+034740Y+014488
X+034740Y+015488
X+034740Y+016488
X+034740Y+017488
X+034740Y+018488
X+034740Y+019488
T04
X+005421Y+013583
X+005421Y+012402
X+005421Y+011220
X+009421Y+011220
X+009421Y+012402
X+009421Y+013583
X+022862Y+013583
X+022862Y+014764
X+022862Y+012402
X+022862Y+011220
X+026862Y+011220
X+026862Y+012402
X+026862Y+013583
X+026862Y+014764
T05
X+007087Y+035039
X+008087Y+035039
X+009087Y+035039
X+010087Y+035039
X+011087Y+035039
X+012087Y+035039
X+013087Y+035039
X+014087Y+035039
X+015087Y+035039
X+016087Y+035039
X+017087Y+035039
X+018087Y+035039
X+019087Y+035039
X+020087Y+035039
X+021087Y+035039
X+022087Y+035039
X+007421Y+018110
X+006437Y+016142
X+008406Y+016142
T06
X+012205Y+015650
X+012205Y+014469
X+014173Y+014469
X+014173Y+015650
X+018110Y+015650
X+018110Y+014469
X+020079Y+014469
X+020079Y+015650
X+020079Y+020571
X+018110Y+020571
X+014173Y+020571
X+012205Y+020571
X+012205Y+009547
X+014173Y+009547
X+018110Y+009547
X+020079Y+009547
T07
X+005315Y+005709
X+007283Y+005709
X+009252Y+005709
X+011220Y+005709
X+013189Y+005709
X+015157Y+005709
X+017126Y+005709
X+019094Y+005709
X+021063Y+005709
X+023031Y+005709
X+025000Y+005709
X+026969Y+005709
T08
X+011417Y+018110
X+014961Y+018110
X+017323Y+018110
X+020866Y+018110
X+020866Y+012008
X+017323Y+012008
X+014961Y+012008
X+011417Y+012008
T09
X+004921Y+022835
X+004921Y+035039
X+034449Y+035039
X+034449Y+022835
T10
X+006299Y+020276
X+006299Y+009252
X+025984Y+009252
X+025984Y+020276
T00
M30
