G04 DipTrace 3.2.0.1*
G04 TopSilk.gbr*
%MOIN*%
G04 #@! TF.FileFunction,Legend,Top*
G04 #@! TF.Part,Single*
%ADD10C,0.009843*%
%ADD13C,0.002625*%
%ADD63C,0.00772*%
%FSLAX26Y26*%
G04*
G70*
G90*
G75*
G01*
G04 TopSilk*
%LPD*%
X2321646Y1769654D2*
D10*
G02X2403877Y1768520I40474J-47136D01*
G01*
X2321646Y1673654D2*
G03X2403877Y1674787I40474J47136D01*
G01*
X2577551Y1769654D2*
G02X2659783Y1768520I40474J-47136D01*
G01*
X2577551Y1673654D2*
G03X2659783Y1674787I40474J47136D01*
G01*
X397638Y3598425D2*
X3539370D1*
Y2188976D1*
X397638D1*
Y3598425D1*
X409449Y413386D2*
X2795276D1*
Y767717D1*
X409449D1*
Y413386D1*
G36*
X1500010Y448110D2*
X1531742D1*
Y416610D1*
X1500010D1*
Y448110D1*
G37*
G36*
X1697080D2*
X1728334D1*
Y416610D1*
X1697080D1*
Y448110D1*
G37*
G36*
X1893672D2*
X1925165D1*
Y416610D1*
X1893672D1*
Y448110D1*
G37*
G36*
X2090502Y452043D2*
X2122234D1*
Y416610D1*
X2090502D1*
Y452043D1*
G37*
G36*
X2287572Y448110D2*
X2318826D1*
Y416610D1*
X2287572D1*
Y448110D1*
G37*
G36*
X515857D2*
X547350D1*
Y416610D1*
X515857D1*
Y448110D1*
G37*
G36*
X2484164D2*
X2515657D1*
Y416610D1*
X2484164D1*
Y448110D1*
G37*
G36*
X712687D2*
X743942D1*
Y416610D1*
X712687D1*
Y448110D1*
G37*
G36*
X2677177D2*
X2712726D1*
Y416610D1*
X2677177D1*
Y448110D1*
G37*
G36*
X1303180D2*
X1334672D1*
Y416610D1*
X1303180D1*
Y448110D1*
G37*
G36*
X909280D2*
X940772D1*
Y416610D1*
X909280D1*
Y448110D1*
G37*
G36*
X1106349D2*
X1137842D1*
Y416610D1*
X1106349D1*
Y448110D1*
G37*
X769688Y1846457D2*
D10*
X816929D1*
X667323D2*
X710623D1*
X608071Y1783465D2*
Y1661417D1*
X876181Y1783465D2*
Y1653543D1*
X608071Y1531496D2*
Y1566929D1*
X876181Y1531496D2*
Y1578740D1*
Y1531496D2*
X608071D1*
X608259Y1783465D2*
X667323Y1846457D1*
X875993Y1783465D2*
X816929Y1846457D1*
X841946Y1308268D2*
X642306D1*
Y1408268D2*
Y1308268D1*
X841946Y1408268D2*
X642306D1*
X841946D2*
Y1308268D1*
Y1190157D2*
X642306D1*
Y1290157D2*
Y1190157D1*
X841946Y1290157D2*
X642306D1*
X841946D2*
Y1190157D1*
Y1072047D2*
X642306D1*
Y1172047D2*
Y1072047D1*
X841946Y1172047D2*
X642306D1*
X841946D2*
Y1072047D1*
X2586040Y1426378D2*
X2386400D1*
Y1526378D2*
Y1426378D1*
X2586040Y1526378D2*
X2386400D1*
X2586040D2*
Y1426378D1*
Y1308268D2*
X2386400D1*
Y1408268D2*
Y1308268D1*
X2586040Y1408268D2*
X2386400D1*
X2586040D2*
Y1308268D1*
X2386400Y1290157D2*
X2586040D1*
Y1190157D2*
Y1290157D1*
X2386400Y1190157D2*
X2586040D1*
X2386400D2*
Y1290157D1*
Y1172047D2*
X2586040D1*
Y1072047D2*
Y1172047D1*
X2386400Y1072047D2*
X2586040D1*
X2386400D2*
Y1172047D1*
X1179150Y1811024D2*
G02X1179150Y1811024I139748J0D01*
G01*
X1468520Y1574799D2*
X1555118D1*
Y2047248D1*
X1468520D1*
X1169276Y1574799D2*
X1082677D1*
Y2047248D1*
X1169276D1*
X1366142Y1574799D2*
X1271654D1*
Y2047248D2*
X1366142D1*
X1769701Y1811024D2*
G02X1769701Y1811024I139748J0D01*
G01*
X2059071Y1574799D2*
X2145669D1*
Y2047248D1*
X2059071D1*
X1759827Y1574799D2*
X1673228D1*
Y2047248D1*
X1759827D1*
X1956693Y1574799D2*
X1862205D1*
Y2047248D2*
X1956693D1*
X1179150Y1200787D2*
G02X1179150Y1200787I139748J0D01*
G01*
X1468520Y964563D2*
X1555118D1*
Y1437012D1*
X1468520D1*
X1169276Y964563D2*
X1082677D1*
Y1437012D1*
X1169276D1*
X1366142Y964563D2*
X1271654D1*
Y1437012D2*
X1366142D1*
X1769701Y1200787D2*
G02X1769701Y1200787I139748J0D01*
G01*
X2059071Y964563D2*
X2145669D1*
Y1437012D1*
X2059071D1*
X1759827Y964563D2*
X1673228D1*
Y1437012D1*
X1759827D1*
X1956693Y964563D2*
X1862205D1*
Y1437012D2*
X1956693D1*
X2824016Y2098819D2*
X3524016D1*
Y398878D1*
X2824016D1*
Y2098819D1*
X510499Y855643D2*
D13*
X513123D1*
X509186Y854331D2*
X513123D1*
X507874Y853018D2*
X513123D1*
X506557Y851706D2*
X513123D1*
X505198Y850394D2*
X513123D1*
X503724Y849081D2*
X513123D1*
X502148Y847769D2*
X513123D1*
X500718Y846457D2*
X513123D1*
X499544Y845144D2*
X505008D1*
X507874D2*
X513123D1*
X499062Y843832D2*
X503235D1*
X507874D2*
X513123D1*
X498688Y842520D2*
X501312D1*
X507874D2*
X513123D1*
X507874Y841207D2*
X513123D1*
X507874Y839895D2*
X513123D1*
X507874Y838583D2*
X513123D1*
X507874Y837270D2*
X513123D1*
X507874Y835958D2*
X513123D1*
X507874Y834646D2*
X513123D1*
X507874Y833333D2*
X513123D1*
X507874Y832021D2*
X513123D1*
X507874Y830709D2*
X513123D1*
X507874Y829396D2*
X513123D1*
X507874Y828084D2*
X513123D1*
X507874Y826772D2*
X513123D1*
X507874Y825459D2*
X513123D1*
X507874Y824147D2*
X513123D1*
X507874Y822835D2*
X513123D1*
X507874Y821522D2*
X513123D1*
X507874Y820210D2*
X513123D1*
X507874Y818898D2*
X513123D1*
X507874Y817585D2*
X513123D1*
X507874Y816273D2*
X513123D1*
X507874Y814961D2*
X513123D1*
X1307087Y855643D2*
X1325459D1*
X1306638Y854331D2*
X1325459D1*
X1306247Y853018D2*
X1325459D1*
X1305993Y851706D2*
X1325459D1*
X1305819Y850394D2*
X1309508D1*
X1305594Y849081D2*
X1309183D1*
X1305256Y847769D2*
X1308843D1*
X1304910Y846457D2*
X1308608D1*
X1304673Y845144D2*
X1308440D1*
X1304504Y843832D2*
X1308216D1*
X1304280Y842520D2*
X1307868D1*
X1312336D2*
X1318898D1*
X1303943Y841207D2*
X1307468D1*
X1309096D2*
X1320811D1*
X1303603Y839895D2*
X1322454D1*
X1303421Y838583D2*
X1323784D1*
X1303390Y837270D2*
X1309711D1*
X1318432D2*
X1324816D1*
X1303863Y835958D2*
X1308399D1*
X1320135D2*
X1325607D1*
X1304462Y834646D2*
X1307087D1*
X1321329D2*
X1326176D1*
X1322223Y833333D2*
X1326552D1*
X1322538Y832021D2*
X1326915D1*
X1322708Y830709D2*
X1327437D1*
X1322785Y829396D2*
X1328084D1*
X1322811Y828084D2*
X1327478D1*
X1322772Y826772D2*
X1327096D1*
X1301837Y825459D2*
X1305774D1*
X1322558D2*
X1326859D1*
X1302336Y824147D2*
X1306669D1*
X1322150D2*
X1326602D1*
X1302900Y822835D2*
X1307635D1*
X1321124D2*
X1326203D1*
X1303514Y821522D2*
X1310106D1*
X1318587D2*
X1325635D1*
X1304208Y820210D2*
X1314022D1*
X1314623D2*
X1324858D1*
X1305128Y818898D2*
X1323765D1*
X1306547Y817585D2*
X1322206D1*
X1308600Y816273D2*
X1320068D1*
X1311024Y814961D2*
X1317585D1*
X1509186Y855643D2*
X1515748D1*
X1506712Y854331D2*
X1517907D1*
X1504814Y853018D2*
X1519615D1*
X1503440Y851706D2*
X1520855D1*
X1502347Y850394D2*
X1507879D1*
X1515287D2*
X1521786D1*
X1501413Y849081D2*
X1506618D1*
X1517035D2*
X1522526D1*
X1500724Y847769D2*
X1505519D1*
X1518423D2*
X1523120D1*
X1500281Y846457D2*
X1504693D1*
X1519685D2*
X1523622D1*
X1499920Y845144D2*
X1504083D1*
X1499521Y843832D2*
X1503555D1*
X1499150Y842520D2*
X1503131D1*
X1498909Y841207D2*
X1502915D1*
X1509186D2*
X1515748D1*
X1498782Y839895D2*
X1502869D1*
X1507022D2*
X1517912D1*
X1498725Y838583D2*
X1503340D1*
X1504844D2*
X1519661D1*
X1498702Y837270D2*
X1521022D1*
X1498693Y835958D2*
X1508340D1*
X1515435D2*
X1522099D1*
X1498689Y834646D2*
X1506632D1*
X1517295D2*
X1522854D1*
X1498688Y833333D2*
X1505392D1*
X1518726D2*
X1523324D1*
X1498688Y832021D2*
X1504467D1*
X1519223D2*
X1523691D1*
X1498693Y830709D2*
X1503785D1*
X1519490D2*
X1524048D1*
X1498739Y829396D2*
X1503282D1*
X1519609D2*
X1524252D1*
X1498906Y828084D2*
X1503394D1*
X1519652D2*
X1524180D1*
X1499226Y826772D2*
X1503653D1*
X1519624D2*
X1523965D1*
X1499608Y825459D2*
X1504039D1*
X1519453D2*
X1523747D1*
X1500009Y824147D2*
X1504693D1*
X1519139D2*
X1523477D1*
X1500497Y822835D2*
X1505606D1*
X1518321D2*
X1523065D1*
X1501107Y821522D2*
X1507926D1*
X1515773D2*
X1522490D1*
X1501897Y820210D2*
X1511441D1*
X1511661D2*
X1521715D1*
X1502947Y818898D2*
X1520672D1*
X1504307Y817585D2*
X1519314D1*
X1505997Y816273D2*
X1517625D1*
X1507874Y814961D2*
X1515748D1*
X1122047Y855643D2*
X1124672D1*
X1120938Y854331D2*
X1124672D1*
X1119951Y853018D2*
X1124672D1*
X1118983Y851706D2*
X1124672D1*
X1117947Y850394D2*
X1124672D1*
X1116924Y849081D2*
X1124672D1*
X1115987Y847769D2*
X1124672D1*
X1115080Y846457D2*
X1124672D1*
X1114173Y845144D2*
X1118160D1*
X1120735D2*
X1124672D1*
X1113300Y843832D2*
X1117016D1*
X1120735D2*
X1124672D1*
X1112386Y842520D2*
X1116023D1*
X1120735D2*
X1124672D1*
X1111372Y841207D2*
X1115094D1*
X1120735D2*
X1124672D1*
X1110357Y839895D2*
X1114178D1*
X1120735D2*
X1124672D1*
X1109423Y838583D2*
X1113301D1*
X1120735D2*
X1124672D1*
X1108518Y837270D2*
X1112386D1*
X1120735D2*
X1124672D1*
X1107611Y835958D2*
X1111372D1*
X1120735D2*
X1124672D1*
X1106743Y834646D2*
X1110358D1*
X1120735D2*
X1124672D1*
X1105875Y833333D2*
X1109430D1*
X1120735D2*
X1124672D1*
X1105034Y832021D2*
X1108533D1*
X1120735D2*
X1124672D1*
X1104385Y830709D2*
X1107612D1*
X1120735D2*
X1124672D1*
X1104001Y829396D2*
X1129921D1*
X1103810Y828084D2*
X1129921D1*
X1103724Y826772D2*
X1129921D1*
X1103675Y825459D2*
X1129921D1*
X1120735Y824147D2*
X1124672D1*
X1120735Y822835D2*
X1124672D1*
X1120735Y821522D2*
X1124672D1*
X1120735Y820210D2*
X1124672D1*
X1120735Y818898D2*
X1124672D1*
X1120735Y817585D2*
X1124672D1*
X1120735Y816273D2*
X1124672D1*
X1120735Y814961D2*
X1124672D1*
X740157Y855643D2*
X748031D1*
X737841Y854331D2*
X749950D1*
X735934Y853018D2*
X751634D1*
X734548Y851706D2*
X753086D1*
X733573Y850394D2*
X740471D1*
X748026D2*
X754264D1*
X732884Y849081D2*
X738605D1*
X749287D2*
X755078D1*
X732357Y847769D2*
X737159D1*
X750381D2*
X755534D1*
X731859Y846457D2*
X736431D1*
X751161D2*
X755753D1*
X731392Y845144D2*
X735696D1*
X751599D2*
X755842D1*
X730971Y843832D2*
X734908D1*
X751767D2*
X755833D1*
X751687Y842520D2*
X755674D1*
X751358Y841207D2*
X755319D1*
X750817Y839895D2*
X754812D1*
X750060Y838583D2*
X754218D1*
X749071Y837270D2*
X753541D1*
X747918Y835958D2*
X752724D1*
X746670Y834646D2*
X751710D1*
X745339Y833333D2*
X750542D1*
X743870Y832021D2*
X749250D1*
X742247Y830709D2*
X747797D1*
X740600Y829396D2*
X746181D1*
X739059Y828084D2*
X744536D1*
X737630Y826772D2*
X742996D1*
X736309Y825459D2*
X741562D1*
X735140Y824147D2*
X740194D1*
X734139Y822835D2*
X738859D1*
X733211Y821522D2*
X737538D1*
X732345Y820210D2*
X736222D1*
X731686Y818898D2*
X755906D1*
X731298Y817585D2*
X755906D1*
X731097Y816273D2*
X755906D1*
X730971Y814961D2*
X755906D1*
X916010Y855643D2*
X923885D1*
X914142Y854331D2*
X925798D1*
X912626Y853018D2*
X927441D1*
X911489Y851706D2*
X928771D1*
X910652Y850394D2*
X917636D1*
X923419D2*
X929803D1*
X909991Y849081D2*
X915775D1*
X925122D2*
X930594D1*
X909835Y847769D2*
X914343D1*
X926310D2*
X931153D1*
X910225Y846457D2*
X913802D1*
X927189D2*
X931433D1*
X910761Y845144D2*
X913386D1*
X927398D2*
X931420D1*
X927048Y843832D2*
X931125D1*
X925990Y842520D2*
X930598D1*
X924440Y841207D2*
X929847D1*
X922499Y839895D2*
X928861D1*
X920749Y838583D2*
X927716D1*
X919426Y837270D2*
X926509D1*
X918974Y835958D2*
X928422D1*
X918635Y834646D2*
X930060D1*
X922921Y833333D2*
X931350D1*
X925899Y832021D2*
X932260D1*
X927969Y830709D2*
X932900D1*
X928582Y829396D2*
X933395D1*
X928899Y828084D2*
X933779D1*
X910761Y826772D2*
X912073D1*
X928994D2*
X933644D1*
X909546Y825459D2*
X912740D1*
X928873D2*
X933416D1*
X909176Y824147D2*
X913413D1*
X928582D2*
X933191D1*
X909456Y822835D2*
X914256D1*
X927768D2*
X932874D1*
X909925Y821522D2*
X917012D1*
X925221D2*
X932295D1*
X910594Y820210D2*
X921283D1*
X921110D2*
X931401D1*
X911606Y818898D2*
X930245D1*
X913138Y817585D2*
X928820D1*
X915129Y816273D2*
X927095D1*
X917323Y814961D2*
X925197D1*
X1695538Y855643D2*
X1721785D1*
X1695538Y854331D2*
X1721532D1*
X1695538Y853018D2*
X1721033D1*
X1695538Y851706D2*
X1720328D1*
X1715426Y850394D2*
X1719548D1*
X1714444Y849081D2*
X1718710D1*
X1713518Y847769D2*
X1717831D1*
X1712602Y846457D2*
X1716973D1*
X1711731Y845144D2*
X1716104D1*
X1710857Y843832D2*
X1715218D1*
X1709969Y842520D2*
X1714397D1*
X1709153Y841207D2*
X1713653D1*
X1708450Y839895D2*
X1712954D1*
X1707877Y838583D2*
X1712281D1*
X1707393Y837270D2*
X1711623D1*
X1706877Y835958D2*
X1711006D1*
X1706305Y834646D2*
X1710474D1*
X1705729Y833333D2*
X1710012D1*
X1705214Y832021D2*
X1709544D1*
X1704759Y830709D2*
X1709096D1*
X1704298Y829396D2*
X1708673D1*
X1703892Y828084D2*
X1708227D1*
X1703591Y826772D2*
X1707826D1*
X1703292Y825459D2*
X1707526D1*
X1702918Y824147D2*
X1707228D1*
X1702557Y822835D2*
X1706855D1*
X1702319Y821522D2*
X1706494D1*
X1702194Y820210D2*
X1706256D1*
X1702137Y818898D2*
X1706131D1*
X1702114Y817585D2*
X1706074D1*
X1702104Y816273D2*
X1706050D1*
X1702100Y814961D2*
X1706037D1*
X1901575Y855643D2*
X1909449D1*
X1899662Y854331D2*
X1911362D1*
X1898019Y853018D2*
X1913005D1*
X1896688Y851706D2*
X1914336D1*
X1895657Y850394D2*
X1902041D1*
X1909394D2*
X1915367D1*
X1894870Y849081D2*
X1900343D1*
X1910487D2*
X1916153D1*
X1894236Y847769D2*
X1899015D1*
X1911261D2*
X1916788D1*
X1894170Y846457D2*
X1898408D1*
X1911778D2*
X1916859D1*
X1894392Y845144D2*
X1898427D1*
X1911793D2*
X1916678D1*
X1894842Y843832D2*
X1899091D1*
X1911252D2*
X1916349D1*
X1895458Y842520D2*
X1901590D1*
X1909167D2*
X1915879D1*
X1896315Y841207D2*
X1905677D1*
X1905790D2*
X1915216D1*
X1897515Y839895D2*
X1913739D1*
X1898950Y838583D2*
X1912073D1*
X1897643Y837270D2*
X1913381D1*
X1896377Y835958D2*
X1914647D1*
X1895237Y834646D2*
X1901883D1*
X1909141D2*
X1915787D1*
X1894290Y833333D2*
X1899976D1*
X1911047D2*
X1916734D1*
X1893533Y832021D2*
X1898590D1*
X1912433D2*
X1917491D1*
X1892982Y830709D2*
X1897620D1*
X1913404D2*
X1918042D1*
X1892661Y829396D2*
X1896982D1*
X1914042D2*
X1918363D1*
X1892507Y828084D2*
X1896670D1*
X1914353D2*
X1918516D1*
X1892484Y826772D2*
X1896670D1*
X1914353D2*
X1918540D1*
X1892628Y825459D2*
X1896967D1*
X1914057D2*
X1918395D1*
X1892978Y824147D2*
X1897569D1*
X1913455D2*
X1918045D1*
X1893483Y822835D2*
X1898433D1*
X1912590D2*
X1917540D1*
X1894082Y821522D2*
X1901227D1*
X1909797D2*
X1916942D1*
X1894809Y820210D2*
X1905520D1*
X1905503D2*
X1916215D1*
X1895844Y818898D2*
X1915179D1*
X1897386Y817585D2*
X1913638D1*
X1899380Y816273D2*
X1911644D1*
X1901575Y814961D2*
X1909449D1*
X2098425Y855643D2*
X2104987D1*
X2096108Y854331D2*
X2107304D1*
X2094202Y853018D2*
X2109210D1*
X2092811Y851706D2*
X2110601D1*
X2091794Y850394D2*
X2098891D1*
X2106294D2*
X2111618D1*
X2090984Y849081D2*
X2097183D1*
X2107555D2*
X2112428D1*
X2090312Y847769D2*
X2095943D1*
X2108649D2*
X2113100D1*
X2089803Y846457D2*
X2095013D1*
X2109429D2*
X2113609D1*
X2089500Y845144D2*
X2094285D1*
X2109872D2*
X2113912D1*
X2089348Y843832D2*
X2093759D1*
X2110086D2*
X2114069D1*
X2089287Y842520D2*
X2093493D1*
X2110173D2*
X2114182D1*
X2089306Y841207D2*
X2093511D1*
X2110159D2*
X2114376D1*
X2089463Y839895D2*
X2093814D1*
X2109954D2*
X2114700D1*
X2089779Y838583D2*
X2094418D1*
X2109551D2*
X2115041D1*
X2090165Y837270D2*
X2095284D1*
X2108320D2*
X2115266D1*
X2090612Y835958D2*
X2098077D1*
X2106181D2*
X2115342D1*
X2091272Y834646D2*
X2102371D1*
X2102714D2*
X2115230D1*
X2092246Y833333D2*
X2108870D1*
X2111806D2*
X2114939D1*
X2093570Y832021D2*
X2107354D1*
X2111039D2*
X2114611D1*
X2095244Y830709D2*
X2105593D1*
X2110594D2*
X2114386D1*
X2097113Y829396D2*
X2103675D1*
X2110335D2*
X2114260D1*
X2110071Y828084D2*
X2114159D1*
X2109668Y826772D2*
X2113963D1*
X2109099Y825459D2*
X2113594D1*
X2090551Y824147D2*
X2094488D1*
X2108307D2*
X2113082D1*
X2090606Y822835D2*
X2095219D1*
X2107301D2*
X2112486D1*
X2090826Y821522D2*
X2097355D1*
X2104956D2*
X2111809D1*
X2091364Y820210D2*
X2100758D1*
X2101428D2*
X2110987D1*
X2092283Y818898D2*
X2109923D1*
X2093584Y817585D2*
X2108558D1*
X2095249Y816273D2*
X2106865D1*
X2097113Y814961D2*
X2104987D1*
X2262467Y855643D2*
X2265092D1*
X2287402D2*
X2295276D1*
X2261155Y854331D2*
X2265092D1*
X2285489D2*
X2297144D1*
X2259843Y853018D2*
X2265092D1*
X2283845D2*
X2298660D1*
X2258525Y851706D2*
X2265092D1*
X2282515D2*
X2299802D1*
X2257167Y850394D2*
X2265092D1*
X2281483D2*
X2287407D1*
X2295226D2*
X2300690D1*
X2255692Y849081D2*
X2265092D1*
X2280692D2*
X2286146D1*
X2296365D2*
X2301442D1*
X2254117Y847769D2*
X2265092D1*
X2280123D2*
X2285052D1*
X2297311D2*
X2302091D1*
X2252686Y846457D2*
X2265092D1*
X2279751D2*
X2284267D1*
X2298068D2*
X2302596D1*
X2251513Y845144D2*
X2256977D1*
X2259843D2*
X2265092D1*
X2279424D2*
X2283778D1*
X2298619D2*
X2302942D1*
X2251031Y843832D2*
X2255204D1*
X2259843D2*
X2265092D1*
X2279039D2*
X2283397D1*
X2298946D2*
X2303259D1*
X2250656Y842520D2*
X2253281D1*
X2259843D2*
X2265092D1*
X2278675D2*
X2282990D1*
X2299150D2*
X2303640D1*
X2259843Y841207D2*
X2265092D1*
X2278435D2*
X2282617D1*
X2299387D2*
X2304003D1*
X2259843Y839895D2*
X2265092D1*
X2278310D2*
X2282374D1*
X2299729D2*
X2304242D1*
X2259843Y838583D2*
X2265092D1*
X2278253D2*
X2282247D1*
X2300076D2*
X2304368D1*
X2259843Y837270D2*
X2265092D1*
X2278229D2*
X2282190D1*
X2300309D2*
X2304425D1*
X2259843Y835958D2*
X2265092D1*
X2278220D2*
X2282166D1*
X2300427D2*
X2304448D1*
X2259843Y834646D2*
X2265092D1*
X2278217D2*
X2282157D1*
X2300437D2*
X2304457D1*
X2259843Y833333D2*
X2265092D1*
X2278216D2*
X2282159D1*
X2300293D2*
X2304455D1*
X2259843Y832021D2*
X2265092D1*
X2278221D2*
X2282204D1*
X2299987D2*
X2304410D1*
X2259843Y830709D2*
X2265092D1*
X2278267D2*
X2282371D1*
X2299654D2*
X2304243D1*
X2259843Y829396D2*
X2265092D1*
X2278434D2*
X2282685D1*
X2299421D2*
X2303929D1*
X2259843Y828084D2*
X2265092D1*
X2278748D2*
X2283027D1*
X2299254D2*
X2303588D1*
X2259843Y826772D2*
X2265092D1*
X2279090D2*
X2283307D1*
X2299026D2*
X2303313D1*
X2259843Y825459D2*
X2265092D1*
X2279365D2*
X2283647D1*
X2298637D2*
X2303018D1*
X2259843Y824147D2*
X2265092D1*
X2279659D2*
X2284261D1*
X2298048D2*
X2302602D1*
X2259843Y822835D2*
X2265092D1*
X2280080D2*
X2285146D1*
X2297288D2*
X2302070D1*
X2259843Y821522D2*
X2265092D1*
X2280658D2*
X2287460D1*
X2295092D2*
X2301467D1*
X2259843Y820210D2*
X2265092D1*
X2281434D2*
X2290971D1*
X2291654D2*
X2300782D1*
X2259843Y818898D2*
X2265092D1*
X2282478D2*
X2299914D1*
X2259843Y817585D2*
X2265092D1*
X2283835D2*
X2298698D1*
X2259843Y816273D2*
X2265092D1*
X2285525D2*
X2297094D1*
X2259843Y814961D2*
X2265092D1*
X2287402D2*
X2295276D1*
X2459318Y855643D2*
X2461942D1*
X2490814D2*
X2493438D1*
X2458005Y854331D2*
X2461942D1*
X2489501D2*
X2493438D1*
X2456693Y853018D2*
X2461942D1*
X2488189D2*
X2493438D1*
X2455375Y851706D2*
X2461942D1*
X2486872D2*
X2493438D1*
X2454017Y850394D2*
X2461942D1*
X2485513D2*
X2493438D1*
X2452543Y849081D2*
X2461942D1*
X2484039D2*
X2493438D1*
X2450967Y847769D2*
X2461942D1*
X2482463D2*
X2493438D1*
X2449536Y846457D2*
X2461942D1*
X2481033D2*
X2493438D1*
X2448363Y845144D2*
X2453827D1*
X2456693D2*
X2461942D1*
X2479861D2*
X2485307D1*
X2488189D2*
X2493438D1*
X2447881Y843832D2*
X2452054D1*
X2456693D2*
X2461942D1*
X2479417D2*
X2483454D1*
X2488189D2*
X2493438D1*
X2447507Y842520D2*
X2450131D1*
X2456693D2*
X2461942D1*
X2479166D2*
X2481299D1*
X2488189D2*
X2493438D1*
X2456693Y841207D2*
X2461942D1*
X2479003D2*
D3*
X2488189D2*
X2493438D1*
X2456693Y839895D2*
X2461942D1*
X2488189D2*
X2493438D1*
X2456693Y838583D2*
X2461942D1*
X2488189D2*
X2493438D1*
X2456693Y837270D2*
X2461942D1*
X2488189D2*
X2493438D1*
X2456693Y835958D2*
X2461942D1*
X2488189D2*
X2493438D1*
X2456693Y834646D2*
X2461942D1*
X2488189D2*
X2493438D1*
X2456693Y833333D2*
X2461942D1*
X2488189D2*
X2493438D1*
X2456693Y832021D2*
X2461942D1*
X2488189D2*
X2493438D1*
X2456693Y830709D2*
X2461942D1*
X2488189D2*
X2493438D1*
X2456693Y829396D2*
X2461942D1*
X2488189D2*
X2493438D1*
X2456693Y828084D2*
X2461942D1*
X2488189D2*
X2493438D1*
X2456693Y826772D2*
X2461942D1*
X2488189D2*
X2493438D1*
X2456693Y825459D2*
X2461942D1*
X2488189D2*
X2493438D1*
X2456693Y824147D2*
X2461942D1*
X2488189D2*
X2493438D1*
X2456693Y822835D2*
X2461942D1*
X2488189D2*
X2493438D1*
X2456693Y821522D2*
X2461942D1*
X2488189D2*
X2493438D1*
X2456693Y820210D2*
X2461942D1*
X2488189D2*
X2493438D1*
X2456693Y818898D2*
X2461942D1*
X2488189D2*
X2493438D1*
X2456693Y817585D2*
X2461942D1*
X2488189D2*
X2493438D1*
X2456693Y816273D2*
X2461942D1*
X2488189D2*
X2493438D1*
X2456693Y814961D2*
X2461942D1*
X2488189D2*
X2493438D1*
X2715223Y855643D2*
X2717848D1*
X2740157D2*
X2748031D1*
X2713911Y854331D2*
X2717848D1*
X2737841D2*
X2749950D1*
X2712598Y853018D2*
X2717848D1*
X2735934D2*
X2751634D1*
X2711281Y851706D2*
X2717848D1*
X2734548D2*
X2753086D1*
X2709922Y850394D2*
X2717848D1*
X2733573D2*
X2740471D1*
X2748026D2*
X2754264D1*
X2708448Y849081D2*
X2717848D1*
X2732884D2*
X2738605D1*
X2749287D2*
X2755078D1*
X2706873Y847769D2*
X2717848D1*
X2732357D2*
X2737159D1*
X2750381D2*
X2755534D1*
X2705442Y846457D2*
X2717848D1*
X2731859D2*
X2736431D1*
X2751161D2*
X2755753D1*
X2704269Y845144D2*
X2709732D1*
X2712598D2*
X2717848D1*
X2731392D2*
X2735696D1*
X2751599D2*
X2755842D1*
X2703786Y843832D2*
X2707960D1*
X2712598D2*
X2717848D1*
X2730971D2*
X2734908D1*
X2751767D2*
X2755833D1*
X2703412Y842520D2*
X2706037D1*
X2712598D2*
X2717848D1*
X2751687D2*
X2755674D1*
X2712598Y841207D2*
X2717848D1*
X2751358D2*
X2755319D1*
X2712598Y839895D2*
X2717848D1*
X2750817D2*
X2754812D1*
X2712598Y838583D2*
X2717848D1*
X2750060D2*
X2754218D1*
X2712598Y837270D2*
X2717848D1*
X2749071D2*
X2753541D1*
X2712598Y835958D2*
X2717848D1*
X2747918D2*
X2752724D1*
X2712598Y834646D2*
X2717848D1*
X2746670D2*
X2751710D1*
X2712598Y833333D2*
X2717848D1*
X2745339D2*
X2750542D1*
X2712598Y832021D2*
X2717848D1*
X2743870D2*
X2749250D1*
X2712598Y830709D2*
X2717848D1*
X2742247D2*
X2747797D1*
X2712598Y829396D2*
X2717848D1*
X2740600D2*
X2746181D1*
X2712598Y828084D2*
X2717848D1*
X2739059D2*
X2744536D1*
X2712598Y826772D2*
X2717848D1*
X2737630D2*
X2742996D1*
X2712598Y825459D2*
X2717848D1*
X2736309D2*
X2741562D1*
X2712598Y824147D2*
X2717848D1*
X2735140D2*
X2740194D1*
X2712598Y822835D2*
X2717848D1*
X2734139D2*
X2738859D1*
X2712598Y821522D2*
X2717848D1*
X2733211D2*
X2737538D1*
X2712598Y820210D2*
X2717848D1*
X2732345D2*
X2736222D1*
X2712598Y818898D2*
X2717848D1*
X2731686D2*
X2755906D1*
X2712598Y817585D2*
X2717848D1*
X2731298D2*
X2755906D1*
X2712598Y816273D2*
X2717848D1*
X2731097D2*
X2755906D1*
X2712598Y814961D2*
X2717848D1*
X2730971D2*
X2755906D1*
X2248031Y1741470D2*
X2253281D1*
X2272966D2*
X2279528D1*
X2248031Y1740157D2*
X2253281D1*
X2272102D2*
X2278215D1*
X2248031Y1738845D2*
X2253281D1*
X2271180D2*
X2276903D1*
X2248031Y1737533D2*
X2253281D1*
X2270117D2*
X2275591D1*
X2248031Y1736220D2*
X2253281D1*
X2268933D2*
X2274278D1*
X2248031Y1734908D2*
X2253281D1*
X2267679D2*
X2272966D1*
X2248031Y1733596D2*
X2253281D1*
X2266390D2*
X2271654D1*
X2248031Y1732283D2*
X2253281D1*
X2265087D2*
X2270341D1*
X2248031Y1730971D2*
X2253281D1*
X2263778D2*
X2269029D1*
X2248031Y1729659D2*
X2253281D1*
X2262467D2*
X2267722D1*
X2248031Y1728346D2*
X2253281D1*
X2261155D2*
X2266466D1*
X2248031Y1727034D2*
X2253286D1*
X2259837D2*
X2265418D1*
X2248031Y1725722D2*
X2253336D1*
X2258475D2*
X2264623D1*
X2248031Y1724409D2*
X2253539D1*
X2256960D2*
X2264686D1*
X2248031Y1723097D2*
X2253987D1*
X2255199D2*
X2265062D1*
X2248031Y1721785D2*
X2265735D1*
X2248031Y1720472D2*
X2258530D1*
X2260952D2*
X2266646D1*
X2248031Y1719160D2*
X2257223D1*
X2261934D2*
X2267619D1*
X2248031Y1717848D2*
X2255962D1*
X2262860D2*
X2268538D1*
X2248031Y1716535D2*
X2254868D1*
X2263776D2*
X2269438D1*
X2248031Y1715223D2*
X2254089D1*
X2264646D2*
X2270343D1*
X2248031Y1713911D2*
X2253646D1*
X2265520D2*
X2271215D1*
X2248031Y1712598D2*
X2253431D1*
X2266414D2*
X2272129D1*
X2248031Y1711286D2*
X2253339D1*
X2267281D2*
X2273143D1*
X2248031Y1709974D2*
X2253302D1*
X2268193D2*
X2274157D1*
X2248031Y1708661D2*
X2253288D1*
X2269206D2*
X2275096D1*
X2248031Y1707349D2*
X2253283D1*
X2270220D2*
X2276043D1*
X2248031Y1706037D2*
X2253282D1*
X2271154D2*
X2277071D1*
X2248031Y1704724D2*
X2253281D1*
X2272056D2*
X2278090D1*
X2248031Y1703412D2*
X2253281D1*
X2272926D2*
X2279020D1*
X2248031Y1702100D2*
X2253281D1*
X2273658D2*
X2279918D1*
X2248031Y1700787D2*
X2253281D1*
X2274278D2*
X2280840D1*
X2503937Y1741470D2*
X2509186D1*
X2528871D2*
X2535433D1*
X2503937Y1740157D2*
X2509186D1*
X2528008D2*
X2534121D1*
X2503937Y1738845D2*
X2509186D1*
X2527086D2*
X2532808D1*
X2503937Y1737533D2*
X2509186D1*
X2526022D2*
X2531496D1*
X2503937Y1736220D2*
X2509186D1*
X2524839D2*
X2530184D1*
X2503937Y1734908D2*
X2509186D1*
X2523584D2*
X2528871D1*
X2503937Y1733596D2*
X2509186D1*
X2522296D2*
X2527559D1*
X2503937Y1732283D2*
X2509186D1*
X2520992D2*
X2526247D1*
X2503937Y1730971D2*
X2509186D1*
X2519683D2*
X2524934D1*
X2503937Y1729659D2*
X2509186D1*
X2518372D2*
X2523627D1*
X2503937Y1728346D2*
X2509186D1*
X2517060D2*
X2522371D1*
X2503937Y1727034D2*
X2509191D1*
X2515743D2*
X2521324D1*
X2503937Y1725722D2*
X2509241D1*
X2514381D2*
X2520528D1*
X2503937Y1724409D2*
X2509444D1*
X2512865D2*
X2520592D1*
X2503937Y1723097D2*
X2509893D1*
X2511104D2*
X2520968D1*
X2503937Y1721785D2*
X2521641D1*
X2503937Y1720472D2*
X2514436D1*
X2516858D2*
X2522551D1*
X2503937Y1719160D2*
X2513128D1*
X2517839D2*
X2523525D1*
X2503937Y1717848D2*
X2511867D1*
X2518766D2*
X2524443D1*
X2503937Y1716535D2*
X2510774D1*
X2519681D2*
X2525343D1*
X2503937Y1715223D2*
X2509994D1*
X2520552D2*
X2526248D1*
X2503937Y1713911D2*
X2509551D1*
X2521426D2*
X2527121D1*
X2503937Y1712598D2*
X2509337D1*
X2522319D2*
X2528034D1*
X2503937Y1711286D2*
X2509244D1*
X2523187D2*
X2529048D1*
X2503937Y1709974D2*
X2509208D1*
X2524098D2*
X2530063D1*
X2503937Y1708661D2*
X2509194D1*
X2525112D2*
X2531002D1*
X2503937Y1707349D2*
X2509189D1*
X2526126D2*
X2531948D1*
X2503937Y1706037D2*
X2509187D1*
X2527060D2*
X2532976D1*
X2503937Y1704724D2*
X2509187D1*
X2527961D2*
X2533995D1*
X2503937Y1703412D2*
X2509186D1*
X2528832D2*
X2534926D1*
X2503937Y1702100D2*
X2509186D1*
X2529563D2*
X2535823D1*
X2503937Y1700787D2*
X2509186D1*
X2530184D2*
X2536745D1*
X510499Y855643D2*
X509186Y854331D1*
X507874Y853018D1*
X506557Y851706D1*
X505198Y850394D1*
X503724Y849081D1*
X502148Y847769D1*
X500718Y846457D1*
X499544Y845144D1*
X499062Y843832D1*
X498688Y842520D1*
X513123Y855643D2*
Y854331D1*
Y853018D1*
Y851706D1*
Y850394D1*
Y849081D1*
Y847769D1*
Y846457D1*
Y845144D1*
Y843832D1*
Y842520D1*
Y841207D1*
Y839895D1*
Y838583D1*
Y837270D1*
Y835958D1*
Y834646D1*
Y833333D1*
Y832021D1*
Y830709D1*
Y829396D1*
Y828084D1*
Y826772D1*
Y825459D1*
Y824147D1*
Y822835D1*
Y821522D1*
Y820210D1*
Y818898D1*
Y817585D1*
Y816273D1*
Y814961D1*
X506562Y846457D2*
X505008Y845144D1*
X503235Y843832D1*
X501312Y842520D1*
X507874Y846457D2*
Y845144D1*
Y843832D1*
Y842520D1*
Y841207D1*
Y839895D1*
Y838583D1*
Y837270D1*
Y835958D1*
Y834646D1*
Y833333D1*
Y832021D1*
Y830709D1*
Y829396D1*
Y828084D1*
Y826772D1*
Y825459D1*
Y824147D1*
Y822835D1*
Y821522D1*
Y820210D1*
Y818898D1*
Y817585D1*
Y816273D1*
Y814961D1*
X1307087Y855643D2*
X1306638Y854331D1*
X1306247Y853018D1*
X1305993Y851706D1*
X1305819Y850394D1*
X1305594Y849081D1*
X1305256Y847769D1*
X1304910Y846457D1*
X1304673Y845144D1*
X1304504Y843832D1*
X1304280Y842520D1*
X1303943Y841207D1*
X1303603Y839895D1*
X1303421Y838583D1*
X1303390Y837270D1*
X1303863Y835958D1*
X1304462Y834646D1*
X1325459Y855643D2*
Y854331D1*
Y853018D1*
Y851706D1*
X1309711D2*
X1309508Y850394D1*
X1309183Y849081D1*
X1308843Y847769D1*
X1308608Y846457D1*
X1308440Y845144D1*
X1308216Y843832D1*
X1307868Y842520D1*
X1307468Y841207D1*
X1307087Y839895D1*
X1312336Y842520D2*
X1309096Y841207D1*
X1305774Y839895D1*
X1318898Y842520D2*
X1320811Y841207D1*
X1322454Y839895D1*
X1323784Y838583D1*
X1324816Y837270D1*
X1325607Y835958D1*
X1326176Y834646D1*
X1326552Y833333D1*
X1326915Y832021D1*
X1327437Y830709D1*
X1328084Y829396D1*
X1327478Y828084D1*
X1327096Y826772D1*
X1326859Y825459D1*
X1326602Y824147D1*
X1326203Y822835D1*
X1325635Y821522D1*
X1324858Y820210D1*
X1323765Y818898D1*
X1322206Y817585D1*
X1320068Y816273D1*
X1317585Y814961D1*
X1311024Y838583D2*
X1309711Y837270D1*
X1308399Y835958D1*
X1307087Y834646D1*
X1316273Y838583D2*
X1318432Y837270D1*
X1320135Y835958D1*
X1321329Y834646D1*
X1322223Y833333D1*
X1322538Y832021D1*
X1322708Y830709D1*
X1322785Y829396D1*
X1322811Y828084D1*
X1322772Y826772D1*
X1322558Y825459D1*
X1322150Y824147D1*
X1321124Y822835D1*
X1318587Y821522D1*
X1314623Y820210D1*
X1309711Y818898D1*
X1301837Y825459D2*
X1302336Y824147D1*
X1302900Y822835D1*
X1303514Y821522D1*
X1304208Y820210D1*
X1305128Y818898D1*
X1306547Y817585D1*
X1308600Y816273D1*
X1311024Y814961D1*
X1305774Y825459D2*
X1306669Y824147D1*
X1307635Y822835D1*
X1310106Y821522D1*
X1314022Y820210D1*
X1318898Y818898D1*
X1509186Y855643D2*
X1506712Y854331D1*
X1504814Y853018D1*
X1503440Y851706D1*
X1502347Y850394D1*
X1501413Y849081D1*
X1500724Y847769D1*
X1500281Y846457D1*
X1499920Y845144D1*
X1499521Y843832D1*
X1499150Y842520D1*
X1498909Y841207D1*
X1498782Y839895D1*
X1498725Y838583D1*
X1498702Y837270D1*
X1498693Y835958D1*
X1498689Y834646D1*
X1498688Y833333D1*
Y832021D1*
X1498693Y830709D1*
X1498739Y829396D1*
X1498906Y828084D1*
X1499226Y826772D1*
X1499608Y825459D1*
X1500009Y824147D1*
X1500497Y822835D1*
X1501107Y821522D1*
X1501897Y820210D1*
X1502947Y818898D1*
X1504307Y817585D1*
X1505997Y816273D1*
X1507874Y814961D1*
X1515748Y855643D2*
X1517907Y854331D1*
X1519615Y853018D1*
X1520855Y851706D1*
X1521786Y850394D1*
X1522526Y849081D1*
X1523120Y847769D1*
X1523622Y846457D1*
X1509186Y851706D2*
X1507879Y850394D1*
X1506618Y849081D1*
X1505519Y847769D1*
X1504693Y846457D1*
X1504083Y845144D1*
X1503555Y843832D1*
X1503131Y842520D1*
X1502915Y841207D1*
X1502869Y839895D1*
X1503340Y838583D1*
X1503937Y837270D1*
X1513123Y851706D2*
X1515287Y850394D1*
X1517035Y849081D1*
X1518423Y847769D1*
X1519685Y846457D1*
X1509186Y841207D2*
X1507022Y839895D1*
X1504844Y838583D1*
X1502625Y837270D1*
X1515748Y841207D2*
X1517912Y839895D1*
X1519661Y838583D1*
X1521022Y837270D1*
X1522099Y835958D1*
X1522854Y834646D1*
X1523324Y833333D1*
X1523691Y832021D1*
X1524048Y830709D1*
X1524252Y829396D1*
X1524180Y828084D1*
X1523965Y826772D1*
X1523747Y825459D1*
X1523477Y824147D1*
X1523065Y822835D1*
X1522490Y821522D1*
X1521715Y820210D1*
X1520672Y818898D1*
X1519314Y817585D1*
X1517625Y816273D1*
X1515748Y814961D1*
X1510499Y837270D2*
X1508340Y835958D1*
X1506632Y834646D1*
X1505392Y833333D1*
X1504467Y832021D1*
X1503785Y830709D1*
X1503282Y829396D1*
X1503394Y828084D1*
X1503653Y826772D1*
X1504039Y825459D1*
X1504693Y824147D1*
X1505606Y822835D1*
X1507926Y821522D1*
X1511441Y820210D1*
X1515748Y818898D1*
X1513123Y837270D2*
X1515435Y835958D1*
X1517295Y834646D1*
X1518726Y833333D1*
X1519223Y832021D1*
X1519490Y830709D1*
X1519609Y829396D1*
X1519652Y828084D1*
X1519624Y826772D1*
X1519453Y825459D1*
X1519139Y824147D1*
X1518321Y822835D1*
X1515773Y821522D1*
X1511661Y820210D1*
X1506562Y818898D1*
X1122047Y855643D2*
X1120938Y854331D1*
X1119951Y853018D1*
X1118983Y851706D1*
X1117947Y850394D1*
X1116924Y849081D1*
X1115987Y847769D1*
X1115080Y846457D1*
X1114173Y845144D1*
X1113300Y843832D1*
X1112386Y842520D1*
X1111372Y841207D1*
X1110357Y839895D1*
X1109423Y838583D1*
X1108518Y837270D1*
X1107611Y835958D1*
X1106743Y834646D1*
X1105875Y833333D1*
X1105034Y832021D1*
X1104385Y830709D1*
X1104001Y829396D1*
X1103810Y828084D1*
X1103724Y826772D1*
X1103675Y825459D1*
X1124672Y855643D2*
Y854331D1*
Y853018D1*
Y851706D1*
Y850394D1*
Y849081D1*
Y847769D1*
Y846457D1*
Y845144D1*
Y843832D1*
Y842520D1*
Y841207D1*
Y839895D1*
Y838583D1*
Y837270D1*
Y835958D1*
Y834646D1*
Y833333D1*
Y832021D1*
Y830709D1*
Y829396D1*
X1129921D1*
Y828084D1*
Y826772D1*
Y825459D1*
Y824147D1*
X1124672D1*
Y822835D1*
Y821522D1*
Y820210D1*
Y818898D1*
Y817585D1*
Y816273D1*
Y814961D1*
X1119423Y846457D2*
X1118160Y845144D1*
X1117016Y843832D1*
X1116023Y842520D1*
X1115094Y841207D1*
X1114178Y839895D1*
X1113301Y838583D1*
X1112386Y837270D1*
X1111372Y835958D1*
X1110358Y834646D1*
X1109430Y833333D1*
X1108533Y832021D1*
X1107612Y830709D1*
X1118110Y829396D1*
X1120735Y846457D2*
Y845144D1*
Y843832D1*
Y842520D1*
Y841207D1*
Y839895D1*
Y838583D1*
Y837270D1*
Y835958D1*
Y834646D1*
Y833333D1*
Y832021D1*
Y830709D1*
X1108924Y829396D1*
X1120735Y825459D2*
Y824147D1*
Y822835D1*
Y821522D1*
Y820210D1*
Y818898D1*
Y817585D1*
Y816273D1*
Y814961D1*
X740157Y855643D2*
X737841Y854331D1*
X735934Y853018D1*
X734548Y851706D1*
X733573Y850394D1*
X732884Y849081D1*
X732357Y847769D1*
X731859Y846457D1*
X731392Y845144D1*
X730971Y843832D1*
X748031Y855643D2*
X749950Y854331D1*
X751634Y853018D1*
X753086Y851706D1*
X754264Y850394D1*
X755078Y849081D1*
X755534Y847769D1*
X755753Y846457D1*
X755842Y845144D1*
X755833Y843832D1*
X755674Y842520D1*
X755319Y841207D1*
X754812Y839895D1*
X754218Y838583D1*
X753541Y837270D1*
X752724Y835958D1*
X751710Y834646D1*
X750542Y833333D1*
X749250Y832021D1*
X747797Y830709D1*
X746181Y829396D1*
X744536Y828084D1*
X742996Y826772D1*
X741562Y825459D1*
X740194Y824147D1*
X738859Y822835D1*
X737538Y821522D1*
X736222Y820210D1*
X734908Y818898D1*
X742782Y851706D2*
X740471Y850394D1*
X738605Y849081D1*
X737159Y847769D1*
X736431Y846457D1*
X735696Y845144D1*
X734908Y843832D1*
X746719Y851706D2*
X748026Y850394D1*
X749287Y849081D1*
X750381Y847769D1*
X751161Y846457D1*
X751599Y845144D1*
X751767Y843832D1*
X751687Y842520D1*
X751358Y841207D1*
X750817Y839895D1*
X750060Y838583D1*
X749071Y837270D1*
X747918Y835958D1*
X746670Y834646D1*
X745339Y833333D1*
X743870Y832021D1*
X742247Y830709D1*
X740600Y829396D1*
X739059Y828084D1*
X737630Y826772D1*
X736309Y825459D1*
X735140Y824147D1*
X734139Y822835D1*
X733211Y821522D1*
X732345Y820210D1*
X731686Y818898D1*
X731298Y817585D1*
X731097Y816273D1*
X730971Y814961D1*
X755906Y818898D2*
Y817585D1*
Y816273D1*
Y814961D1*
X916010Y855643D2*
X914142Y854331D1*
X912626Y853018D1*
X911489Y851706D1*
X910652Y850394D1*
X909991Y849081D1*
X909835Y847769D1*
X910225Y846457D1*
X910761Y845144D1*
X923885Y855643D2*
X925798Y854331D1*
X927441Y853018D1*
X928771Y851706D1*
X929803Y850394D1*
X930594Y849081D1*
X931153Y847769D1*
X931433Y846457D1*
X931420Y845144D1*
X931125Y843832D1*
X930598Y842520D1*
X929847Y841207D1*
X928861Y839895D1*
X927716Y838583D1*
X926509Y837270D1*
X928422Y835958D1*
X930060Y834646D1*
X931350Y833333D1*
X932260Y832021D1*
X932900Y830709D1*
X933395Y829396D1*
X933779Y828084D1*
X933644Y826772D1*
X933416Y825459D1*
X933191Y824147D1*
X932874Y822835D1*
X932295Y821522D1*
X931401Y820210D1*
X930245Y818898D1*
X928820Y817585D1*
X927095Y816273D1*
X925197Y814961D1*
X919948Y851706D2*
X917636Y850394D1*
X915775Y849081D1*
X914343Y847769D1*
X913802Y846457D1*
X913386Y845144D1*
X921260Y851706D2*
X923419Y850394D1*
X925122Y849081D1*
X926310Y847769D1*
X927189Y846457D1*
X927398Y845144D1*
X927048Y843832D1*
X925990Y842520D1*
X924440Y841207D1*
X922499Y839895D1*
X920749Y838583D1*
X919426Y837270D1*
X918974Y835958D1*
X918635Y834646D1*
X922921Y833333D1*
X925899Y832021D1*
X927969Y830709D1*
X928582Y829396D1*
X928899Y828084D1*
X928994Y826772D1*
X928873Y825459D1*
X928582Y824147D1*
X927768Y822835D1*
X925221Y821522D1*
X921110Y820210D1*
X916010Y818898D1*
X910761Y826772D2*
X909546Y825459D1*
X909176Y824147D1*
X909456Y822835D1*
X909925Y821522D1*
X910594Y820210D1*
X911606Y818898D1*
X913138Y817585D1*
X915129Y816273D1*
X917323Y814961D1*
X912073Y826772D2*
X912740Y825459D1*
X913413Y824147D1*
X914256Y822835D1*
X917012Y821522D1*
X921283Y820210D1*
X926509Y818898D1*
X1695538Y855643D2*
Y854331D1*
Y853018D1*
Y851706D1*
X1721785Y855643D2*
X1721532Y854331D1*
X1721033Y853018D1*
X1720328Y851706D1*
X1719548Y850394D1*
X1718710Y849081D1*
X1717831Y847769D1*
X1716973Y846457D1*
X1716104Y845144D1*
X1715218Y843832D1*
X1714397Y842520D1*
X1713653Y841207D1*
X1712954Y839895D1*
X1712281Y838583D1*
X1711623Y837270D1*
X1711006Y835958D1*
X1710474Y834646D1*
X1710012Y833333D1*
X1709544Y832021D1*
X1709096Y830709D1*
X1708673Y829396D1*
X1708227Y828084D1*
X1707826Y826772D1*
X1707526Y825459D1*
X1707228Y824147D1*
X1706855Y822835D1*
X1706494Y821522D1*
X1706256Y820210D1*
X1706131Y818898D1*
X1706074Y817585D1*
X1706050Y816273D1*
X1706037Y814961D1*
X1716535Y851706D2*
X1715426Y850394D1*
X1714444Y849081D1*
X1713518Y847769D1*
X1712602Y846457D1*
X1711731Y845144D1*
X1710857Y843832D1*
X1709969Y842520D1*
X1709153Y841207D1*
X1708450Y839895D1*
X1707877Y838583D1*
X1707393Y837270D1*
X1706877Y835958D1*
X1706305Y834646D1*
X1705729Y833333D1*
X1705214Y832021D1*
X1704759Y830709D1*
X1704298Y829396D1*
X1703892Y828084D1*
X1703591Y826772D1*
X1703292Y825459D1*
X1702918Y824147D1*
X1702557Y822835D1*
X1702319Y821522D1*
X1702194Y820210D1*
X1702137Y818898D1*
X1702114Y817585D1*
X1702104Y816273D1*
X1702100Y814961D1*
X1901575Y855643D2*
X1899662Y854331D1*
X1898019Y853018D1*
X1896688Y851706D1*
X1895657Y850394D1*
X1894870Y849081D1*
X1894236Y847769D1*
X1894170Y846457D1*
X1894392Y845144D1*
X1894842Y843832D1*
X1895458Y842520D1*
X1896315Y841207D1*
X1897515Y839895D1*
X1898950Y838583D1*
X1897643Y837270D1*
X1896377Y835958D1*
X1895237Y834646D1*
X1894290Y833333D1*
X1893533Y832021D1*
X1892982Y830709D1*
X1892661Y829396D1*
X1892507Y828084D1*
X1892484Y826772D1*
X1892628Y825459D1*
X1892978Y824147D1*
X1893483Y822835D1*
X1894082Y821522D1*
X1894809Y820210D1*
X1895844Y818898D1*
X1897386Y817585D1*
X1899380Y816273D1*
X1901575Y814961D1*
X1909449Y855643D2*
X1911362Y854331D1*
X1913005Y853018D1*
X1914336Y851706D1*
X1915367Y850394D1*
X1916153Y849081D1*
X1916788Y847769D1*
X1916859Y846457D1*
X1916678Y845144D1*
X1916349Y843832D1*
X1915879Y842520D1*
X1915216Y841207D1*
X1913739Y839895D1*
X1912073Y838583D1*
X1913381Y837270D1*
X1914647Y835958D1*
X1915787Y834646D1*
X1916734Y833333D1*
X1917491Y832021D1*
X1918042Y830709D1*
X1918363Y829396D1*
X1918516Y828084D1*
X1918540Y826772D1*
X1918395Y825459D1*
X1918045Y824147D1*
X1917540Y822835D1*
X1916942Y821522D1*
X1916215Y820210D1*
X1915179Y818898D1*
X1913638Y817585D1*
X1911644Y816273D1*
X1909449Y814961D1*
X1904199Y851706D2*
X1902041Y850394D1*
X1900343Y849081D1*
X1899015Y847769D1*
X1898408Y846457D1*
X1898427Y845144D1*
X1899091Y843832D1*
X1901590Y842520D1*
X1905677Y841207D1*
X1910761Y839895D1*
X1908136Y851706D2*
X1909394Y850394D1*
X1910487Y849081D1*
X1911261Y847769D1*
X1911778Y846457D1*
X1911793Y845144D1*
X1911252Y843832D1*
X1909167Y842520D1*
X1905790Y841207D1*
X1901575Y839895D1*
X1904199Y835958D2*
X1901883Y834646D1*
X1899976Y833333D1*
X1898590Y832021D1*
X1897620Y830709D1*
X1896982Y829396D1*
X1896670Y828084D1*
Y826772D1*
X1896967Y825459D1*
X1897569Y824147D1*
X1898433Y822835D1*
X1901227Y821522D1*
X1905520Y820210D1*
X1910761Y818898D1*
X1906824Y835958D2*
X1909141Y834646D1*
X1911047Y833333D1*
X1912433Y832021D1*
X1913404Y830709D1*
X1914042Y829396D1*
X1914353Y828084D1*
Y826772D1*
X1914057Y825459D1*
X1913455Y824147D1*
X1912590Y822835D1*
X1909797Y821522D1*
X1905503Y820210D1*
X1900262Y818898D1*
X2098425Y855643D2*
X2096108Y854331D1*
X2094202Y853018D1*
X2092811Y851706D1*
X2091794Y850394D1*
X2090984Y849081D1*
X2090312Y847769D1*
X2089803Y846457D1*
X2089500Y845144D1*
X2089348Y843832D1*
X2089287Y842520D1*
X2089306Y841207D1*
X2089463Y839895D1*
X2089779Y838583D1*
X2090165Y837270D1*
X2090612Y835958D1*
X2091272Y834646D1*
X2092246Y833333D1*
X2093570Y832021D1*
X2095244Y830709D1*
X2097113Y829396D1*
X2104987Y855643D2*
X2107304Y854331D1*
X2109210Y853018D1*
X2110601Y851706D1*
X2111618Y850394D1*
X2112428Y849081D1*
X2113100Y847769D1*
X2113609Y846457D1*
X2113912Y845144D1*
X2114069Y843832D1*
X2114182Y842520D1*
X2114376Y841207D1*
X2114700Y839895D1*
X2115041Y838583D1*
X2115266Y837270D1*
X2115342Y835958D1*
X2115230Y834646D1*
X2114939Y833333D1*
X2114611Y832021D1*
X2114386Y830709D1*
X2114260Y829396D1*
X2114159Y828084D1*
X2113963Y826772D1*
X2113594Y825459D1*
X2113082Y824147D1*
X2112486Y822835D1*
X2111809Y821522D1*
X2110987Y820210D1*
X2109923Y818898D1*
X2108558Y817585D1*
X2106865Y816273D1*
X2104987Y814961D1*
X2101050Y851706D2*
X2098891Y850394D1*
X2097183Y849081D1*
X2095943Y847769D1*
X2095013Y846457D1*
X2094285Y845144D1*
X2093759Y843832D1*
X2093493Y842520D1*
X2093511Y841207D1*
X2093814Y839895D1*
X2094418Y838583D1*
X2095284Y837270D1*
X2098077Y835958D1*
X2102371Y834646D1*
X2107612Y833333D1*
X2104987Y851706D2*
X2106294Y850394D1*
X2107555Y849081D1*
X2108649Y847769D1*
X2109429Y846457D1*
X2109872Y845144D1*
X2110086Y843832D1*
X2110173Y842520D1*
X2110159Y841207D1*
X2109954Y839895D1*
X2109551Y838583D1*
X2108320Y837270D1*
X2106181Y835958D1*
X2102714Y834646D1*
X2098425Y833333D1*
X2110236Y834646D2*
X2108870Y833333D1*
X2107354Y832021D1*
X2105593Y830709D1*
X2103675Y829396D1*
X2112861Y834646D2*
X2111806Y833333D1*
X2111039Y832021D1*
X2110594Y830709D1*
X2110335Y829396D1*
X2110071Y828084D1*
X2109668Y826772D1*
X2109099Y825459D1*
X2108307Y824147D1*
X2107301Y822835D1*
X2104956Y821522D1*
X2101428Y820210D1*
X2097113Y818898D1*
X2090551Y824147D2*
X2090606Y822835D1*
X2090826Y821522D1*
X2091364Y820210D1*
X2092283Y818898D1*
X2093584Y817585D1*
X2095249Y816273D1*
X2097113Y814961D1*
X2094488Y824147D2*
X2095219Y822835D1*
X2097355Y821522D1*
X2100758Y820210D1*
X2104987Y818898D1*
X2262467Y855643D2*
X2261155Y854331D1*
X2259843Y853018D1*
X2258525Y851706D1*
X2257167Y850394D1*
X2255692Y849081D1*
X2254117Y847769D1*
X2252686Y846457D1*
X2251513Y845144D1*
X2251031Y843832D1*
X2250656Y842520D1*
X2265092Y855643D2*
Y854331D1*
Y853018D1*
Y851706D1*
Y850394D1*
Y849081D1*
Y847769D1*
Y846457D1*
Y845144D1*
Y843832D1*
Y842520D1*
Y841207D1*
Y839895D1*
Y838583D1*
Y837270D1*
Y835958D1*
Y834646D1*
Y833333D1*
Y832021D1*
Y830709D1*
Y829396D1*
Y828084D1*
Y826772D1*
Y825459D1*
Y824147D1*
Y822835D1*
Y821522D1*
Y820210D1*
Y818898D1*
Y817585D1*
Y816273D1*
Y814961D1*
X2287402Y855643D2*
X2285489Y854331D1*
X2283845Y853018D1*
X2282515Y851706D1*
X2281483Y850394D1*
X2280692Y849081D1*
X2280123Y847769D1*
X2279751Y846457D1*
X2279424Y845144D1*
X2279039Y843832D1*
X2278675Y842520D1*
X2278435Y841207D1*
X2278310Y839895D1*
X2278253Y838583D1*
X2278229Y837270D1*
X2278220Y835958D1*
X2278217Y834646D1*
X2278216Y833333D1*
X2278221Y832021D1*
X2278267Y830709D1*
X2278434Y829396D1*
X2278748Y828084D1*
X2279090Y826772D1*
X2279365Y825459D1*
X2279659Y824147D1*
X2280080Y822835D1*
X2280658Y821522D1*
X2281434Y820210D1*
X2282478Y818898D1*
X2283835Y817585D1*
X2285525Y816273D1*
X2287402Y814961D1*
X2295276Y855643D2*
X2297144Y854331D1*
X2298660Y853018D1*
X2299802Y851706D1*
X2300690Y850394D1*
X2301442Y849081D1*
X2302091Y847769D1*
X2302596Y846457D1*
X2302942Y845144D1*
X2303259Y843832D1*
X2303640Y842520D1*
X2304003Y841207D1*
X2304242Y839895D1*
X2304368Y838583D1*
X2304425Y837270D1*
X2304448Y835958D1*
X2304457Y834646D1*
X2304455Y833333D1*
X2304410Y832021D1*
X2304243Y830709D1*
X2303929Y829396D1*
X2303588Y828084D1*
X2303313Y826772D1*
X2303018Y825459D1*
X2302602Y824147D1*
X2302070Y822835D1*
X2301467Y821522D1*
X2300782Y820210D1*
X2299914Y818898D1*
X2298698Y817585D1*
X2297094Y816273D1*
X2295276Y814961D1*
X2288714Y851706D2*
X2287407Y850394D1*
X2286146Y849081D1*
X2285052Y847769D1*
X2284267Y846457D1*
X2283778Y845144D1*
X2283397Y843832D1*
X2282990Y842520D1*
X2282617Y841207D1*
X2282374Y839895D1*
X2282247Y838583D1*
X2282190Y837270D1*
X2282166Y835958D1*
X2282157Y834646D1*
X2282159Y833333D1*
X2282204Y832021D1*
X2282371Y830709D1*
X2282685Y829396D1*
X2283027Y828084D1*
X2283307Y826772D1*
X2283647Y825459D1*
X2284261Y824147D1*
X2285146Y822835D1*
X2287460Y821522D1*
X2290971Y820210D1*
X2295276Y818898D1*
X2293963Y851706D2*
X2295226Y850394D1*
X2296365Y849081D1*
X2297311Y847769D1*
X2298068Y846457D1*
X2298619Y845144D1*
X2298946Y843832D1*
X2299150Y842520D1*
X2299387Y841207D1*
X2299729Y839895D1*
X2300076Y838583D1*
X2300309Y837270D1*
X2300427Y835958D1*
X2300437Y834646D1*
X2300293Y833333D1*
X2299987Y832021D1*
X2299654Y830709D1*
X2299421Y829396D1*
X2299254Y828084D1*
X2299026Y826772D1*
X2298637Y825459D1*
X2298048Y824147D1*
X2297288Y822835D1*
X2295092Y821522D1*
X2291654Y820210D1*
X2287402Y818898D1*
X2258530Y846457D2*
X2256977Y845144D1*
X2255204Y843832D1*
X2253281Y842520D1*
X2259843Y846457D2*
Y845144D1*
Y843832D1*
Y842520D1*
Y841207D1*
Y839895D1*
Y838583D1*
Y837270D1*
Y835958D1*
Y834646D1*
Y833333D1*
Y832021D1*
Y830709D1*
Y829396D1*
Y828084D1*
Y826772D1*
Y825459D1*
Y824147D1*
Y822835D1*
Y821522D1*
Y820210D1*
Y818898D1*
Y817585D1*
Y816273D1*
Y814961D1*
X2459318Y855643D2*
X2458005Y854331D1*
X2456693Y853018D1*
X2455375Y851706D1*
X2454017Y850394D1*
X2452543Y849081D1*
X2450967Y847769D1*
X2449536Y846457D1*
X2448363Y845144D1*
X2447881Y843832D1*
X2447507Y842520D1*
X2461942Y855643D2*
Y854331D1*
Y853018D1*
Y851706D1*
Y850394D1*
Y849081D1*
Y847769D1*
Y846457D1*
Y845144D1*
Y843832D1*
Y842520D1*
Y841207D1*
Y839895D1*
Y838583D1*
Y837270D1*
Y835958D1*
Y834646D1*
Y833333D1*
Y832021D1*
Y830709D1*
Y829396D1*
Y828084D1*
Y826772D1*
Y825459D1*
Y824147D1*
Y822835D1*
Y821522D1*
Y820210D1*
Y818898D1*
Y817585D1*
Y816273D1*
Y814961D1*
X2490814Y855643D2*
X2489501Y854331D1*
X2488189Y853018D1*
X2486872Y851706D1*
X2485513Y850394D1*
X2484039Y849081D1*
X2482463Y847769D1*
X2481033Y846457D1*
X2479861Y845144D1*
X2479417Y843832D1*
X2479166Y842520D1*
X2479003Y841207D1*
X2493438Y855643D2*
Y854331D1*
Y853018D1*
Y851706D1*
Y850394D1*
Y849081D1*
Y847769D1*
Y846457D1*
Y845144D1*
Y843832D1*
Y842520D1*
Y841207D1*
Y839895D1*
Y838583D1*
Y837270D1*
Y835958D1*
Y834646D1*
Y833333D1*
Y832021D1*
Y830709D1*
Y829396D1*
Y828084D1*
Y826772D1*
Y825459D1*
Y824147D1*
Y822835D1*
Y821522D1*
Y820210D1*
Y818898D1*
Y817585D1*
Y816273D1*
Y814961D1*
X2455381Y846457D2*
X2453827Y845144D1*
X2452054Y843832D1*
X2450131Y842520D1*
X2456693Y846457D2*
Y845144D1*
Y843832D1*
Y842520D1*
Y841207D1*
Y839895D1*
Y838583D1*
Y837270D1*
Y835958D1*
Y834646D1*
Y833333D1*
Y832021D1*
Y830709D1*
Y829396D1*
Y828084D1*
Y826772D1*
Y825459D1*
Y824147D1*
Y822835D1*
Y821522D1*
Y820210D1*
Y818898D1*
Y817585D1*
Y816273D1*
Y814961D1*
X2486877Y846457D2*
X2485307Y845144D1*
X2483454Y843832D1*
X2481299Y842520D1*
X2479003Y841207D1*
X2488189Y846457D2*
Y845144D1*
Y843832D1*
Y842520D1*
Y841207D1*
Y839895D1*
Y838583D1*
Y837270D1*
Y835958D1*
Y834646D1*
Y833333D1*
Y832021D1*
Y830709D1*
Y829396D1*
Y828084D1*
Y826772D1*
Y825459D1*
Y824147D1*
Y822835D1*
Y821522D1*
Y820210D1*
Y818898D1*
Y817585D1*
Y816273D1*
Y814961D1*
X2715223Y855643D2*
X2713911Y854331D1*
X2712598Y853018D1*
X2711281Y851706D1*
X2709922Y850394D1*
X2708448Y849081D1*
X2706873Y847769D1*
X2705442Y846457D1*
X2704269Y845144D1*
X2703786Y843832D1*
X2703412Y842520D1*
X2717848Y855643D2*
Y854331D1*
Y853018D1*
Y851706D1*
Y850394D1*
Y849081D1*
Y847769D1*
Y846457D1*
Y845144D1*
Y843832D1*
Y842520D1*
Y841207D1*
Y839895D1*
Y838583D1*
Y837270D1*
Y835958D1*
Y834646D1*
Y833333D1*
Y832021D1*
Y830709D1*
Y829396D1*
Y828084D1*
Y826772D1*
Y825459D1*
Y824147D1*
Y822835D1*
Y821522D1*
Y820210D1*
Y818898D1*
Y817585D1*
Y816273D1*
Y814961D1*
X2740157Y855643D2*
X2737841Y854331D1*
X2735934Y853018D1*
X2734548Y851706D1*
X2733573Y850394D1*
X2732884Y849081D1*
X2732357Y847769D1*
X2731859Y846457D1*
X2731392Y845144D1*
X2730971Y843832D1*
X2748031Y855643D2*
X2749950Y854331D1*
X2751634Y853018D1*
X2753086Y851706D1*
X2754264Y850394D1*
X2755078Y849081D1*
X2755534Y847769D1*
X2755753Y846457D1*
X2755842Y845144D1*
X2755833Y843832D1*
X2755674Y842520D1*
X2755319Y841207D1*
X2754812Y839895D1*
X2754218Y838583D1*
X2753541Y837270D1*
X2752724Y835958D1*
X2751710Y834646D1*
X2750542Y833333D1*
X2749250Y832021D1*
X2747797Y830709D1*
X2746181Y829396D1*
X2744536Y828084D1*
X2742996Y826772D1*
X2741562Y825459D1*
X2740194Y824147D1*
X2738859Y822835D1*
X2737538Y821522D1*
X2736222Y820210D1*
X2734908Y818898D1*
X2742782Y851706D2*
X2740471Y850394D1*
X2738605Y849081D1*
X2737159Y847769D1*
X2736431Y846457D1*
X2735696Y845144D1*
X2734908Y843832D1*
X2746719Y851706D2*
X2748026Y850394D1*
X2749287Y849081D1*
X2750381Y847769D1*
X2751161Y846457D1*
X2751599Y845144D1*
X2751767Y843832D1*
X2751687Y842520D1*
X2751358Y841207D1*
X2750817Y839895D1*
X2750060Y838583D1*
X2749071Y837270D1*
X2747918Y835958D1*
X2746670Y834646D1*
X2745339Y833333D1*
X2743870Y832021D1*
X2742247Y830709D1*
X2740600Y829396D1*
X2739059Y828084D1*
X2737630Y826772D1*
X2736309Y825459D1*
X2735140Y824147D1*
X2734139Y822835D1*
X2733211Y821522D1*
X2732345Y820210D1*
X2731686Y818898D1*
X2731298Y817585D1*
X2731097Y816273D1*
X2730971Y814961D1*
X2711286Y846457D2*
X2709732Y845144D1*
X2707960Y843832D1*
X2706037Y842520D1*
X2712598Y846457D2*
Y845144D1*
Y843832D1*
Y842520D1*
Y841207D1*
Y839895D1*
Y838583D1*
Y837270D1*
Y835958D1*
Y834646D1*
Y833333D1*
Y832021D1*
Y830709D1*
Y829396D1*
Y828084D1*
Y826772D1*
Y825459D1*
Y824147D1*
Y822835D1*
Y821522D1*
Y820210D1*
Y818898D1*
Y817585D1*
Y816273D1*
Y814961D1*
X2755906Y818898D2*
Y817585D1*
Y816273D1*
Y814961D1*
X2248031Y1741470D2*
Y1740157D1*
Y1738845D1*
Y1737533D1*
Y1736220D1*
Y1734908D1*
Y1733596D1*
Y1732283D1*
Y1730971D1*
Y1729659D1*
Y1728346D1*
Y1727034D1*
Y1725722D1*
Y1724409D1*
Y1723097D1*
Y1721785D1*
Y1720472D1*
Y1719160D1*
Y1717848D1*
Y1716535D1*
Y1715223D1*
Y1713911D1*
Y1712598D1*
Y1711286D1*
Y1709974D1*
Y1708661D1*
Y1707349D1*
Y1706037D1*
Y1704724D1*
Y1703412D1*
Y1702100D1*
Y1700787D1*
X2253281Y1741470D2*
Y1740157D1*
Y1738845D1*
Y1737533D1*
Y1736220D1*
Y1734908D1*
Y1733596D1*
Y1732283D1*
Y1730971D1*
Y1729659D1*
Y1728346D1*
X2253286Y1727034D1*
X2253336Y1725722D1*
X2253539Y1724409D1*
X2253987Y1723097D1*
X2254593Y1721785D1*
X2272966Y1741470D2*
X2272102Y1740157D1*
X2271180Y1738845D1*
X2270117Y1737533D1*
X2268933Y1736220D1*
X2267679Y1734908D1*
X2266390Y1733596D1*
X2265087Y1732283D1*
X2263778Y1730971D1*
X2262467Y1729659D1*
X2261155Y1728346D1*
X2259837Y1727034D1*
X2258475Y1725722D1*
X2256960Y1724409D1*
X2255199Y1723097D1*
X2253281Y1721785D1*
X2279528Y1741470D2*
X2278215Y1740157D1*
X2276903Y1738845D1*
X2275591Y1737533D1*
X2274278Y1736220D1*
X2272966Y1734908D1*
X2271654Y1733596D1*
X2270341Y1732283D1*
X2269029Y1730971D1*
X2267722Y1729659D1*
X2266466Y1728346D1*
X2265418Y1727034D1*
X2264623Y1725722D1*
X2264686Y1724409D1*
X2265062Y1723097D1*
X2265735Y1721785D1*
X2266646Y1720472D1*
X2267619Y1719160D1*
X2268538Y1717848D1*
X2269438Y1716535D1*
X2270343Y1715223D1*
X2271215Y1713911D1*
X2272129Y1712598D1*
X2273143Y1711286D1*
X2274157Y1709974D1*
X2275096Y1708661D1*
X2276043Y1707349D1*
X2277071Y1706037D1*
X2278090Y1704724D1*
X2279020Y1703412D1*
X2279918Y1702100D1*
X2280840Y1700787D1*
X2259843Y1721785D2*
X2258530Y1720472D1*
X2257223Y1719160D1*
X2255962Y1717848D1*
X2254868Y1716535D1*
X2254089Y1715223D1*
X2253646Y1713911D1*
X2253431Y1712598D1*
X2253339Y1711286D1*
X2253302Y1709974D1*
X2253288Y1708661D1*
X2253283Y1707349D1*
X2253282Y1706037D1*
X2253281Y1704724D1*
Y1703412D1*
Y1702100D1*
Y1700787D1*
X2259843Y1721785D2*
X2260952Y1720472D1*
X2261934Y1719160D1*
X2262860Y1717848D1*
X2263776Y1716535D1*
X2264646Y1715223D1*
X2265520Y1713911D1*
X2266414Y1712598D1*
X2267281Y1711286D1*
X2268193Y1709974D1*
X2269206Y1708661D1*
X2270220Y1707349D1*
X2271154Y1706037D1*
X2272056Y1704724D1*
X2272926Y1703412D1*
X2273658Y1702100D1*
X2274278Y1700787D1*
X2503937Y1741470D2*
Y1740157D1*
Y1738845D1*
Y1737533D1*
Y1736220D1*
Y1734908D1*
Y1733596D1*
Y1732283D1*
Y1730971D1*
Y1729659D1*
Y1728346D1*
Y1727034D1*
Y1725722D1*
Y1724409D1*
Y1723097D1*
Y1721785D1*
Y1720472D1*
Y1719160D1*
Y1717848D1*
Y1716535D1*
Y1715223D1*
Y1713911D1*
Y1712598D1*
Y1711286D1*
Y1709974D1*
Y1708661D1*
Y1707349D1*
Y1706037D1*
Y1704724D1*
Y1703412D1*
Y1702100D1*
Y1700787D1*
X2509186Y1741470D2*
Y1740157D1*
Y1738845D1*
Y1737533D1*
Y1736220D1*
Y1734908D1*
Y1733596D1*
Y1732283D1*
Y1730971D1*
Y1729659D1*
Y1728346D1*
X2509191Y1727034D1*
X2509241Y1725722D1*
X2509444Y1724409D1*
X2509893Y1723097D1*
X2510499Y1721785D1*
X2528871Y1741470D2*
X2528008Y1740157D1*
X2527086Y1738845D1*
X2526022Y1737533D1*
X2524839Y1736220D1*
X2523584Y1734908D1*
X2522296Y1733596D1*
X2520992Y1732283D1*
X2519683Y1730971D1*
X2518372Y1729659D1*
X2517060Y1728346D1*
X2515743Y1727034D1*
X2514381Y1725722D1*
X2512865Y1724409D1*
X2511104Y1723097D1*
X2509186Y1721785D1*
X2535433Y1741470D2*
X2534121Y1740157D1*
X2532808Y1738845D1*
X2531496Y1737533D1*
X2530184Y1736220D1*
X2528871Y1734908D1*
X2527559Y1733596D1*
X2526247Y1732283D1*
X2524934Y1730971D1*
X2523627Y1729659D1*
X2522371Y1728346D1*
X2521324Y1727034D1*
X2520528Y1725722D1*
X2520592Y1724409D1*
X2520968Y1723097D1*
X2521641Y1721785D1*
X2522551Y1720472D1*
X2523525Y1719160D1*
X2524443Y1717848D1*
X2525343Y1716535D1*
X2526248Y1715223D1*
X2527121Y1713911D1*
X2528034Y1712598D1*
X2529048Y1711286D1*
X2530063Y1709974D1*
X2531002Y1708661D1*
X2531948Y1707349D1*
X2532976Y1706037D1*
X2533995Y1704724D1*
X2534926Y1703412D1*
X2535823Y1702100D1*
X2536745Y1700787D1*
X2515748Y1721785D2*
X2514436Y1720472D1*
X2513128Y1719160D1*
X2511867Y1717848D1*
X2510774Y1716535D1*
X2509994Y1715223D1*
X2509551Y1713911D1*
X2509337Y1712598D1*
X2509244Y1711286D1*
X2509208Y1709974D1*
X2509194Y1708661D1*
X2509189Y1707349D1*
X2509187Y1706037D1*
Y1704724D1*
X2509186Y1703412D1*
Y1702100D1*
Y1700787D1*
X2515748Y1721785D2*
X2516858Y1720472D1*
X2517839Y1719160D1*
X2518766Y1717848D1*
X2519681Y1716535D1*
X2520552Y1715223D1*
X2521426Y1713911D1*
X2522319Y1712598D1*
X2523187Y1711286D1*
X2524098Y1709974D1*
X2525112Y1708661D1*
X2526126Y1707349D1*
X2527060Y1706037D1*
X2527961Y1704724D1*
X2528832Y1703412D1*
X2529563Y1702100D1*
X2530184Y1700787D1*
X2307275Y1857869D2*
D63*
Y1807629D1*
X2324022D1*
X2331207Y1810061D1*
X2336016Y1814814D1*
X2338392Y1819622D1*
X2340769Y1826752D1*
Y1838746D1*
X2338392Y1845931D1*
X2336016Y1850684D1*
X2331207Y1855492D1*
X2324022Y1857869D1*
X2307275D1*
X2356208Y1848252D2*
X2361016Y1850684D1*
X2368201Y1857814D1*
Y1807629D1*
X2386073Y1845875D2*
Y1848252D1*
X2388449Y1853060D1*
X2390826Y1855437D1*
X2395634Y1857814D1*
X2405196D1*
X2409949Y1855437D1*
X2412326Y1853060D1*
X2414757Y1848252D1*
Y1843499D1*
X2412326Y1838690D1*
X2407572Y1831561D1*
X2383641Y1807629D1*
X2417134D1*
X2563181Y1857869D2*
Y1807629D1*
X2579928D1*
X2587113Y1810061D1*
X2591921Y1814814D1*
X2594298Y1819622D1*
X2596674Y1826752D1*
Y1838746D1*
X2594298Y1845931D1*
X2591921Y1850684D1*
X2587113Y1855492D1*
X2579928Y1857869D1*
X2563181D1*
X2612113Y1848252D2*
X2616922Y1850684D1*
X2624107Y1857814D1*
Y1807629D1*
X2644355Y1857814D2*
X2670608D1*
X2656293Y1838690D1*
X2663478D1*
X2668231Y1836314D1*
X2670608Y1833937D1*
X2673040Y1826752D1*
Y1821999D1*
X2670608Y1814814D1*
X2665855Y1810005D1*
X2658669Y1807629D1*
X2651484D1*
X2644355Y1810005D1*
X2641978Y1812437D1*
X2639546Y1817190D1*
X1793841Y2921833D2*
Y2871593D1*
X1822526D1*
X1873835Y2909895D2*
X1871458Y2914648D1*
X1866650Y2919456D1*
X1861897Y2921833D1*
X1852335D1*
X1847527Y2919456D1*
X1842773Y2914648D1*
X1840342Y2909895D1*
X1837965Y2902710D1*
Y2890716D1*
X1840342Y2883586D1*
X1842773Y2878778D1*
X1847527Y2874025D1*
X1852335Y2871593D1*
X1861897D1*
X1866650Y2874025D1*
X1871458Y2878778D1*
X1873835Y2883586D1*
X1889274Y2921833D2*
Y2871593D1*
X1906021D1*
X1913206Y2874025D1*
X1918014Y2878778D1*
X1920391Y2883586D1*
X1922767Y2890716D1*
Y2902710D1*
X1920391Y2909895D1*
X1918014Y2914648D1*
X1913206Y2919456D1*
X1906021Y2921833D1*
X1889274D1*
X1986808Y2912216D2*
X1991616Y2914648D1*
X1998801Y2921778D1*
Y2871593D1*
X2042925Y2914648D2*
X2040549Y2919401D1*
X2033364Y2921778D1*
X2028610D1*
X2021425Y2919401D1*
X2016617Y2912216D1*
X2014240Y2900278D1*
Y2888340D1*
X2016617Y2878778D1*
X2021425Y2873970D1*
X2028610Y2871593D1*
X2030987D1*
X2038117Y2873970D1*
X2042925Y2878778D1*
X2045302Y2885963D1*
Y2888340D1*
X2042925Y2895525D1*
X2038117Y2900278D1*
X2030987Y2902654D1*
X2028610D1*
X2021425Y2900278D1*
X2016617Y2895525D1*
X2014240Y2888340D1*
X2075111Y2921778D2*
X2067926Y2919401D1*
X2063118Y2912216D1*
X2060741Y2900278D1*
Y2893093D1*
X2063118Y2881155D1*
X2067926Y2873970D1*
X2075111Y2871593D1*
X2079864D1*
X2087049Y2873970D1*
X2091803Y2881155D1*
X2094234Y2893093D1*
Y2900278D1*
X2091803Y2912216D1*
X2087049Y2919401D1*
X2079864Y2921778D1*
X2075111D1*
X2091803Y2912216D2*
X2063118Y2881155D1*
X2112106Y2909839D2*
Y2912216D1*
X2114482Y2917025D1*
X2116859Y2919401D1*
X2121667Y2921778D1*
X2131229D1*
X2135982Y2919401D1*
X2138359Y2917025D1*
X2140790Y2912216D1*
Y2907463D1*
X2138359Y2902654D1*
X2133605Y2895525D1*
X2109674Y2871593D1*
X2143167D1*
X621102Y1502599D2*
X618725Y1507352D1*
X613917Y1512161D1*
X609164Y1514537D1*
X599602D1*
X594794Y1512161D1*
X590040Y1507352D1*
X587609Y1502599D1*
X585232Y1495414D1*
Y1483421D1*
X587609Y1476291D1*
X590040Y1471482D1*
X594794Y1466729D1*
X599602Y1464297D1*
X609164D1*
X613917Y1466729D1*
X618725Y1471482D1*
X621102Y1476291D1*
X648479Y1497791D2*
X643726Y1495414D1*
X638918Y1490606D1*
X636541Y1483421D1*
Y1478667D1*
X638918Y1471482D1*
X643726Y1466729D1*
X648479Y1464297D1*
X655664D1*
X660473Y1466729D1*
X665226Y1471482D1*
X667658Y1478667D1*
Y1483421D1*
X665226Y1490606D1*
X660473Y1495414D1*
X655664Y1497791D1*
X648479D1*
X683097D2*
Y1464297D1*
Y1488229D2*
X690282Y1495414D1*
X695091Y1497791D1*
X702220D1*
X707029Y1495414D1*
X709405Y1488229D1*
Y1464297D1*
X732030Y1514537D2*
Y1473859D1*
X734406Y1466729D1*
X739215Y1464297D1*
X743968D1*
X724845Y1497791D2*
X741591D1*
X759407D2*
Y1464297D1*
Y1483421D2*
X761839Y1490606D1*
X766592Y1495414D1*
X771401Y1497791D1*
X778586D1*
X822710D2*
Y1464297D1*
Y1490606D2*
X817957Y1495414D1*
X813148Y1497791D1*
X806019D1*
X801210Y1495414D1*
X796457Y1490606D1*
X794025Y1483421D1*
Y1478667D1*
X796457Y1471482D1*
X801210Y1466729D1*
X806019Y1464297D1*
X813148D1*
X817957Y1466729D1*
X822710Y1471482D1*
X864457Y1490606D2*
X862081Y1495414D1*
X854896Y1497791D1*
X847711D1*
X840526Y1495414D1*
X838149Y1490606D1*
X840526Y1485852D1*
X845334Y1483421D1*
X857272Y1481044D1*
X862081Y1478667D1*
X864457Y1473859D1*
Y1471482D1*
X862081Y1466729D1*
X854896Y1464297D1*
X847711D1*
X840526Y1466729D1*
X838149Y1471482D1*
X887082Y1514537D2*
Y1473859D1*
X889458Y1466729D1*
X894267Y1464297D1*
X899020D1*
X879897Y1497791D2*
X896643D1*
X700913Y1362468D2*
X722413D1*
X729598Y1364900D1*
X732030Y1367277D1*
X734406Y1372030D1*
Y1376838D1*
X732030Y1381591D1*
X729598Y1384023D1*
X722413Y1386400D1*
X700913D1*
Y1336160D1*
X717660Y1362468D2*
X734406Y1336160D1*
X752277Y1374406D2*
Y1376783D1*
X754654Y1381591D1*
X757031Y1383968D1*
X761839Y1386345D1*
X771401D1*
X776154Y1383968D1*
X778530Y1381591D1*
X780962Y1376783D1*
Y1372030D1*
X778530Y1367221D1*
X773777Y1360092D1*
X749846Y1336160D1*
X783339D1*
X700913Y1244358D2*
X722413D1*
X729598Y1246790D1*
X732030Y1249166D1*
X734406Y1253920D1*
Y1258728D1*
X732030Y1263481D1*
X729598Y1265913D1*
X722413Y1268290D1*
X700913D1*
Y1218050D1*
X717660Y1244358D2*
X734406Y1218050D1*
X754654Y1268234D2*
X780907D1*
X766592Y1249111D1*
X773777D1*
X778530Y1246735D1*
X780907Y1244358D1*
X783339Y1237173D1*
Y1232420D1*
X780907Y1225235D1*
X776154Y1220426D1*
X768969Y1218050D1*
X761784D1*
X754654Y1220426D1*
X752277Y1222858D1*
X749846Y1227611D1*
X699725Y1126248D2*
X721225D1*
X728410Y1128680D1*
X730841Y1131056D1*
X733218Y1135809D1*
Y1140618D1*
X730841Y1145371D1*
X728410Y1147803D1*
X721225Y1150179D1*
X699725D1*
Y1099939D1*
X716471Y1126248D2*
X733218Y1099939D1*
X772589D2*
Y1150124D1*
X748657Y1116686D1*
X784527D1*
X2445008Y1480578D2*
X2466507D1*
X2473692Y1483010D1*
X2476124Y1485387D1*
X2478501Y1490140D1*
Y1494949D1*
X2476124Y1499702D1*
X2473692Y1502134D1*
X2466507Y1504510D1*
X2445008D1*
Y1454270D1*
X2461754Y1480578D2*
X2478501Y1454270D1*
X2522625Y1504455D2*
X2498749D1*
X2496372Y1482955D1*
X2498749Y1485332D1*
X2505934Y1487763D1*
X2513063D1*
X2520248Y1485332D1*
X2525057Y1480578D1*
X2527433Y1473393D1*
Y1468640D1*
X2525057Y1461455D1*
X2520248Y1456647D1*
X2513063Y1454270D1*
X2505934D1*
X2498749Y1456647D1*
X2496372Y1459079D1*
X2493940Y1463832D1*
X2446223Y1362468D2*
X2467723D1*
X2474908Y1364900D1*
X2477340Y1367277D1*
X2479717Y1372030D1*
Y1376838D1*
X2477340Y1381591D1*
X2474908Y1384023D1*
X2467723Y1386400D1*
X2446223D1*
Y1336160D1*
X2462970Y1362468D2*
X2479717Y1336160D1*
X2523841Y1379215D2*
X2521464Y1383968D1*
X2514279Y1386345D1*
X2509526D1*
X2502341Y1383968D1*
X2497533Y1376783D1*
X2495156Y1364845D1*
Y1352907D1*
X2497533Y1343345D1*
X2502341Y1338536D1*
X2509526Y1336160D1*
X2511903D1*
X2519032Y1338536D1*
X2523841Y1343345D1*
X2526218Y1350530D1*
Y1352907D1*
X2523841Y1360092D1*
X2519032Y1364845D1*
X2511903Y1367221D1*
X2509526D1*
X2502341Y1364845D1*
X2497533Y1360092D1*
X2495156Y1352907D1*
X2445008Y1244358D2*
X2466507D1*
X2473692Y1246790D1*
X2476124Y1249166D1*
X2478501Y1253920D1*
Y1258728D1*
X2476124Y1263481D1*
X2473692Y1265913D1*
X2466507Y1268290D1*
X2445008D1*
Y1218050D1*
X2461754Y1244358D2*
X2478501Y1218050D1*
X2503502D2*
X2527433Y1268234D1*
X2493940D1*
X2445035Y1126248D2*
X2466535D1*
X2473720Y1128680D1*
X2476152Y1131056D1*
X2478528Y1135809D1*
Y1140618D1*
X2476152Y1145371D1*
X2473720Y1147803D1*
X2466535Y1150179D1*
X2445035D1*
Y1099939D1*
X2461782Y1126248D2*
X2478528Y1099939D1*
X2505906Y1150124D2*
X2498776Y1147748D1*
X2496344Y1142994D1*
Y1138186D1*
X2498776Y1133433D1*
X2503529Y1131001D1*
X2513091Y1128624D1*
X2520276Y1126248D1*
X2525029Y1121439D1*
X2527406Y1116686D1*
Y1109501D1*
X2525029Y1104748D1*
X2522653Y1102316D1*
X2515468Y1099939D1*
X2505906D1*
X2498776Y1102316D1*
X2496344Y1104748D1*
X2493968Y1109501D1*
Y1116686D1*
X2496344Y1121439D1*
X2501153Y1126248D1*
X2508283Y1128624D1*
X2517844Y1131001D1*
X2522653Y1133433D1*
X2525029Y1138186D1*
Y1142994D1*
X2522653Y1147748D1*
X2515468Y1150124D1*
X2505906D1*
X1313582Y2119440D2*
X1294404Y2169680D1*
X1275280Y2119440D1*
X1282465Y2136186D2*
X1306397D1*
X1343392Y2169624D2*
X1336207Y2167248D1*
X1331398Y2160063D1*
X1329021Y2148125D1*
Y2140940D1*
X1331398Y2129001D1*
X1336207Y2121816D1*
X1343392Y2119440D1*
X1348145D1*
X1355330Y2121816D1*
X1360083Y2129001D1*
X1362515Y2140940D1*
Y2148125D1*
X1360083Y2160063D1*
X1355330Y2167248D1*
X1348145Y2169624D1*
X1343392D1*
X1360083Y2160063D2*
X1331398Y2129001D1*
X1914883Y2119440D2*
X1895705Y2169680D1*
X1876582Y2119440D1*
X1883767Y2136186D2*
X1907698D1*
X1930323Y2160063D2*
X1935131Y2162495D1*
X1942316Y2169624D1*
Y2119440D1*
X1313582Y1509204D2*
X1294404Y1559444D1*
X1275280Y1509204D1*
X1282465Y1525950D2*
X1306397D1*
X1331453Y1547450D2*
Y1549827D1*
X1333830Y1554635D1*
X1336207Y1557012D1*
X1341015Y1559388D1*
X1350577D1*
X1355330Y1557012D1*
X1357706Y1554635D1*
X1360138Y1549827D1*
Y1545073D1*
X1357706Y1540265D1*
X1352953Y1533135D1*
X1329021Y1509204D1*
X1362515D1*
X1904133D2*
X1884955Y1559444D1*
X1865832Y1509204D1*
X1873017Y1525950D2*
X1896948D1*
X1924381Y1559388D2*
X1950634D1*
X1936319Y1540265D1*
X1943504D1*
X1948258Y1537888D1*
X1950634Y1535512D1*
X1953066Y1528327D1*
Y1523574D1*
X1950634Y1516389D1*
X1945881Y1511580D1*
X1938696Y1509204D1*
X1931511D1*
X1924381Y1511580D1*
X1922005Y1514012D1*
X1919573Y1518765D1*
X3049164Y2168081D2*
Y2117841D1*
X3015671Y2168081D1*
Y2117841D1*
X3093288Y2151334D2*
Y2117841D1*
Y2144149D2*
X3088535Y2148957D1*
X3083727Y2151334D1*
X3076597D1*
X3071788Y2148957D1*
X3067035Y2144149D1*
X3064603Y2136964D1*
Y2132211D1*
X3067035Y2125026D1*
X3071788Y2120273D1*
X3076597Y2117841D1*
X3083727D1*
X3088535Y2120273D1*
X3093288Y2125026D1*
X3108728Y2151334D2*
Y2117841D1*
Y2141772D2*
X3115913Y2148957D1*
X3120721Y2151334D1*
X3127851D1*
X3132659Y2148957D1*
X3135036Y2141772D1*
Y2117841D1*
X3162413Y2151334D2*
X3157660Y2148957D1*
X3152852Y2144149D1*
X3150475Y2136964D1*
Y2132211D1*
X3152852Y2125026D1*
X3157660Y2120273D1*
X3162413Y2117841D1*
X3169598D1*
X3174407Y2120273D1*
X3179160Y2125026D1*
X3181592Y2132211D1*
Y2136964D1*
X3179160Y2144149D1*
X3174407Y2148957D1*
X3169598Y2151334D1*
X3162413D1*
X3245632Y2168081D2*
X3264755Y2117841D1*
X3283879Y2168081D1*
X3304126Y2168025D2*
X3330379D1*
X3316064Y2148902D1*
X3323250D1*
X3328003Y2146526D1*
X3330379Y2144149D1*
X3332811Y2136964D1*
Y2132211D1*
X3330379Y2125026D1*
X3325626Y2120217D1*
X3318441Y2117841D1*
X3311256D1*
X3304126Y2120217D1*
X3301750Y2122649D1*
X3299318Y2127402D1*
X3350627Y2122649D2*
X3348250Y2120217D1*
X3350627Y2117841D1*
X3353059Y2120217D1*
X3350627Y2122649D1*
X3382868Y2168025D2*
X3375683Y2165649D1*
X3370875Y2158464D1*
X3368498Y2146526D1*
Y2139341D1*
X3370875Y2127402D1*
X3375683Y2120217D1*
X3382868Y2117841D1*
X3387621D1*
X3394806Y2120217D1*
X3399560Y2127402D1*
X3401991Y2139341D1*
Y2146526D1*
X3399560Y2158464D1*
X3394806Y2165649D1*
X3387621Y2168025D1*
X3382868D1*
X3399560Y2158464D2*
X3370875Y2127402D1*
M02*
